<?xml version="1.0" encoding="UTF-8"?>
<svg width="9px" height="6px" viewBox="0 0 9 6" version="1.1" xmlns="http://www.w3.org/2000/svg" xmlns:xlink="http://www.w3.org/1999/xlink">
    <!-- Generator: Sketch 47.1 (45422) - http://www.bohemiancoding.com/sketch -->
    <title>Shape Copy 13</title>
    <desc>Created with Sketch.</desc>
    <defs></defs>
    <g id="Page-1" stroke="none" stroke-width="1" fill="none" fill-rule="evenodd">
        <g id="Artboard" transform="translate(-97.000000, -32.000000)" fill="#CCCCCC">
            <path d="M106,37.4868545 C106,37.3741832 105.962467,37.2603383 105.887401,37.165272 L101.888948,32.1913064 C101.791597,32.0704195 101.644983,32 101.488986,32 C101.334161,32 101.186375,32.0704195 101.090196,32.1913064 L97.1128559,37.1441461 C96.9357464,37.364794 96.9709337,37.6875501 97.1914409,37.8647726 C97.4119481,38.041995 97.7344986,38.0067853 97.9116081,37.7861374 L101.490159,33.330929 L105.088648,37.808437 C105.265758,38.0290848 105.588308,38.0642946 105.808816,37.8870721 C105.934317,37.7849638 106,37.6370828 106,37.4868545 L106,37.4868545 Z" id="Shape-Copy-13" transform="translate(101.500000, 35.000000) scale(1, -1) rotate(-180.000000) translate(-101.500000, -35.000000) "></path>
        </g>
    </g>
</svg>