<?xml version="1.0" encoding="UTF-8"?>
<svg width="9px" height="6px" viewBox="0 0 9 6" version="1.1" xmlns="http://www.w3.org/2000/svg" xmlns:xlink="http://www.w3.org/1999/xlink">
    <!-- Generator: Sketch 48.2 (47327) - http://www.bohemiancoding.com/sketch -->
    <title>Shape Copy 4</title>
    <desc>Created with Sketch.</desc>
    <defs></defs>
    <g id="Artboard" stroke="none" stroke-width="1" fill="none" fill-rule="evenodd" transform="translate(-59.000000, -29.000000)">
        <path d="M68,34.4868545 C68,34.3741832 67.9624669,34.2603383 67.8874006,34.165272 L63.8889481,29.1913064 C63.7915965,29.0704195 63.6449827,29 63.4889856,29 C63.3341614,29 63.1863746,29.0704195 63.090196,29.1913064 L59.1128559,34.1441461 C58.9357464,34.364794 58.9709337,34.6875501 59.1914409,34.8647726 C59.4119481,35.041995 59.7344986,35.0067853 59.9116081,34.7861374 L63.4901585,30.330929 L67.0886484,34.808437 C67.2657579,35.0290848 67.5883084,35.0642946 67.8088156,34.8870721 C67.934317,34.7849638 68,34.6370828 68,34.4868545 L68,34.4868545 Z" id="Shape-Copy-4" fill="#CCCCCC" transform="translate(63.500000, 32.000000) scale(1, -1) translate(-63.500000, -32.000000) "></path>
    </g>
</svg>