<?xml version="1.0" encoding="UTF-8"?>
<svg width="16px" height="14px" viewBox="0 0 16 14" version="1.1" xmlns="http://www.w3.org/2000/svg" xmlns:xlink="http://www.w3.org/1999/xlink">
    <!-- Generator: Sketch 47.1 (45422) - http://www.bohemiancoding.com/sketch -->
    <title>Arrow Left Icon</title>
    <desc>Created with Sketch.</desc>
    <defs></defs>
    <g id="Page-1" stroke="none" stroke-width="1" fill="none" fill-rule="evenodd">
        <g id="Artboard" transform="translate(-56.000000, -1.000000)" fill="#999999">
            <path d="M71.0074354,8.99990472 L59.4231897,8.99990472 L63.6985821,13.2719899 C64.0941059,13.6675163 64.0941059,14.3078288 63.6985821,14.7033552 C63.3030583,15.0988816 62.6620829,15.0988816 62.2665591,14.7033552 L56.2950165,8.73644279 C56.0922522,8.53367715 55.9948719,8.26688026 56.0002078,8.00075037 L56.0002078,8.00008337 L56.0002078,7.99941638 C55.9948719,7.73328649 56.0922522,7.4658226 56.2950165,7.26305697 L62.2665591,1.29614455 C62.6620829,0.901285151 63.3030583,0.901285151 63.6985821,1.29614455 C64.0941059,1.69167093 64.0941059,2.33265046 63.6985821,2.72750986 L59.4231897,7.00026203 L71.0074354,7.00026203 C71.5603684,7.00026203 72.0079173,7.44781381 72.0079173,8.00008337 C72.0079173,8.55168594 71.5603684,8.99990472 71.0074354,8.99990472 L71.0074354,8.99990472 Z" id="Arrow-Left-Icon" transform="translate(64.003959, 8.000000) rotate(180.000000) translate(-64.003959, -8.000000) "></path>
        </g>
    </g>
</svg>