<?xml version="1.0" encoding="UTF-8"?>
<svg width="16px" height="14px" viewBox="0 0 16 14" version="1.1" xmlns="http://www.w3.org/2000/svg" xmlns:xlink="http://www.w3.org/1999/xlink">
    <!-- Generator: Sketch 47.1 (45422) - http://www.bohemiancoding.com/sketch -->
    <title>Arrow Left Icon</title>
    <desc>Created with Sketch.</desc>
    <defs></defs>
    <g id="Page-1" stroke="none" stroke-width="1" fill="none" fill-rule="evenodd">
        <g id="Artboard" transform="translate(-4.000000, -2.000000)" fill="#999999">
            <path d="M19.0074354,9.99990472 L7.42318971,9.99990472 L11.6985821,14.2719899 C12.0941059,14.6675163 12.0941059,15.3078288 11.6985821,15.7033552 C11.3030583,16.0988816 10.6620829,16.0988816 10.2665591,15.7033552 L4.29501649,9.73644279 C4.09225217,9.53367715 3.99487194,9.26688026 4.00020785,9.00075037 L4.00020785,9.00008337 L4.00020785,8.99941638 C3.99487194,8.73328649 4.09225217,8.4658226 4.29501649,8.26305697 L10.2665591,2.29614455 C10.6620829,1.90128515 11.3030583,1.90128515 11.6985821,2.29614455 C12.0941059,2.69167093 12.0941059,3.33265046 11.6985821,3.72750986 L7.42318971,8.00026203 L19.0074354,8.00026203 C19.5603684,8.00026203 20.0079173,8.44781381 20.0079173,9.00008337 C20.0079173,9.55168594 19.5603684,9.99990472 19.0074354,9.99990472 L19.0074354,9.99990472 Z" id="Arrow-Left-Icon"></path>
        </g>
    </g>
</svg>