<?xml version="1.0" encoding="UTF-8"?>
<svg width="14px" height="16px" viewBox="0 0 14 16" version="1.1" xmlns="http://www.w3.org/2000/svg" xmlns:xlink="http://www.w3.org/1999/xlink">
    <!-- Generator: Sketch 47.1 (45422) - http://www.bohemiancoding.com/sketch -->
    <title>Arrow Left Icon</title>
    <desc>Created with Sketch.</desc>
    <defs></defs>
    <g id="Page-1" stroke="none" stroke-width="1" fill="none" fill-rule="evenodd">
        <g id="Artboard" transform="translate(-31.000000, -1.000000)" fill="#999999">
            <path d="M45.0074354,9.99990472 L33.4231897,9.99990472 L37.6985821,14.2719899 C38.0941059,14.6675163 38.0941059,15.3078288 37.6985821,15.7033552 C37.3030583,16.0988816 36.6620829,16.0988816 36.2665591,15.7033552 L30.2950165,9.73644279 C30.0922522,9.53367715 29.9948719,9.26688026 30.0002078,9.00075037 L30.0002078,9.00008337 L30.0002078,8.99941638 C29.9948719,8.73328649 30.0922522,8.4658226 30.2950165,8.26305697 L36.2665591,2.29614455 C36.6620829,1.90128515 37.3030583,1.90128515 37.6985821,2.29614455 C38.0941059,2.69167093 38.0941059,3.33265046 37.6985821,3.72750986 L33.4231897,8.00026203 L45.0074354,8.00026203 C45.5603684,8.00026203 46.0079173,8.44781381 46.0079173,9.00008337 C46.0079173,9.55168594 45.5603684,9.99990472 45.0074354,9.99990472 L45.0074354,9.99990472 Z" id="Arrow-Left-Icon" transform="translate(38.003959, 9.000000) rotate(90.000000) translate(-38.003959, -9.000000) "></path>
        </g>
    </g>
</svg>