<?xml version="1.0" encoding="UTF-8"?>
<svg width="14px" height="16px" viewBox="0 0 14 16" version="1.1" xmlns="http://www.w3.org/2000/svg" xmlns:xlink="http://www.w3.org/1999/xlink">
    <!-- Generator: Sketch 47.1 (45422) - http://www.bohemiancoding.com/sketch -->
    <title>Arrow Left Icon</title>
    <desc>Created with Sketch.</desc>
    <defs></defs>
    <g id="Page-1" stroke="none" stroke-width="1" fill="none" fill-rule="evenodd">
        <g id="Artboard" transform="translate(-85.000000, -1.000000)" fill="#999999">
            <path d="M99.0074354,9.99990472 L87.4231897,9.99990472 L91.6985821,14.2719899 C92.0941059,14.6675163 92.0941059,15.3078288 91.6985821,15.7033552 C91.3030583,16.0988816 90.6620829,16.0988816 90.2665591,15.7033552 L84.2950165,9.73644279 C84.0922522,9.53367715 83.9948719,9.26688026 84.0002078,9.00075037 L84.0002078,9.00008337 L84.0002078,8.99941638 C83.9948719,8.73328649 84.0922522,8.4658226 84.2950165,8.26305697 L90.2665591,2.29614455 C90.6620829,1.90128515 91.3030583,1.90128515 91.6985821,2.29614455 C92.0941059,2.69167093 92.0941059,3.33265046 91.6985821,3.72750986 L87.4231897,8.00026203 L99.0074354,8.00026203 C99.5603684,8.00026203 100.007917,8.44781381 100.007917,9.00008337 C100.007917,9.55168594 99.5603684,9.99990472 99.0074354,9.99990472 L99.0074354,9.99990472 Z" id="Arrow-Left-Icon" transform="translate(92.003959, 9.000000) rotate(270.000000) translate(-92.003959, -9.000000) "></path>
        </g>
    </g>
</svg>