<?xml version="1.0" encoding="UTF-8"?>
<svg width="13px" height="14px" viewBox="0 0 13 14" version="1.1" xmlns="http://www.w3.org/2000/svg" xmlns:xlink="http://www.w3.org/1999/xlink">
    <!-- Generator: Sketch 47.1 (45422) - http://www.bohemiancoding.com/sketch -->
    <title>calendar icon copy</title>
    <desc>Created with Sketch.</desc>
    <defs></defs>
    <g id="Page-1" stroke="none" stroke-width="1" fill="none" fill-rule="evenodd">
        <g id="Artboard-2" transform="translate(-330.000000, -48.000000)" fill="#999999">
            <path d="M332.599771,55.8750957 L333.466361,55.8750957 L333.466361,55.0001094 L332.599771,55.0001094 L332.599771,55.8750957 Z M331.733397,56.7498633 L334.333168,56.7498633 L334.333168,54.1253418 L331.733397,54.1253418 L331.733397,56.7498633 Z M332.599771,59.3752598 L333.466361,59.3752598 L333.466361,58.4998359 L332.599771,58.4998359 L332.599771,59.3752598 Z M331.733397,60.2500273 L334.333168,60.2500273 L334.333168,57.6248496 L331.733397,57.6248496 L331.733397,60.2500273 Z M336.066132,55.8750957 L336.932722,55.8750957 L336.932722,55.0001094 L336.066132,55.0001094 L336.066132,55.8750957 Z M335.199541,56.7498633 L337.799312,56.7498633 L337.799312,54.1253418 L335.199541,54.1253418 L335.199541,56.7498633 Z M336.066132,59.3752598 L336.932722,59.3752598 L336.932722,58.4998359 L336.066132,58.4998359 L336.066132,59.3752598 Z M335.199541,60.2500273 L337.799312,60.2500273 L337.799312,57.6248496 L335.199541,57.6248496 L335.199541,60.2500273 Z M339.532493,55.8750957 L340.399083,55.8750957 L340.399083,55.0001094 L339.532493,55.0001094 L339.532493,55.8750957 Z M338.665902,56.7498633 L341.265673,56.7498633 L341.265673,54.1253418 L338.665902,54.1253418 L338.665902,56.7498633 Z M339.532493,59.3752598 L340.399083,59.3752598 L340.399083,58.4998359 L339.532493,58.4998359 L339.532493,59.3752598 Z M338.665902,60.2500273 L341.265673,60.2500273 L341.265673,57.6248496 L338.665902,57.6248496 L338.665902,60.2500273 Z M342.132263,52.3753691 L330.86659,52.3753691 L330.86659,60.6875205 C330.86659,60.9292355 331.060706,61.1250137 331.300102,61.1250137 L341.698968,61.1250137 C341.938364,61.1250137 342.132263,60.9292355 342.132263,60.6875205 L342.132263,52.3753691 Z M342.132263,50.1879033 C342.132263,49.9459696 341.938364,49.7501914 341.698968,49.7501914 L339.532493,49.7501914 L339.532493,50.6256152 L338.665902,50.6256152 L338.665902,49.7501914 L334.332951,49.7501914 L334.332951,50.6256152 L333.466361,50.6256152 L333.466361,49.7501914 L331.300102,49.7501914 C331.060706,49.7501914 330.86659,49.9459696 330.86659,50.1879033 L330.86659,51.5003828 L342.132263,51.5003828 L342.132263,50.1879033 Z M342.132263,62 L330.86659,62 C330.388016,62 330,61.6084436 330,61.1250137 L330,52.3753691 L330,51.5003828 L330,49.7501914 C330,49.2669802 330.388016,48.8752051 330.86659,48.8752051 L333.466361,48.8752051 L333.466361,48 L334.332951,48 L334.332951,48.8752051 L338.665902,48.8752051 L338.665902,48 L339.532493,48 L339.532493,48.8752051 L342.565558,48.8752051 C343.044133,48.8752051 342.998854,49.2669802 342.998854,49.7501914 L342.998854,51.5003828 L342.998854,52.3753691 L342.998854,61.1250137 C342.998854,61.6084436 342.610838,62 342.132263,62 L342.132263,62 Z" id="calendar-icon-copy"></path>
        </g>
    </g>
</svg>