<?xml version="1.0" encoding="UTF-8"?>
<svg width="15px" height="10px" viewBox="0 0 15 10" version="1.1" xmlns="http://www.w3.org/2000/svg" xmlns:xlink="http://www.w3.org/1999/xlink">
    <!-- Generator: Sketch 47.1 (45422) - http://www.bohemiancoding.com/sketch -->
    <title>Combined Shape</title>
    <desc>Created with Sketch.</desc>
    <defs></defs>
    <g id="Page-1" stroke="none" stroke-width="1" fill="none" fill-rule="evenodd">
        <g id="Artboard" transform="translate(-78.000000, -45.000000)" fill="#3998FC">
            <path d="M86.8233959,53.216151 L82.3855217,53.371125 L82.3855217,53.371125 C81.9836408,53.3851589 81.6692288,53.7223245 81.6832628,54.1242054 L81.6832628,54.1242054 L81.6832628,54.1242054 C81.6972968,54.5260862 82.0344624,54.8404983 82.4363433,54.8264643 L87.5402944,54.6482304 C87.7054655,54.6424625 87.8558616,54.5821121 87.9747531,54.4851197 C88.1390196,54.3572113 88.2475455,54.1601287 88.2553796,53.9357897 L88.662669,42.272548 C88.676703,41.8706672 88.362291,41.5335016 87.9604101,41.5194676 L87.9604101,41.5194676 C87.5585293,41.5054336 87.2213637,41.8198456 87.2073297,42.2217264 L87.2073297,42.2217264 L86.8233959,53.216151 Z" id="Combined-Shape" transform="translate(85.172966, 48.172966) rotate(-315.000000) translate(-85.172966, -48.172966) "></path>
        </g>
    </g>
</svg>