<?xml version="1.0" encoding="UTF-8"?>
<svg width="12px" height="12px" viewBox="0 0 12 12" version="1.1" xmlns="http://www.w3.org/2000/svg" xmlns:xlink="http://www.w3.org/1999/xlink">
    <!-- Generator: Sketch 48.2 (47327) - http://www.bohemiancoding.com/sketch -->
    <title>Checked Circle Icon</title>
    <desc>Created with Sketch.</desc>
    <defs></defs>
    <g id="Artboard" stroke="none" stroke-width="1" fill="none" fill-rule="evenodd" transform="translate(-59.000000, -15.000000)">
        <path d="M65,27 C61.6864348,27 59,24.3135652 59,21 C59,17.6864348 61.6864348,15 65,15 C68.3135652,15 71,17.6864348 71,21 C71,24.3135652 68.3135652,27 65,27 L65,27 Z M68.1601739,18.8681739 C67.8528696,18.5733913 67.3551304,18.5733913 67.0478261,18.8681739 L64.2507826,21.5243478 L63.452,20.7808696 C63.1446957,20.4866087 62.6469565,20.4866087 62.3396522,20.7808696 C62.0323478,21.0761739 62.0323478,21.5535652 62.3396522,21.8483478 L63.6946087,23.1250435 C64.001913,23.4198261 64.4996522,23.4198261 64.8069565,23.1250435 L68.1601739,19.9356522 C68.4669565,19.6408696 68.4669565,19.1629565 68.1601739,18.8681739 L68.1601739,18.8681739 Z" id="Checked-Circle-Icon" fill="#04BE5B"></path>
    </g>
</svg>