<!-- Generated by IcoMoon.io -->
<svg version="1.1" xmlns="http://www.w3.org/2000/svg" width="32" height="32" viewBox="0 0 32 32">
<title>check-circle-o</title>
<path fill="#39bd77" d="M25.198 11.673l-9.461 9.461c-0.253 0.253-0.589 0.376-0.928 0.384-0.333 0-0.667-0.125-0.923-0.384l-5.691-5.691c-0.512-0.512-0.491-1.363 0.016-1.869 0.52-0.52 1.349-0.536 1.869-0.016l4.731 4.731 8.501-8.501c0.512-0.512 1.365-0.488 1.869 0.016 0.52 0.523 0.515 1.373 0.016 1.869zM16.001 0.001c-8.837 0-16 7.163-16 16 0 8.835 7.163 16 16 16 8.835 0 16-7.165 16-16 0-8.837-7.165-16-16-16z"></path>
</svg>
