<?xml version="1.0" encoding="UTF-8"?>
<svg width="11px" height="12px" viewBox="0 0 11 12" version="1.1" xmlns="http://www.w3.org/2000/svg" xmlns:xlink="http://www.w3.org/1999/xlink">
    <!-- Generator: Sketch 47.1 (45422) - http://www.bohemiancoding.com/sketch -->
    <title>pin icon</title>
    <desc>Created with Sketch.</desc>
    <defs></defs>
    <g id="Page-1" stroke="none" stroke-width="1" fill="none" fill-rule="evenodd">
        <g id="Artboard-2" transform="translate(-101.000000, -44.000000)" fill="#999999">
            <path d="M109.362649,53.3814917 C109.350086,55.0305027 108.012836,56.363961 106.363961,56.363961 C104.714899,56.363961 103.377836,55.0305027 103.365086,53.3814917 L103.363961,53.3814917 L103.363961,48.1219061 L103.363961,47.3696796 L103.363961,46.6183906 C103.363961,45.3730545 104.371211,44.363961 105.613961,44.363961 C106.856524,44.363961 107.863961,45.3730545 107.863961,46.6183906 L107.863961,47.3696796 L107.863961,48.1219061 L107.863961,50.7573237 L107.863961,51.7041691 L107.863961,53.3814917 L107.861524,53.3814917 C107.848774,54.2006536 107.184274,54.8608205 106.363961,54.8608205 C105.543461,54.8608205 104.879149,54.2006536 104.866399,53.3814917 L104.863961,53.3814917 L104.863961,52.6302027 L104.863961,51.7041691 L104.863961,50.7573237 L104.863961,49.6242966 L104.863961,48.7417617 L104.863961,47.8894134 L104.863961,47.3696796 L105.613961,47.3696796 L105.613961,48.0980943 L105.613961,48.8726326 L105.613961,50.4503958 L105.613961,51.2622455 L105.613961,52.0639704 L105.613961,52.6302027 L105.613961,53.3814917 C105.613961,53.7964163 105.949774,54.1327808 106.363961,54.1327808 C106.778149,54.1327808 107.113961,53.7964163 107.113961,53.3814917 L107.113961,52.0639704 L107.113961,51.2622455 L107.113961,50.4503958 L107.113961,49.6242966 L107.113961,48.2957132 L107.113961,48.1219061 L107.113961,47.3696796 L107.113961,46.6183906 L107.112274,46.6183906 C107.112461,46.6107033 107.113961,46.6030161 107.113961,46.5951413 C107.113961,45.7647298 106.442336,45.0920008 105.613961,45.0920008 C104.785399,45.0920008 104.113961,45.7647298 104.113961,46.5951413 C104.113961,46.6030161 104.115461,46.6107033 104.115649,46.6183906 L104.113961,46.6183906 L104.113961,47.3696796 L104.113961,48.1219061 L104.113961,48.2957132 L104.113961,49.6242966 L104.113961,51.3741795 L104.113961,53.3814917 C104.113961,54.6268278 105.121211,55.6359213 106.363961,55.6359213 C107.606524,55.6359213 108.613961,54.6268278 108.613961,53.3814917 L108.613961,51.3741795 L108.613961,46.6183906 L108.613961,45.8671016 L109.363961,45.8671016 L109.363961,46.6183906 L109.363961,53.3814917 L109.362649,53.3814917 Z" id="pin-icon" transform="translate(106.363961, 50.363961) rotate(-315.000000) translate(-106.363961, -50.363961) "></path>
        </g>
    </g>
</svg>