<?xml version="1.0" encoding="UTF-8"?>
<svg width="12px" height="12px" viewBox="0 0 12 12" version="1.1" xmlns="http://www.w3.org/2000/svg" xmlns:xlink="http://www.w3.org/1999/xlink">
    <!-- Generator: Sketch 47.1 (45422) - http://www.bohemiancoding.com/sketch -->
    <title>Shape</title>
    <desc>Created with Sketch.</desc>
    <defs></defs>
    <g id="Page-1" stroke="none" stroke-width="1" fill="none" fill-rule="evenodd">
        <g id="Artboard-2" transform="translate(-199.000000, -51.000000)" fill="#D6D9DF">
            <path d="M205,51 C201.685937,51 199,53.6859375 199,57 C199,60.3140625 201.685937,63 205,63 C208.314063,63 211,60.3140625 211,57 C211,53.6859375 208.314063,51 205,51 L205,51 Z M207.824219,59.2417969 C207.971875,59.3871094 207.974219,59.6238281 207.830078,59.7726563 L207.830078,59.7726563 C207.684766,59.9203125 207.448047,59.9226563 207.299219,59.7785156 L205,57.525 L202.700781,59.7773438 C202.553125,59.9226563 202.315234,59.9203125 202.169922,59.7714844 L202.169922,59.7714844 C202.024609,59.6238281 202.026953,59.3859375 202.175781,59.240625 L204.464453,57 L202.175781,54.7582031 C202.028125,54.6128906 202.025781,54.3761719 202.169922,54.2273438 L202.169922,54.2273438 C202.315234,54.0796875 202.551953,54.0773438 202.700781,54.2214844 L205,56.475 L207.299219,54.2226563 C207.446875,54.0773438 207.684766,54.0796875 207.830078,54.2285156 L207.830078,54.2285156 C207.975391,54.3761719 207.973047,54.6140625 207.824219,54.759375 L205.535547,57 L207.824219,59.2417969 L207.824219,59.2417969 Z" id="Shape"></path>
        </g>
    </g>
</svg>