<?xml version="1.0" encoding="UTF-8"?>
<svg width="12px" height="12px" viewBox="0 0 12 12" version="1.1" xmlns="http://www.w3.org/2000/svg" xmlns:xlink="http://www.w3.org/1999/xlink">
    <!-- Generator: Sketch 48.2 (47327) - http://www.bohemiancoding.com/sketch -->
    <title>Close Circle Icon</title>
    <desc>Created with Sketch.</desc>
    <defs></defs>
    <g id="Artboard" stroke="none" stroke-width="1" fill="none" fill-rule="evenodd" transform="translate(-26.000000, -15.000000)">
        <path d="M32,27 C28.6864348,27 26,24.313682 26,21.0002609 C26,17.6868397 28.6864348,15 32,15 C35.3135652,15 38,17.6868397 38,21.0002609 C38,24.313682 35.3135652,27 32,27 L32,27 Z M34.1234783,18.867484 C33.8323478,18.576888 33.3606957,18.576888 33.0695652,18.867484 L31.9953043,19.9416982 L30.9210435,18.867484 C30.629913,18.576888 30.1582609,18.576888 29.8671304,18.867484 C29.576,19.1586018 29.576,19.6302335 29.8671304,19.9208295 L30.9413913,20.9955654 L29.8671304,22.0697796 C29.576,22.3603756 29.576,22.832529 29.8671304,23.1236468 C30.1582609,23.4147646 30.629913,23.4147646 30.9210435,23.1236468 L31.9953043,22.0494326 L33.0695652,23.1236468 C33.3606957,23.4147646 33.8323478,23.4147646 34.1229565,23.1236468 C34.414087,22.832529 34.414087,22.3603756 34.1229565,22.0697796 L33.0486957,20.9955654 L34.1229565,19.9208295 C34.414087,19.6302335 34.414087,19.1586018 34.1234783,18.867484 L34.1234783,18.867484 Z" id="Close-Circle-Icon" fill="#FF5B5B"></path>
    </g>
</svg>