<svg xmlns="http://www.w3.org/2000/svg" width="10" height="10" viewBox="0 0 10 10">
  <path fill="#666" fill-rule="evenodd" d="M10.6622995,5.6292894 L5.63477028,5.61656148 L5.63477028,10.6568186 L5.63120643,10.6568186 C5.60322909,10.967765 5.34191502,11.2114489 5.02368553,11.2114489 C4.70545604,11.2114489 4.44414197,10.967765 4.41616463,10.6568186 L4.41288976,10.6568186 L4.42561769,5.6292894 L-0.614639449,5.6292894 L-0.614639449,5.62730939 C-0.949413456,5.6248343 -1.22003466,5.35268384 -1.22003466,5.0173264 C-1.22003466,4.68043269 -0.946928355,4.40732638 -0.61003465,4.40732638 C-0.60585689,4.40732638 -0.60168894,4.40736838 -0.597531198,4.40745198 L4.43834561,4.42013681 L4.41288976,-0.62012033 L4.41418071,-0.62012033 C4.42719512,-0.945512644 4.69510036,-1.20531426 5.02368553,-1.20531426 C5.3522707,-1.20531426 5.62017595,-0.945512644 5.63319036,-0.62012033 L5.63477028,-0.62012033 L5.63477028,4.42013681 L10.6622995,4.40740888 L10.6622995,4.40938633 C10.6658198,4.40932645 10.6693473,4.40929638 10.6728818,4.40929638 C11.0097755,4.40929638 11.2828819,4.68240269 11.2828819,5.0192964 C11.2828819,5.3561901 11.0097755,5.62929641 10.6728818,5.62929641 C10.6693473,5.62929641 10.6658198,5.62926635 10.6622995,5.62920647 Z" transform="rotate(45 5.031 5.003)"/>
</svg>
