<?xml version="1.0" encoding="UTF-8"?>
<svg width="12px" height="12px" viewBox="0 0 12 12" version="1.1" xmlns="http://www.w3.org/2000/svg" xmlns:xlink="http://www.w3.org/1999/xlink">
    <!-- Generator: Sketch 48.2 (47327) - http://www.bohemiancoding.com/sketch -->
    <title>Shape</title>
    <desc>Created with Sketch.</desc>
    <defs></defs>
    <g id="Artboard-2" stroke="none" stroke-width="1" fill="none" fill-rule="evenodd" transform="translate(-73.000000, -28.000000)" opacity="0.900000036">
        <path d="M74.7319069,28.1504702 C74.6521569,28.2168177 74.5724069,28.299752 74.4926569,28.3826863 C74.5796569,28.299752 74.6521569,28.2168177 74.7319069,28.1504702 L74.7319069,28.1504702 Z M74.6024009,28.2055531 C74.5208384,28.2801939 74.4392759,28.3548348 74.3631509,28.4377691 C74.4392759,28.3548348 74.5208384,28.2801939 74.6024009,28.2055531 L74.6024009,28.2055531 Z M84.8598131,38.137931 C84.7690254,38.229288 84.6368491,38.2803403 84.5086782,38.2803403 L82.0440587,38.2803403 L82.0440587,39.0528437 C82.0440587,39.575459 81.6221629,40 81.1028037,40 L76.8958611,40 C76.376502,40 75.9546061,39.575459 75.9546061,39.0528437 L75.9546061,38.2803403 L73.4779706,38.2803403 C73.2149533,38.2803403 73,38.0653829 73,37.799373 C73,37.5333632 73.2136182,37.3184057 73.4779706,37.3184057 L73.8998665,37.3184057 L73.8998665,28.9471563 C73.8998665,28.424541 74.3217623,28 74.8411215,28 L83.2923899,28 C83.811749,28 84.2336449,28.424541 84.2336449,28.9471563 L84.2336449,37.3184057 L84.5086782,37.3184057 C84.7716956,37.3184057 85,37.5333632 85,37.799373 C85,37.927004 84.9506008,38.0465741 84.8598131,38.137931 L84.8598131,38.137931 Z M76.894526,39.0501567 L81.0987984,39.0501567 L81.0987984,38.2722794 L76.894526,38.2722794 L76.894526,39.0501567 L76.894526,39.0501567 Z M83.2910547,28.9484998 L74.8411215,28.9484998 L74.8411215,37.3184057 L76.058745,37.3184057 L83.2910547,37.3184057 L83.2910547,28.9484998 L83.2910547,28.9484998 Z M78.9933244,35.7062248 C78.7276368,35.7062248 78.5126836,35.4899239 78.5126836,35.2225705 L78.5126836,30.7353336 C78.5126836,30.4679803 78.7276368,30.2516794 78.9933244,30.2516794 C79.259012,30.2516794 79.4739653,30.4679803 79.4739653,30.7353336 L79.4739653,35.2225705 C79.4739653,35.4899239 79.259012,35.7062248 78.9933244,35.7062248 L78.9933244,35.7062248 Z M76.3898531,35.7062248 C76.1241656,35.7062248 75.9092123,35.4899239 75.9092123,35.2225705 L75.9092123,30.7353336 C75.9092123,30.4679803 76.1241656,30.2516794 76.3898531,30.2516794 C76.6555407,30.2516794 76.870494,30.4679803 76.870494,30.7353336 L76.870494,35.2225705 C76.870494,35.4899239 76.6555407,35.7062248 76.3898531,35.7062248 L76.3898531,35.7062248 Z M81.5700935,35.7062248 C81.3044059,35.7062248 81.0894526,35.4899239 81.0894526,35.2225705 L81.0894526,30.7353336 C81.0894526,30.4679803 81.3044059,30.2516794 81.5700935,30.2516794 C81.835781,30.2516794 82.0507343,30.4679803 82.0507343,30.7353336 L82.0507343,35.2225705 C82.0507343,35.4899239 81.835781,35.7062248 81.5700935,35.7062248 L81.5700935,35.7062248 Z" id="Shape" fill="#FFFFFF" transform="translate(79.000000, 34.000000) scale(1, -1) translate(-79.000000, -34.000000) "></path>
    </g>
</svg>