<?xml version="1.0" encoding="UTF-8"?>
<svg width="12px" height="12px" viewBox="0 0 12 12" version="1.1" xmlns="http://www.w3.org/2000/svg" xmlns:xlink="http://www.w3.org/1999/xlink">
    <!-- Generator: Sketch 48.2 (47327) - http://www.bohemiancoding.com/sketch -->
    <title>Warning Circle Icon</title>
    <desc>Created with Sketch.</desc>
    <defs></defs>
    <g id="Artboard" stroke="none" stroke-width="1" fill="none" fill-rule="evenodd" transform="translate(-44.000000, -15.000000)">
        <path d="M50,27 C46.6864348,27 44,24.3135652 44,21 C44,17.6864348 46.6864348,15 50,15 C53.3135652,15 56,17.6864348 56,21 C56,24.3135652 53.3135652,27 50,27 L50,27 Z M50.7826087,18.3913043 C50.7826087,17.9593043 50.432,17.6086957 50,17.6086957 C49.568,17.6086957 49.2173913,17.9593043 49.2173913,18.3913043 L49.2173913,21.5217391 C49.2173913,21.9537391 49.568,22.3043478 50,22.3043478 C50.432,22.3043478 50.7826087,21.9537391 50.7826087,21.5217391 L50.7826087,18.3913043 L50.7826087,18.3913043 Z M50,22.826087 C49.568,22.826087 49.2173913,23.1766957 49.2173913,23.6086957 C49.2173913,24.0406957 49.568,24.3913043 50,24.3913043 C50.432,24.3913043 50.7826087,24.0406957 50.7826087,23.6086957 C50.7826087,23.1766957 50.432,22.826087 50,22.826087 L50,22.826087 Z" id="Warning-Circle-Icon" fill="#FF9948"></path>
    </g>
</svg>