<svg xmlns="http://www.w3.org/2000/svg" width="768" height="768" viewBox="0 0 768 768">
    <defs>
        <style>.a{opacity:0;}</style>
    </defs>
    <title>image-add</title>
    <path d="M736,576a32,32,0,0,1-32,32H608v96a32,32,0,0,1-64,0V608H448a32,32,0,0,1,0-64h96V448a32,32,0,0,1,64,0v96h96A32,32,0,0,1,736,576ZM704,96H64a32,32,0,0,0-32,32V640a32,32,0,0,0,32,32H353a32,32,0,0,0,0-64H96V589.25l160-160,73.37,73.38a32,32,0,0,0,45.26,0L512,365.25l9.37,9.38a32,32,0,0,0,45.26-45.26l-32-32a32,32,0,0,0-45.26,0L352,434.75l-73.37-73.38a32,32,0,0,0-45.26,0L96,498.75V160H672V384a32,32,0,0,0,64,0V128A32,32,0,0,0,704,96ZM256,247a40,40,0,1,0,40-40A40,40,0,0,0,256,247Z"/>
    <rect class="a" width="768" height="768"/>
</svg>