<?xml version="1.0" encoding="UTF-8"?>
<svg width="12px" height="12px" viewBox="0 0 12 12" version="1.1" xmlns="http://www.w3.org/2000/svg" xmlns:xlink="http://www.w3.org/1999/xlink">
    <!-- Generator: Sketch 48.2 (47327) - http://www.bohemiancoding.com/sketch -->
    <title>Info Circle Icon Copy</title>
    <desc>Created with Sketch.</desc>
    <defs></defs>
    <g id="Artboard" stroke="none" stroke-width="1" fill="none" fill-rule="evenodd" transform="translate(-74.000000, -15.000000)">
        <path d="M80,15 C76.6864348,15 74,17.6864348 74,21 C74,24.3135652 76.6864348,27 80,27 C83.3135652,27 86,24.3135652 86,21 C86,17.6864348 83.3135652,15 80,15 L80,15 Z M80.7826087,23.6086957 C80.7826087,24.0406957 80.432,24.3913043 80,24.3913043 C79.568,24.3913043 79.2173913,24.0406957 79.2173913,23.6086957 L79.2173913,20.4782609 C79.2173913,20.0457391 79.568,19.6956522 80,19.6956522 C80.432,19.6956522 80.7826087,20.0457391 80.7826087,20.4782609 L80.7826087,23.6086957 L80.7826087,23.6086957 Z M80,19.173913 C79.568,19.173913 79.2173913,18.8233043 79.2173913,18.3913043 C79.2173913,17.9587826 79.568,17.6086957 80,17.6086957 C80.432,17.6086957 80.7826087,17.9587826 80.7826087,18.3913043 C80.7826087,18.8233043 80.432,19.173913 80,19.173913 L80,19.173913 Z" id="Info-Circle-Icon-Copy" fill="#3295FF"></path>
    </g>
</svg>