<?xml version="1.0" encoding="UTF-8"?>
<svg width="12px" height="12px" viewBox="0 0 12 12" version="1.1" xmlns="http://www.w3.org/2000/svg" xmlns:xlink="http://www.w3.org/1999/xlink">
    <!-- Generator: Sketch 47.1 (45422) - http://www.bohemiancoding.com/sketch -->
    <title>indicator</title>
    <desc>Created with Sketch.</desc>
    <defs></defs>
    <g id="Page-1" stroke="none" stroke-width="1" fill="none" fill-rule="evenodd">
        <g id="Artboard-2" transform="translate(-227.000000, -51.000000)" stroke="" stroke-width="0.2" fill="">
            <path d="M230,57 C230,56.6688 229.7312,56.4 229.4,56.4 L227.6,56.4 C227.2688,56.4 227,56.6688 227,57 C227,57.3312 227.2688,57.6 227.6,57.6 L229.4,57.6 C229.7312,57.6 230,57.3312 230,57 L230,57 Z M238.4,56.4 L236.6,56.4 C236.2688,56.4 236,56.6688 236,57 C236,57.3312 236.2688,57.6 236.6,57.6 L238.4,57.6 C238.7312,57.6 239,57.3312 239,57 C239,56.6688 238.7312,56.4 238.4,56.4 L238.4,56.4 Z M233,60 C232.6688,60 232.4,60.2688 232.4,60.6 L232.4,62.4 C232.4,62.7318 232.6688,63 233,63 C233.3312,63 233.6,62.7318 233.6,62.4 L233.6,60.6 C233.6,60.2688 233.3312,60 233,60 L233,60 Z M233,51 C232.6688,51 232.4,51.2688 232.4,51.6 L232.4,53.4 C232.4,53.7312 232.6688,54 233,54 C233.3312,54 233.6,53.7312 233.6,53.4 L233.6,51.6 C233.6,51.2688 233.3312,51 233,51 L233,51 Z M230.8196,52.0236 C230.654,51.7368 230.2874,51.6378 230,51.804 C229.7126,51.9696 229.6148,52.3368 229.7804,52.6236 L230.6804,54.1824 C230.846,54.4692 231.2126,54.5676 231.5,54.402 C231.7874,54.2364 231.8852,53.8692 231.7196,53.5824 L230.8196,52.0236 Z M235.3196,59.8176 C235.154,59.5308 234.7874,59.4324 234.5,59.598 C234.2126,59.7636 234.1148,60.1308 234.2804,60.4176 L235.1804,61.9764 C235.346,62.2632 235.7126,62.3622 236,62.196 C236.2874,62.0304 236.3852,61.6632 236.2196,61.3764 L235.3196,59.8176 Z M230.402,58.5 C230.2364,58.2126 229.8692,58.1148 229.5824,58.2804 L228.0236,59.1804 C227.7368,59.346 227.6378,59.7126 227.804,60 C227.9696,60.2874 228.3368,60.3852 228.6236,60.2196 L230.1824,59.3196 C230.4692,59.154 230.5676,58.7874 230.402,58.5 L230.402,58.5 Z M235.598,55.5 C235.7636,55.7874 236.1308,55.8852 236.4176,55.7196 L237.9764,54.8196 C238.2632,54.654 238.3622,54.2874 238.196,54 C238.0304,53.7126 237.6632,53.6148 237.3764,53.7804 L235.8176,54.6804 C235.5308,54.846 235.4324,55.2126 235.598,55.5 L235.598,55.5 Z M228.0236,54.8196 L229.5824,55.7196 C229.8692,55.8852 230.2364,55.7874 230.402,55.5 C230.5676,55.2126 230.4692,54.846 230.1824,54.6804 L228.6236,53.7804 C228.3368,53.6148 227.9696,53.7126 227.804,54 C227.6378,54.2874 227.7368,54.654 228.0236,54.8196 L228.0236,54.8196 Z M237.9764,59.1804 L236.4176,58.2804 C236.1308,58.1148 235.7636,58.2126 235.598,58.5 C235.4324,58.7874 235.5308,59.154 235.8176,59.3196 L237.3764,60.2196 C237.6632,60.3852 238.0304,60.2874 238.196,60 C238.3622,59.7126 238.2632,59.346 237.9764,59.1804 L237.9764,59.1804 Z M231.5,59.598 C231.2126,59.4324 230.846,59.5308 230.6804,59.8176 L229.7804,61.3764 C229.6148,61.6632 229.7126,62.0304 230,62.196 C230.2874,62.3622 230.654,62.2632 230.8196,61.9764 L231.7196,60.4176 C231.8852,60.1308 231.7874,59.7636 231.5,59.598 L231.5,59.598 Z M234.5,54.402 C234.7874,54.5676 235.154,54.4692 235.3196,54.1824 L236.2196,52.6236 C236.3852,52.3368 236.2874,51.9696 236,51.804 C235.7126,51.6378 235.346,51.7368 235.1804,52.0236 L234.2804,53.5824 C234.1148,53.8692 234.2126,54.2364 234.5,54.402 L234.5,54.402 Z" id="indicator"></path>
        </g>
    </g>
</svg>