<?xml version="1.0" encoding="UTF-8"?>
<svg width="12px" height="12px" viewBox="0 0 12 12" version="1.1" xmlns="http://www.w3.org/2000/svg" xmlns:xlink="http://www.w3.org/1999/xlink">
    <!-- Generator: Sketch 47.1 (45422) - http://www.bohemiancoding.com/sketch -->
    <title>Combined Shape</title>
    <desc>Created with Sketch.</desc>
    <defs></defs>
    <g id="Page-1" stroke="none" stroke-width="1" fill="none" fill-rule="evenodd">
        <g id="Artboard" transform="translate(-28.000000, -25.000000)" fill="#FF5B5B">
            <path d="M33.1217172,30.1217172 L27.6772727,30.1217172 L27.6772727,30.1217172 C27.2477179,30.1217172 26.8994949,30.4699401 26.8994949,30.8994949 C26.8994949,31.3290497 27.2477179,31.6772727 27.6772727,31.6772727 L33.1217172,31.6772727 L33.1217172,37.1217172 C33.1217172,37.551272 33.4699401,37.8994949 33.8994949,37.8994949 C34.3290497,37.8994949 34.6772727,37.551272 34.6772727,37.1217172 L34.6772727,31.6772727 L40.1217172,31.6772727 C40.551272,31.6772727 40.8994949,31.3290497 40.8994949,30.8994949 C40.8994949,30.4699401 40.551272,30.1217172 40.1217172,30.1217172 L40.1217172,30.1217172 L34.6772727,30.1217172 L34.6772727,24.6772727 C34.6772727,24.2477179 34.3290497,23.8994949 33.8994949,23.8994949 C33.4699401,23.8994949 33.1217172,24.2477179 33.1217172,24.6772727 L33.1217172,24.6772727 L33.1217172,30.1217172 Z" id="Combined-Shape" transform="translate(33.899495, 30.899495) rotate(-315.000000) translate(-33.899495, -30.899495) "></path>
        </g>
    </g>
</svg>