<?xml version="1.0" encoding="UTF-8"?>
<svg width="12px" height="12px" viewBox="0 0 12 12" version="1.1" xmlns="http://www.w3.org/2000/svg" xmlns:xlink="http://www.w3.org/1999/xlink">
    <!-- Generator: Sketch 48.2 (47327) - http://www.bohemiancoding.com/sketch -->
    <title>17</title>
    <desc>Created with Sketch.</desc>
    <defs></defs>
    <g id="Artboard" stroke="none" stroke-width="1" fill="none" fill-rule="evenodd" transform="translate(-58.000000, -26.000000)">
        <path d="M69.8438959,26.9092323 L67.1100734,29.6395956 C67.8292195,30.5221642 68.2601734,31.6473725 68.2601734,32.8739029 C68.2601734,35.7055883 65.963976,38 63.1300867,38 C60.2961975,38 58,35.7055883 58,32.8739029 C58,30.0422175 60.2961975,27.7478058 63.1300867,27.7478058 C64.3522348,27.7478058 65.4743162,28.1744251 66.3549033,28.8876791 L69.0887258,26.1559827 C69.1927952,26.0519942 69.3288859,26 69.4663109,26 C69.6024016,26 69.7398266,26.0519942 69.8438959,26.1559827 C70.0520347,26.3639596 70.0520347,26.7012554 69.8438959,26.9092323 L69.8438959,26.9092323 Z M64.7525017,29.0343295 C64.2388259,28.8170203 63.6931288,28.7076991 63.1300867,28.7076991 C62.5670447,28.7076991 62.0213476,28.8183535 61.5076718,29.0343295 C61.0113409,29.2436396 60.5657105,29.5449395 60.1814543,29.9275636 C59.7985324,30.3101878 59.496998,30.7568048 59.287525,31.2527497 C59.0700467,31.766026 58.9606404,32.3112987 58.9606404,32.8739029 C58.9606404,33.4365071 59.0713809,33.9817798 59.287525,34.4950561 C59.496998,34.991001 59.7985324,35.4362849 60.1814543,35.8202422 C60.5643763,36.2028663 61.0113409,36.5041662 61.5076718,36.7134763 C62.0213476,36.9307855 62.5670447,37.0401067 63.1300867,37.0401067 C63.6931288,37.0401067 64.2388259,36.9294523 64.7525017,36.7134763 C65.2488326,36.5041662 65.694463,36.2028663 66.0787191,35.8202422 C66.4616411,35.437618 66.7631755,34.9923342 66.9726484,34.4950561 C67.1901268,33.9817798 67.299533,33.4365071 67.299533,32.8739029 C67.299533,32.3112987 67.1887925,31.766026 66.9726484,31.2527497 C66.7631755,30.7568048 66.4616411,30.3115209 66.0787191,29.9275636 C65.694463,29.5449395 65.2488326,29.2449728 64.7525017,29.0343295 L64.7525017,29.0343295 Z" id="17" fill="#BCBDBE" transform="translate(64.000000, 32.000000) scale(1, -1) translate(-64.000000, -32.000000) "></path>
    </g>
</svg>