<?xml version="1.0" encoding="UTF-8"?>
<svg width="9px" height="7px" viewBox="0 0 9 7" version="1.1" xmlns="http://www.w3.org/2000/svg" xmlns:xlink="http://www.w3.org/1999/xlink">
    <!-- Generator: Sketch 47.1 (45422) - http://www.bohemiancoding.com/sketch -->
    <title>Shape</title>
    <desc>Created with Sketch.</desc>
    <defs></defs>
    <g id="Page-1" stroke="none" stroke-width="1" fill="none" fill-rule="evenodd">
        <g id="Artboard" transform="translate(-74.000000, -28.000000)" stroke="#4B98F8" fill="#108EE9">
            <path d="M76.7809377,29 C76.7648525,29 76.749661,29.0008936 76.7335759,29.0035745 C76.6227671,29.018766 76.5262562,29.0840002 76.4708518,29.1805111 L75.0473163,31.6710279 C74.9490182,31.8426028 75.0088907,32.0606459 75.1804656,32.158944 C75.3520405,32.2572421 75.5700836,32.1973697 75.6683817,32.0257948 L76.8586825,29.9418747 L81.246353,34.3429495 C81.3857576,34.4823541 81.6118433,34.4832477 81.7521415,34.3438431 C81.8915461,34.2044385 81.8924397,33.9783528 81.7530351,33.8380546 L77.0508107,29.1215322 L77.0338319,29.1045535 C76.9659169,29.0366384 76.8747677,29 76.7809377,29 L76.7809377,29 Z" id="Shape" transform="translate(78.428571, 31.723975) scale(1, -1) translate(-78.428571, -31.723975) "></path>
        </g>
    </g>
</svg>