<?xml version="1.0" encoding="UTF-8"?>
<svg width="13px" height="11px" viewBox="0 0 13 11" version="1.1" xmlns="http://www.w3.org/2000/svg" xmlns:xlink="http://www.w3.org/1999/xlink">
    <!-- Generator: Sketch 47.1 (45422) - http://www.bohemiancoding.com/sketch -->
    <title>Fill 1</title>
    <desc>Created with Sketch.</desc>
    <defs></defs>
    <g id="Page-1" stroke="none" stroke-width="1" fill="none" fill-rule="evenodd" fill-opacity="0.74">
        <g id="Artboard-2" transform="translate(-198.000000, -114.000000)" stroke="#666666" stroke-width="0.2" fill="#666666">
            <path d="M204.237243,115.104318 C204.24091,115.100468 204.246776,115.102118 204.250626,115.098635 C204.313326,115.039785 204.396008,115.003486 204.487858,115.000552 C204.488774,115.000552 204.489508,115.000552 204.490241,115.000186 C204.58869,114.997252 204.687323,115.028969 204.762489,115.104318 L206.960455,117.668398 C207.104921,117.81268 207.104921,118.047345 206.960455,118.191994 C206.815806,118.336276 206.581691,118.336276 206.437226,118.191994 L204.866621,116.359225 L204.866621,121.964598 C204.866621,122.166814 204.702356,122.331079 204.499957,122.331079 C204.297376,122.331079 204.13311,122.166814 204.13311,121.964598 L204.13311,116.359225 L202.562506,118.191994 C202.41804,118.336276 202.183742,118.336276 202.039277,118.191994 C201.894811,118.047345 201.894811,117.81268 202.039277,117.668398 L204.237243,115.104318 Z M209.633251,124.532893 L199.366664,124.532893 C199.164082,124.532893 199,124.369178 199,124.166229 L199,121.233102 C199,121.030887 199.164082,120.866438 199.366664,120.866438 C199.569062,120.866438 199.733328,121.030887 199.733328,121.233102 L199.733328,123.799565 L209.266587,123.799565 L209.266587,121.233102 C209.266587,121.030887 209.430853,120.866438 209.633251,120.866438 C209.83565,120.866438 209.999915,121.030887 209.999915,121.233102 L209.999915,124.166229 C209.999915,124.369178 209.83565,124.532893 209.633251,124.532893 L209.633251,124.532893 Z" id="Fill-1"></path>
        </g>
    </g>
</svg>