<!-- Generated by IcoMoon.io -->
<svg version="1.1" xmlns="http://www.w3.org/2000/svg" width="32" height="32" viewBox="0 0 32 32">
<title>data-file-x-lg</title>
<path fill="#298ef2" opacity="0.15" d="M29.333 27.111c0 1.555-5.837 2.815-13.037 2.815s-13.037-1.26-13.037-2.815c0-1.555 5.837-2.815 13.037-2.815s13.037 1.26 13.037 2.815z"></path>
<path fill="#d5eaff" stroke="#88beef" stroke-linejoin="miter" stroke-linecap="butt" stroke-miterlimit="4" stroke-width="0.5926" d="M6.815 5.63h13.63c0.982 0 1.778 0.796 1.778 1.778v16.889c0 0.982-0.796 1.778-1.778 1.778h-13.63c-0.982 0-1.778-0.796-1.778-1.778v-16.889c0-0.982 0.796-1.778 1.778-1.778z"></path>
<path fill="#fefefe" d="M27.258 8.862c-0.001-0.249-0.113-0.473-0.292-0.632v-0.002l-5.349-5.015c-0.168-0.155-0.398-0.251-0.652-0.251h-11.855c-0.936 0-1.702 0.718-1.702 1.596v20.215c0 0.878 0.766 1.596 1.702 1.596h16.449c0.936 0 1.702-0.718 1.702-1.596v-15.911l-0.001-0.001z"></path>
<path fill="none" stroke="#8abce5" stroke-linejoin="miter" stroke-linecap="butt" stroke-miterlimit="4" stroke-width="0.5926" d="M27.258 8.862c-0.001-0.249-0.113-0.473-0.292-0.632v-0.002l-5.349-5.015c-0.168-0.155-0.398-0.251-0.652-0.251h-11.855c-0.936 0-1.702 0.718-1.702 1.596v20.215c0 0.878 0.766 1.596 1.702 1.596h16.449c0.936 0 1.702-0.718 1.702-1.596v-15.911l-0.001-0.001z"></path>
<path fill="none" stroke="#8abce5" stroke-linejoin="miter" stroke-linecap="butt" stroke-miterlimit="4" stroke-width="0.5926" d="M21.333 2.963v4.255c0 0.918 0.771 1.671 1.714 1.671h4.212"></path>
<path fill="#fff" stroke="#88beef" stroke-linejoin="miter" stroke-linecap="butt" stroke-miterlimit="4" stroke-width="0.5926" d="M26.478 18.664l2.936 2.936 0.975-0.975c0.519-0.519 0.33-1.619-0.493-2.442s-1.923-1.013-2.442-0.493l-0.975 0.975z"></path>
<path fill="#7fbbf7" d="M29.808 20.046l-0.395 0.395-1.776-1.776 0.395-0.395c0.218-0.218 0.792 0.003 1.283 0.493s0.711 1.065 0.493 1.283z"></path>
<path fill="#fff" stroke="#88beef" stroke-linejoin="miter" stroke-linecap="butt" stroke-miterlimit="4" stroke-width="0.5926" d="M29.389 21.624l-2.936-2.936-5.953 5.953c-0.231 0.231-0.332 0.589-0.272 1.013l0.271 1.924 1.924 0.271c0.423 0.060 0.782-0.041 1.013-0.272l5.953-5.953z"></path>
<path fill="#7fbbf7" d="M26.848 23.006l-3.697 3.697c-0.18 0.18-0.44 0.268-0.726 0.246l-1.201-0.095-0.095-1.201c-0.023-0.286 0.065-0.546 0.246-0.726l5.079-5.079 1.776 1.776-1.381 1.381z"></path>
<path fill="#ffa3a3" opacity="0.8" stroke="#f58a81" stroke-linejoin="miter" stroke-linecap="butt" stroke-miterlimit="4" stroke-width="0.5926" d="M15.075 13.369l1.676 1.676-1.676 1.676c-0.347 0.347-0.347 0.91 0 1.257s0.91 0.347 1.257 0l1.676-1.676 1.676 1.676c0.347 0.347 0.91 0.347 1.257 0s0.347-0.91 0-1.257l-1.676-1.676 1.676-1.676c0.347-0.347 0.347-0.91 0-1.257s-0.91-0.347-1.257 0l-1.676 1.676-1.676-1.676c-0.347-0.347-0.91-0.347-1.257 0s-0.347 0.91 0 1.257z"></path>
</svg>
