<!-- Generated by IcoMoon.io -->
<svg version="1.1" xmlns="http://www.w3.org/2000/svg" width="32" height="32" viewBox="0 0 32 32">
<title>commondata-file-box</title>
<path fill="#298ef2" opacity="0.1" d="M28.667 24.667c0 1.473-5.671 2.667-12.667 2.667s-12.667-1.194-12.667-2.667c0-1.473 5.671-2.667 12.667-2.667s12.667 1.194 12.667 2.667z"></path>
<path fill="#fff" d="M4.014 24.197c-0.811-0.644-0.681-1.040-1.348-2.13v-9.539l3.493-5.929c0.144-0.245 0.268-0.473 0.382-0.683 0.456-0.838 0.678-1.211 1.168-1.25l15.918 0.001c0.477 0.064 1.019 0.035 1.706 1.249 0.061 0.109 1.395 2.27 4 6.484v9.667c0 0.956-1.329 1.933-2.144 1.933l-23.175 0.197z"></path>
<path fill="#b3cfee" d="M24 4h-16c-0.827 0.067-1.074 0.906-1.778 2.138l-3.556 6.181v10.113c0 1.176 0.8 2.138 1.778 2.138h23.111c0.978 0 1.778-0.962 1.778-2.138v-10.113l-3.556-6.181c-0.975-1.744-1.049-2.041-1.778-2.138zM23.967 4.713c0.323 0.044 0.356 0.083 1.008 1.262 0.093 0.168 0.196 0.354 0.316 0.568l3.45 5.998v9.891c0 0.786-0.532 1.425-1.185 1.425h-23.111c-0.654 0-1.185-0.639-1.185-1.425v-9.891l3.451-6c0.147-0.257 0.275-0.498 0.388-0.71 0.453-0.854 0.609-1.085 0.924-1.119h15.944z"></path>
<path fill="#e8f3ff" d="M9.591 13.564c-0.012-0.195-0.145-0.347-0.304-0.347h-3.921c-0.054-0.005-0.102-0-0.112 0.002-0.314-0.002-0.588-0.339-0.588-0.753 0-0.159 0.042-0.312 0.121-0.444 0.010-0.017 0.019-0.035 0.027-0.053l2.292-4.081c0.135-0.241 0.786-0.348 0.893-0.555 0.433-0.836 0.22-0.629 0.667-0.667h14.667c0.667 0 0.734 0.535 1.333 1.217h0.223l2.328 4.145c0.081 0.153 0.116 0.294 0.116 0.437 0 0.415-0.273 0.752-0.61 0.752h-4.033c-0.159 0-0.292 0.151-0.304 0.347-0.117 1.856-3.403 3.102-6.398 3.102s-6.28-1.246-6.398-3.102z"></path>
<path fill="#b3cfee" d="M23.284 6h-14.57c-0.753 0.060-0.978 0.812-1.619 1.915l-2.254 3.851 0.002 0.002c-0.11 0.175-0.177 0.389-0.177 0.624 0 0.582 0.399 1.053 0.891 1.053 0.014 0 0.026-0.004 0.040-0.005l0.001 0.005h3.865c0.118 1.79 2.994 3.222 6.526 3.222s6.408-1.432 6.526-3.222h3.927c0.492 0 0.891-0.472 0.891-1.053 0-0.211-0.053-0.406-0.144-0.571v-0l-0.001-0.001c-0.007-0.012-0.014-0.024-0.021-0.035l-2.265-3.869c-0.888-1.562-0.956-1.827-1.619-1.915zM23.251 6.702c0.273 0.037 0.299 0.075 0.876 1.102 0.085 0.15 0.178 0.317 0.288 0.51l2.265 3.868c0.001 0.002 0.007 0.012 0.010 0.016 0.001 0.001 0.001 0.002 0.002 0.003 0.032 0.059 0.048 0.123 0.048 0.189 0 0.194-0.133 0.351-0.297 0.351h-3.927c-0.31 0-0.568 0.282-0.592 0.648-0.080 1.218-2.537 2.574-5.934 2.574s-5.854-1.357-5.934-2.574c-0.024-0.366-0.282-0.648-0.592-0.648h-3.797c-0.023-0.003-0.046-0.005-0.069-0.005-0.009 0-0.018 0-0.027 0-0.012 0.001-0.024 0.002-0.036 0.003-0.153-0.014-0.274-0.165-0.274-0.35 0-0.073 0.020-0.143 0.060-0.207 0.015-0.023 0.028-0.047 0.040-0.072l2.225-3.8c0.134-0.231 0.251-0.447 0.354-0.638 0.407-0.753 0.535-0.944 0.798-0.972h14.513z"></path>
<path fill="#e8f3ff" stroke="#b3cfee" stroke-linejoin="miter" stroke-linecap="butt" stroke-miterlimit="4" stroke-width="0.6667" d="M12 19h8.667c0.552 0 1 0.448 1 1s-0.448 1-1 1h-8.667c-0.552 0-1-0.448-1-1s0.448-1 1-1z"></path>
</svg>
