<svg version="1.1" xmlns="http://www.w3.org/2000/svg" width="32" height="32" viewBox="0 0 32 32">
<title>ng-planet-lg</title>
<path fill="#298ef2" opacity="0.15" d="M29.037 26.815c0 1.555-5.837 2.815-13.037 2.815s-13.037-1.26-13.037-2.815c0-1.555 5.837-2.815 13.037-2.815s13.037 1.26 13.037 2.815z"></path>
<path fill="#fff" d="M27.852 14.37c0 6.464-5.24 11.704-11.704 11.704s-11.704-5.24-11.704-11.704c0-6.464 5.24-11.704 11.704-11.704s11.704 5.24 11.704 11.704z"></path>
<path fill="#d5eaff" d="M14.815 2.995c1.528-0.219 2.511-0.329 2.947-0.329 0.655 0 2.62 0.658 2.947 0.986s2.947 1.644 3.275 2.302c0.328 0.658 1.637 1.315 1.637 1.644s0.982 1.315 0.982 1.644c0 0.329 0.655 1.973 0.655 1.973s-0.655 0.34-0.982 0.34c-0.218 0-1.092-0.442-2.62-1.327l-2.62-2.302-2.292-1.973-2.292-0.986-1.31-0.658-0.328-1.315z"></path>
<path fill="#d5eaff" d="M14.878 2.626c0 0-0.984 2.937 1.968 3.589 0 0 3.608 0.326 4.265 2.61 0 0 1.312 4.895 6.233 2.529z"></path>
<path fill="none" stroke="#88beef" stroke-linejoin="miter" stroke-linecap="butt" stroke-miterlimit="4" stroke-width="0.5926" d="M14.878 2.626c0 0-0.984 2.937 1.968 3.589 0 0 3.608 0.326 4.265 2.61 0 0 1.312 4.895 6.233 2.529"></path>
<path fill="#d5eaff" d="M8.113 23.416c0 0 4.757-3.222 4.798 2.488z"></path>
<path fill="none" stroke="#88beef" stroke-linejoin="miter" stroke-linecap="butt" stroke-miterlimit="4" stroke-width="0.5926" d="M8.113 23.416c0 0 4.757-3.222 4.798 2.488"></path>
<path fill="none" stroke="#88beef" stroke-linejoin="miter" stroke-linecap="butt" stroke-miterlimit="4" stroke-width="0.5926" d="M27.852 14.519c0 6.545-5.306 11.852-11.852 11.852s-11.852-5.306-11.852-11.852c0-5.598 3.881-10.289 9.098-11.53 0.884-0.21 1.805-0.321 2.753-0.321 6.546 0 11.852 5.306 11.852 11.852z"></path>
<path fill="none" stroke="#88beef" stroke-linejoin="miter" stroke-linecap="butt" stroke-miterlimit="4" stroke-width="0.5926" d="M6.732 6.909c-2.371-0.587-4.037-0.532-4.518 0.303v0c-1.073 1.865 4.163 6.913 11.695 11.276s14.508 6.387 15.581 4.522c0.512-0.889-0.412-2.503-2.335-4.421"></path>
<path fill="#d5eaff" d="M19.259 21.63v0z"></path>
<path fill="#fff" d="M17.376 20.778l5.082 6.435c0 0 0.631 0.855 1.122-0.137l0.981-1.591c0 0 0.143-0.238 0.578-0.069l0.771 0.274c0 0 0.841 0.137 0.596-0.701l-0.581-1.187c0 0-0.182-0.404 0.16-0.866l1.717-2.584c0 0 0.33-0.498-0.718-0.496l-9.095-0.002c0 0-1.277-0.050-0.613 0.926z"></path>
<path fill="none" stroke="#88beef" stroke-linejoin="miter" stroke-linecap="butt" stroke-miterlimit="4" stroke-width="0.5926" d="M17.080 20.778l5.082 6.435c0 0 0.631 0.855 1.122-0.137l0.981-1.591c0 0 0.143-0.238 0.578-0.069l0.771 0.274c0 0 0.841 0.137 0.596-0.701l-0.581-1.187c0 0-0.182-0.404 0.16-0.866l1.717-2.584c0 0 0.33-0.498-0.718-0.496l-9.095-0.002c0 0-1.277-0.050-0.613 0.926z"></path>
<path fill="#298ef2" opacity="0.6" d="M22.178 25.837c0 0 0.456 0.592 0.81-0.095l0.709-1.102c0 0 0.103-0.165 0.418-0.048l0.557 0.19c0 0 0.607 0.095 0.43-0.485l-0.419-0.822c0 0-0.131-0.28 0.116-0.6l1.24-1.789c0 0 0.238-0.345-0.519-0.343l-6.568-0.001c0 0-0.922-0.035-0.443 0.641l3.67 4.455z"></path>
<path fill="#d5eaff" stroke="#88beef" stroke-linejoin="miter" stroke-linecap="butt" stroke-miterlimit="4" stroke-width="0.5926" d="M19.852 10.519c0 1.227-1.061 2.222-2.37 2.222s-2.37-0.995-2.37-2.222c0-1.227 1.061-2.222 2.37-2.222s2.37 0.995 2.37 2.222z"></path>
<path fill="#d5eaff" stroke="#88beef" stroke-linejoin="miter" stroke-linecap="butt" stroke-miterlimit="4" stroke-width="0.5926" d="M10.667 12.148c0 0.491-0.398 0.889-0.889 0.889s-0.889-0.398-0.889-0.889c0-0.491 0.398-0.889 0.889-0.889s0.889 0.398 0.889 0.889z"></path>
<path fill="#d5eaff" stroke="#88beef" stroke-linejoin="miter" stroke-linecap="butt" stroke-miterlimit="4" stroke-width="0.5926" d="M27.556 16c0 0.818-0.464 1.481-1.037 1.481s-1.037-0.663-1.037-1.481c0-0.818 0.464-1.481 1.037-1.481s1.037 0.663 1.037 1.481z"></path>
</svg>
