<svg version="1.1" xmlns="http://www.w3.org/2000/svg" width="32" height="32" viewBox="0 0 32 32">
<title>ng-browser-lg</title>
<path fill="#298ef2" opacity="0.15" d="M29.037 27.111c0 1.555-5.837 2.815-13.037 2.815s-13.037-1.26-13.037-2.815c0-1.555 5.837-2.815 13.037-2.815s13.037 1.26 13.037 2.815z"></path>
<path fill="#d5eaff" stroke="#88beef" stroke-linejoin="miter" stroke-linecap="butt" stroke-miterlimit="4" stroke-width="0.5926" d="M4.148 24.296h24v-19.852c0-0.818-0.663-1.481-1.481-1.481h-21.037c-0.818 0-1.481 0.663-1.481 1.481v19.852z"></path>
<path fill="#fff" stroke="#88beef" stroke-linejoin="miter" stroke-linecap="butt" stroke-miterlimit="4" stroke-width="0.5926" d="M7.111 4.741c-0.818 0-1.481 0.663-1.481 1.481v15.111c0 0.818 0.663 1.481 1.481 1.481h18.074c0.818 0 1.481-0.663 1.481-1.481v-15.111c0-0.818-0.663-1.481-1.481-1.481h-18.074z"></path>
<path fill="#fff" stroke="#88beef" stroke-linejoin="miter" stroke-linecap="butt" stroke-miterlimit="4" stroke-width="0.5926" d="M2.963 24c-0.164 0-0.296 0.133-0.296 0.296v0.889c0 0.655 0.531 1.185 1.185 1.185h24c0.655 0 1.185-0.531 1.185-1.185v-0.889c0-0.164-0.133-0.296-0.296-0.296h-25.778z"></path>
<path fill="#fff" stroke="#88beef" stroke-linejoin="miter" stroke-linecap="butt" stroke-miterlimit="4" stroke-width="0.5926" d="M27.584 19.765l2.967 4.778c0.518 0.834 0.262 1.93-0.573 2.448-0.282 0.175-0.606 0.267-0.938 0.267h-5.934c-0.982 0-1.778-0.796-1.778-1.778 0-0.331 0.093-0.656 0.267-0.938l2.967-4.778c0.518-0.834 1.614-1.090 2.448-0.573 0.232 0.144 0.428 0.34 0.573 0.573z"></path>
<path fill="#7fbbf7" d="M26.83 20.294l2.924 4.719c0.259 0.417 0.13 0.965-0.287 1.224-0.141 0.087-0.303 0.133-0.468 0.133h-5.848c-0.491 0-0.889-0.398-0.889-0.889 0-0.165 0.046-0.328 0.133-0.468l2.924-4.719c0.259-0.417 0.806-0.546 1.224-0.287 0.117 0.072 0.215 0.171 0.287 0.287z"></path>
<path fill="#fff" d="M26.222 21.333c0.245 0 0.444 0.199 0.444 0.444v1.481c0 0.245-0.199 0.444-0.444 0.444s-0.444-0.199-0.444-0.444v-1.481c0-0.245 0.199-0.444 0.444-0.444z"></path>
<path fill="#fff" d="M26.667 24.741c0 0.245-0.199 0.444-0.444 0.444s-0.444-0.199-0.444-0.444c0-0.245 0.199-0.444 0.444-0.444s0.444 0.199 0.444 0.444z"></path>
<path fill="#d5eaff" stroke="#88beef" stroke-linejoin="miter" stroke-linecap="butt" stroke-miterlimit="4" stroke-width="0.5926" d="M14.815 13.264h3.68c-0.049-0.694-0.236-1.213-0.561-1.557s-0.752-0.517-1.282-0.517c-0.505 0-0.921 0.175-1.245 0.524s-0.522 0.866-0.591 1.55zM18.785 14.417h-3.97c0.005 0.461 0.098 0.867 0.279 1.219s0.421 0.617 0.721 0.795 0.631 0.268 0.993 0.268c0.243 0 0.465-0.029 0.665-0.086s0.395-0.146 0.584-0.268c0.188-0.121 0.362-0.251 0.52-0.39s0.364-0.327 0.617-0.565c0.104-0.089 0.253-0.134 0.446-0.134 0.208 0 0.377 0.057 0.505 0.171s0.193 0.275 0.193 0.483c0 0.183-0.072 0.398-0.215 0.643s-0.361 0.481-0.651 0.706c-0.29 0.226-0.654 0.413-1.093 0.561s-0.943 0.223-1.513 0.223c-1.303 0-2.317-0.372-3.041-1.115s-1.085-1.752-1.085-3.026c0-0.599 0.089-1.156 0.268-1.669s0.439-0.953 0.781-1.32c0.342-0.367 0.763-0.648 1.264-0.844s1.056-0.294 1.665-0.294c0.793 0 1.473 0.167 2.041 0.502s0.992 0.767 1.275 1.297c0.282 0.53 0.424 1.071 0.424 1.62 0 0.511-0.146 0.841-0.439 0.993s-0.704 0.227-1.234 0.227z"></path>
<path fill="none" stroke="#88beef" stroke-linejoin="miter" stroke-linecap="butt" stroke-miterlimit="4" stroke-width="0.5926" d="M19.892 11.368c0.023-0.088 0.043-0.174 0.059-0.259 0.11-0.59 0.028-1.085-0.276-1.412-0.893-0.957-3.363-0.105-5.517 1.904s-3.177 4.413-2.284 5.371v0c0.44 0.472 1.263 0.504 2.242 0.175"></path>
</svg>
