<!-- Generated by IcoMoon.io -->
<svg version="1.1" xmlns="http://www.w3.org/2000/svg" width="32" height="32" viewBox="0 0 32 32">
<title>commonng-browser</title>
<path fill="#298ef2" opacity="0.15" d="M28.667 26c0 1.473-5.671 2.667-12.667 2.667s-12.667-1.194-12.667-2.667c0-1.473 5.671-2.667 12.667-2.667s12.667 1.194 12.667 2.667z"></path>
<path fill="#e8f3ff" stroke="#b3cfee" stroke-linejoin="miter" stroke-linecap="butt" stroke-miterlimit="4" stroke-width="0.6667" d="M3.667 23.667h24.667v-18.333c0-0.92-0.746-1.667-1.667-1.667h-21.333c-0.92 0-1.667 0.746-1.667 1.667v18.333z"></path>
<path fill="#fff" stroke="#b3cfee" stroke-linejoin="miter" stroke-linecap="butt" stroke-miterlimit="4" stroke-width="0.6667" d="M7.667 5.667h16.667c1.105 0 2 0.895 2 2v12c0 1.105-0.895 2-2 2h-16.667c-1.105 0-2-0.895-2-2v-12c0-1.105 0.895-2 2-2z"></path>
<path fill="#fff" stroke="#b3cfee" stroke-linejoin="miter" stroke-linecap="butt" stroke-miterlimit="4" stroke-width="0.6667" d="M2.667 23c-0.184 0-0.333 0.149-0.333 0.333v1c0 0.736 0.597 1.333 1.333 1.333h24.667c0.736 0 1.333-0.597 1.333-1.333v-1c0-0.184-0.149-0.333-0.333-0.333h-26.667z"></path>
<path fill="#e8f3ff" stroke="#b3cfee" stroke-linejoin="miter" stroke-linecap="butt" stroke-miterlimit="4" stroke-width="0.6667" d="M14.459 13.76h3.179c-0.043-0.616-0.204-1.076-0.485-1.382s-0.65-0.458-1.108-0.458c-0.437 0-0.795 0.155-1.076 0.465s-0.451 0.768-0.511 1.375zM17.888 14.782h-3.43c0.004 0.409 0.085 0.769 0.241 1.082s0.364 0.547 0.623 0.705 0.545 0.238 0.858 0.238c0.21 0 0.401-0.026 0.575-0.076s0.341-0.13 0.504-0.238c0.163-0.108 0.313-0.223 0.45-0.346s0.315-0.29 0.533-0.501c0.090-0.079 0.218-0.119 0.386-0.119 0.18 0 0.325 0.050 0.437 0.152s0.167 0.244 0.167 0.429c0 0.163-0.062 0.353-0.186 0.571s-0.312 0.426-0.562 0.626c-0.25 0.2-0.565 0.366-0.944 0.498s-0.815 0.198-1.307 0.198c-1.126 0-2.002-0.33-2.627-0.989s-0.938-1.554-0.938-2.684c0-0.532 0.077-1.025 0.231-1.48s0.379-0.845 0.675-1.171c0.295-0.325 0.659-0.575 1.092-0.748s0.912-0.26 1.439-0.26c0.685 0 1.273 0.149 1.763 0.445s0.857 0.68 1.101 1.151c0.244 0.47 0.366 0.95 0.366 1.438 0 0.453-0.126 0.746-0.379 0.881s-0.608 0.201-1.066 0.201z"></path>
<path fill="none" stroke="#b3cfee" stroke-linejoin="miter" stroke-linecap="butt" stroke-miterlimit="4" stroke-width="0.6667" d="M18.977 11.515c0.022-0.075 0.041-0.149 0.056-0.221 0.108-0.504 0.050-0.923-0.202-1.193-0.739-0.792-2.866-0.010-4.751 1.748s-2.814 3.825-2.075 4.617c0.364 0.39 1.065 0.398 1.908 0.096"></path>
</svg>
