<svg version="1.1" xmlns="http://www.w3.org/2000/svg" width="32" height="32" viewBox="0 0 32 32">
<title>data-folder-search-lg</title>
<path fill="#d5eaff" stroke="#88beef" stroke-linejoin="miter" stroke-linecap="butt" stroke-miterlimit="4" stroke-width="0.5926" d="M21.926 4.471h-9.13l-0.038-0.252c-0.109-0.718-0.73-1.257-1.465-1.257h-3.667c-0.746 0-1.373 0.554-1.469 1.287l-0.027 0.209-0.207 0.042c-0.684 0.14-1.183 0.745-1.183 1.451v6.788c0 0.818 0.663 1.481 1.481 1.481h15.704c0.818 0 1.481-0.663 1.481-1.481v-6.788c0-0.818-0.663-1.481-1.481-1.481z"></path>
<path fill="#298ef2" opacity="0.15" d="M29.037 27.111c0 1.555-5.837 2.815-13.037 2.815s-13.037-1.26-13.037-2.815c0-1.555 5.837-2.815 13.037-2.815s13.037 1.26 13.037 2.815z"></path>
<path fill="#fff" stroke="#88beef" stroke-linejoin="miter" stroke-linecap="butt" stroke-miterlimit="4" stroke-width="0.5926" d="M4.454 6.222c-0.036 0-0.071 0.001-0.107 0.004-0.816 0.059-1.43 0.768-1.371 1.584l1.239 17.185c0.056 0.775 0.701 1.375 1.478 1.375h20.615c0.777 0 1.422-0.6 1.478-1.375l1.239-17.185c0.003-0.035 0.004-0.071 0.004-0.107 0-0.818-0.663-1.481-1.481-1.481h-23.093z"></path>
<path fill="#fff" stroke="#88beef" stroke-linejoin="miter" stroke-linecap="butt" stroke-miterlimit="4" stroke-width="0.5926" d="M18.741 26.422c-0.504 0.438-0.558 1.203-0.119 1.707s1.203 0.558 1.707 0.119l3.581-3.113c0.504-0.438 0.558-1.203 0.119-1.707s-1.203-0.558-1.707-0.119l-3.581 3.113z"></path>
<path fill="#fff" stroke="#88beef" stroke-linejoin="miter" stroke-linecap="butt" stroke-miterlimit="4" stroke-width="0.5926" d="M30.356 23.089c-0.425 2.684-2.969 4.512-5.682 4.082s-4.567-2.954-4.142-5.638c0.425-2.684 2.969-4.512 5.682-4.082s4.567 2.954 4.142 5.638z"></path>
<path fill="#298ef2" opacity="0.6" d="M29.374 22.933c-0.338 2.137-2.372 3.59-4.542 3.246s-3.655-2.354-3.317-4.491c0.338-2.137 2.372-3.59 4.542-3.246s3.655 2.354 3.317 4.491z"></path>
<path fill="#fff" stroke="#88beef" stroke-linejoin="miter" stroke-linecap="butt" stroke-miterlimit="4" stroke-width="0.5926" d="M11.556 11.556c0 0.327-0.265 0.593-0.593 0.593s-0.593-0.265-0.593-0.593c0-0.327 0.265-0.593 0.593-0.593s0.593 0.265 0.593 0.593z"></path>
<path fill="#fff" stroke="#88beef" stroke-linejoin="miter" stroke-linecap="butt" stroke-miterlimit="4" stroke-width="0.5926" d="M15.407 16.593c-0.164 0-0.296 0.133-0.296 0.296v1.185c0 0.491 0.398 0.889 0.889 0.889h0.296c0.491 0 0.889-0.398 0.889-0.889v-1.185c0-0.164-0.133-0.296-0.296-0.296h-1.481z"></path>
<path fill="#fff" stroke="#88beef" stroke-linejoin="miter" stroke-linecap="butt" stroke-miterlimit="4" stroke-width="0.5926" d="M21.63 11.556c0 0.327-0.265 0.593-0.593 0.593s-0.593-0.265-0.593-0.593c0-0.327 0.265-0.593 0.593-0.593s0.593 0.265 0.593 0.593z"></path>
</svg>
