<svg version="1.1" xmlns="http://www.w3.org/2000/svg" width="32" height="32" viewBox="0 0 32 32">
<title>data-file-box-lg</title>
<path fill="#298ef2" opacity="0.15" d="M29.037 26.519c0 1.718-5.837 3.111-13.037 3.111s-13.037-1.393-13.037-3.111c0-1.718 5.837-3.111 13.037-3.111s13.037 1.393 13.037 3.111z"></path>
<path fill="#fff" d="M4.444 25.698c-0.817 0-1.481-0.665-1.481-1.481v-8.317l3.503-5.064c0.144-0.209 0.268-0.404 0.383-0.583 0.457-0.716 0.68-1.034 1.172-1.067l15.963 0.001c0.479 0.055 0.55 0.145 1.239 1.182 0.092 0.139 0.195 0.293 0.31 0.465l3.505 5.067v8.317c0 0.817-0.665 1.481-1.481 1.481h-23.111z"></path>
<path fill="#88beef" d="M24 8.889h-16c-0.827 0.056-1.074 0.754-1.778 1.778l-3.556 5.14v8.41c0 0.978 0.8 1.778 1.778 1.778h23.111c0.978 0 1.778-0.8 1.778-1.778v-8.41l-3.556-5.14c-0.975-1.45-1.049-1.697-1.778-1.778zM23.967 9.481c0.323 0.037 0.356 0.069 1.008 1.050 0.093 0.14 0.196 0.295 0.316 0.473l3.45 4.988v8.225c0 0.654-0.532 1.185-1.185 1.185h-23.111c-0.654 0-1.185-0.531-1.185-1.185v-8.225l3.451-4.989c0.147-0.214 0.275-0.414 0.388-0.591 0.453-0.71 0.609-0.902 0.924-0.93h15.944z"></path>
<path fill="#d5eaff" d="M15.99 18.698c-2.911 0-6.103-0.983-6.217-2.445-0.012-0.154-0.141-0.273-0.295-0.273h-3.811c-0.016-0.003-0.032-0.004-0.048-0.004-0.004 0-0.051 0.004-0.060 0.005-0.305-0.001-0.571-0.267-0.571-0.594 0-0.125 0.041-0.246 0.118-0.35 0.010-0.013 0.018-0.027 0.026-0.041l2.228-3.217c0.131-0.19 0.244-0.368 0.348-0.531 0.421-0.659 0.609-0.928 1.044-0.957l14.503 0.001c0.422 0.049 0.486 0.131 1.105 1.063l0.282 0.422 2.263 3.268c0.079 0.121 0.112 0.231 0.112 0.344 0 0.327-0.266 0.593-0.593 0.593h-3.919c-0.155 0-0.284 0.119-0.295 0.273-0.114 1.463-3.307 2.445-6.217 2.445z"></path>
<path fill="#88beef" d="M23.27 9.994h-14.54c-0.752 0.051-0.976 0.685-1.615 1.615l-2.25 3.249 0.002 0.002c-0.109 0.148-0.176 0.329-0.176 0.527 0 0.491 0.398 0.889 0.889 0.889 0.014 0 0.026-0.004 0.039-0.004l0.001 0.004h3.857c0.118 1.51 2.988 2.719 6.513 2.719s6.395-1.209 6.513-2.719h3.919c0.491 0 0.889-0.398 0.889-0.889 0-0.178-0.053-0.343-0.143-0.481v-0l-0.001-0.001c-0.007-0.010-0.014-0.020-0.021-0.030l-2.26-3.264c-0.887-1.318-0.954-1.542-1.616-1.615zM23.237 10.587c0.272 0.031 0.299 0.064 0.874 0.93 0.084 0.127 0.178 0.268 0.287 0.431l2.26 3.264c0.001 0.001 0.007 0.010 0.010 0.014 0.001 0.001 0.001 0.002 0.001 0.002 0.032 0.049 0.048 0.103 0.048 0.16 0 0.163-0.133 0.296-0.296 0.296h-3.919c-0.309 0-0.567 0.238-0.591 0.546-0.080 1.028-2.532 2.172-5.922 2.172s-5.842-1.145-5.922-2.172c-0.024-0.308-0.281-0.546-0.591-0.546h-3.789c-0.023-0.003-0.046-0.004-0.069-0.004-0.009 0-0.018 0-0.027 0-0.012 0.001-0.024 0.001-0.036 0.003-0.153-0.012-0.274-0.14-0.274-0.295 0-0.062 0.020-0.12 0.060-0.174 0.015-0.020 0.028-0.040 0.040-0.061l2.22-3.206c0.134-0.195 0.25-0.377 0.353-0.538 0.406-0.636 0.534-0.796 0.797-0.82h14.484z"></path>
<path fill="#fff" stroke="#88beef" stroke-linejoin="miter" stroke-linecap="butt" stroke-miterlimit="4" stroke-width="0.5926" d="M12.148 20.444c0 0.327-0.265 0.593-0.593 0.593s-0.593-0.265-0.593-0.593c0-0.327 0.265-0.593 0.593-0.593s0.593 0.265 0.593 0.593z"></path>
<path fill="#fff" stroke="#88beef" stroke-linejoin="miter" stroke-linecap="butt" stroke-miterlimit="4" stroke-width="0.5926" d="M21.037 20.444c0 0.327-0.265 0.593-0.593 0.593s-0.593-0.265-0.593-0.593c0-0.327 0.265-0.593 0.593-0.593s0.593 0.265 0.593 0.593z"></path>
<path fill="none" stroke="#88beef" stroke-linejoin="miter" stroke-linecap="butt" stroke-miterlimit="4" stroke-width="0.5926" d="M16 24.293c1.185 0.029 1.778-0.137 1.778-0.498 0-0.541-0.796-0.98-1.778-0.98s-1.778 0.439-1.778 0.98c0 0.361 0.593 0.527 1.778 0.498z"></path>
<path fill="#fefefe" d="M20.445 2.37h-8.889c-0.982 0-1.778 0.796-1.778 1.778v5.926c0 0.978 0.8 1.778 1.778 1.778h3.525l0.708 0.652c0.094 0.086 0.33 0.086 0.425 0l0.706-0.652h3.525c0.978 0 1.778-0.8 1.778-1.778v-5.926c0-0.978-0.8-1.778-1.778-1.778z"></path>
<path fill="none" stroke="#8abce5" stroke-linejoin="miter" stroke-linecap="butt" stroke-miterlimit="4" stroke-width="0.5926" d="M20.445 2.37h-8.889c-0.982 0-1.778 0.796-1.778 1.778v5.926c0 0.978 0.8 1.778 1.778 1.778h3.525l0.708 0.652c0.094 0.086 0.33 0.086 0.425 0l0.706-0.652h3.525c0.978 0 1.778-0.8 1.778-1.778v-5.926c0-0.978-0.8-1.778-1.778-1.778z"></path>
<path fill="#88beef" d="M13.63 7.407c0 0.327-0.265 0.593-0.593 0.593s-0.593-0.265-0.593-0.593c0-0.327 0.265-0.593 0.593-0.593s0.593 0.265 0.593 0.593z"></path>
<path fill="#88beef" d="M16.593 7.407c0 0.327-0.265 0.593-0.593 0.593s-0.593-0.265-0.593-0.593c0-0.327 0.265-0.593 0.593-0.593s0.593 0.265 0.593 0.593z"></path>
<path fill="#88beef" d="M19.556 7.407c0 0.327-0.265 0.593-0.593 0.593s-0.593-0.265-0.593-0.593c0-0.327 0.265-0.593 0.593-0.593s0.593 0.265 0.593 0.593z"></path>
<path fill="#fff" stroke="#88beef" stroke-linejoin="miter" stroke-linecap="butt" stroke-miterlimit="4" stroke-width="0.5926" d="M31.111 23.407c0 2.127-1.725 3.852-3.852 3.852s-3.852-1.725-3.852-3.852c0-2.127 1.725-3.852 3.852-3.852s3.852 1.725 3.852 3.852z"></path>
<path fill="#7fbbf7" d="M30.222 23.407c0 1.636-1.327 2.963-2.963 2.963s-2.963-1.327-2.963-2.963c0-1.636 1.327-2.963 2.963-2.963s2.963 1.327 2.963 2.963z"></path>
<path fill="#fff" d="M27.232 21.333c-0.694 0.080-1.079 0.392-1.157 0.935-0.015 0.176 0.069 0.272 0.254 0.288 0.092 0.016 0.17-0.056 0.231-0.216 0.093-0.336 0.316-0.504 0.671-0.504 0.432 0.032 0.663 0.256 0.694 0.672 0 0.384-0.251 0.446-0.388 0.562-0.173 0.147-0.286 0.296-0.424 0.548-0.116 0.212-0.136 0.665-0.136 0.665 0 0.192 0.085 0.288 0.254 0.288 0.154 0 0.239-0.096 0.255-0.288 0 0 0.020-0.509 0.218-0.734 0.224-0.255 0.761-0.434 0.776-1.089-0.062-0.688-0.478-1.064-1.249-1.127zM27.232 24.814c-0.178 0-0.322 0.15-0.322 0.334s0.144 0.334 0.322 0.334 0.322-0.149 0.322-0.334c0-0.184-0.144-0.334-0.322-0.334v0z"></path>
</svg>
