<!-- Generated by IcoMoon.io -->
<svg version="1.1" xmlns="http://www.w3.org/2000/svg" width="32" height="32" viewBox="0 0 32 32">
<title>commonng-planet</title>
<path fill="#298ef2" opacity="0.1" d="M28 25.333c0 1.473-5.671 2.667-12.667 2.667s-12.667-1.194-12.667-2.667c0-1.473 5.671-2.667 12.667-2.667s12.667 1.194 12.667 2.667z"></path>
<path fill="#fff" d="M26.667 15c0 6.075-4.925 11-11 11s-11-4.925-11-11c0-6.075 4.925-11 11-11s11 4.925 11 11z"></path>
<path fill="#e8f3ff" d="M14.667 4.296c1.392-0.197 2.287-0.296 2.684-0.296 0.596 0 2.386 0.592 2.684 0.888s2.684 1.48 2.982 2.071c0.298 0.592 1.491 1.184 1.491 1.48s0.895 1.184 0.895 1.48c0 0.296 0.596 1.775 0.596 1.775s-0.596 0.306-0.895 0.306c-0.199 0-0.994-0.398-2.386-1.194l-2.386-2.071-2.088-1.776-2.088-0.888-1.193-0.592-0.298-1.184z"></path>
<path fill="#e8f3ff" d="M14.812 4c0 0-0.906 2.603 1.812 3.181 0 0 3.321 0.289 3.925 2.314 0 0 1.208 4.338 5.737 2.241z"></path>
<path fill="none" stroke="#b3cfee" stroke-linejoin="miter" stroke-linecap="butt" stroke-miterlimit="4" stroke-width="0.6667" d="M14.812 4c0 0-0.906 2.603 1.812 3.181 0 0 3.321 0.289 3.925 2.314 0 0 1.208 4.338 5.737 2.241"></path>
<path fill="#e8f3ff" d="M8.754 23.412c0 0 4.43-3.951 5.019 2.313z"></path>
<path fill="none" stroke="#b3cfee" stroke-linejoin="miter" stroke-linecap="butt" stroke-miterlimit="4" stroke-width="0.6667" d="M8.75 23.368c0 0 4.607-3.853 5.019 2.313"></path>
<path fill="none" stroke="#b3cfee" stroke-linejoin="miter" stroke-linecap="butt" stroke-miterlimit="4" stroke-width="0.6667" d="M26.667 15c0 6.075-4.925 11-11 11s-11-4.925-11-11c0-5.195 3.602-9.55 8.445-10.702 0.82-0.195 1.676-0.298 2.555-0.298 6.075 0 11 4.925 11 11z"></path>
<path fill="none" stroke="#b3cfee" stroke-linejoin="miter" stroke-linecap="butt" stroke-miterlimit="4" stroke-width="0.6667" d="M7.615 7.682c-2.18-0.524-3.712-0.475-4.154 0.271v0c-0.987 1.664 3.827 6.168 10.752 10.061s13.338 5.699 14.325 4.035c0.47-0.793-0.378-2.233-2.146-3.944"></path>
<path fill="#d5eaff" d="M18.667 20.667v0z"></path>
<path fill="#e8f3ff" stroke="#b3cfee" stroke-linejoin="miter" stroke-linecap="butt" stroke-miterlimit="4" stroke-width="0.6667" d="M19.333 11.333c0 1.105-0.895 2-2 2s-2-0.895-2-2c0-1.105 0.895-2 2-2s2 0.895 2 2z"></path>
<path fill="#e8f3ff" stroke="#b3cfee" stroke-linejoin="miter" stroke-linecap="butt" stroke-miterlimit="4" stroke-width="0.6667" d="M12 13c0 0.552-0.448 1-1 1s-1-0.448-1-1c0-0.552 0.448-1 1-1s1 0.448 1 1z"></path>
<path fill="#e8f3ff" stroke="#b3cfee" stroke-linejoin="miter" stroke-linecap="butt" stroke-miterlimit="4" stroke-width="0.6667" d="M26 16c0 0.736-0.448 1.333-1 1.333s-1-0.597-1-1.333c0-0.736 0.448-1.333 1-1.333s1 0.597 1 1.333z"></path>
</svg>
