<svg version="1.1" xmlns="http://www.w3.org/2000/svg" width="32" height="32" viewBox="0 0 32 32">
<title>commondata-folder-search</title>
<path fill="#298ef2" opacity="0.1" d="M28 26c0 1.473-5.671 2.667-12.667 2.667s-12.667-1.194-12.667-2.667c0-1.473 5.671-2.667 12.667-2.667s12.667 1.194 12.667 2.667z"></path>
<path fill="#e8f3ff" stroke="#b3cfee" stroke-linejoin="miter" stroke-linecap="butt" stroke-miterlimit="4" stroke-width="0.6667" d="M20.667 5.109h-8.635l-0.070-0.241c-0.205-0.706-0.854-1.202-1.601-1.202h-3c-0.774 0-1.441 0.532-1.62 1.274l-0.045 0.185-0.182 0.055c-0.696 0.212-1.181 0.856-1.181 1.595v3.891c0 2.025 1.642 3.667 3.667 3.667h10.667c2.025 0 3.667-1.642 3.667-3.667v-3.891c0-0.92-0.746-1.667-1.667-1.667z"></path>
<path fill="#fff" stroke="#b3cfee" stroke-linejoin="miter" stroke-linecap="butt" stroke-miterlimit="4" stroke-width="0.6667" d="M4.667 7c-0.041 0-0.083 0.002-0.124 0.005-0.918 0.068-1.607 0.868-1.538 1.786l1.142 15.333c0.065 0.87 0.79 1.543 1.662 1.543h19.319c0.872 0 1.597-0.673 1.662-1.543l1.142-15.333c0.003-0.041 0.005-0.082 0.005-0.124 0-0.92-0.746-1.667-1.667-1.667h-21.602z"></path>
<path fill="#fff" stroke="#b3cfee" stroke-linejoin="miter" stroke-linecap="butt" stroke-miterlimit="4" stroke-width="0.6667" d="M9.957 19.452c-0.453 0.394-0.501 1.080-0.107 1.533s1.080 0.501 1.533 0.107l3.377-2.935c0.453-0.394 0.501-1.080 0.107-1.533s-1.080-0.501-1.533-0.107l-3.377 2.935z"></path>
<path fill="#e8f3ff" stroke="#b3cfee" stroke-linejoin="miter" stroke-linecap="butt" stroke-miterlimit="4" stroke-width="0.6667" d="M21.321 16.716c-0.401 2.531-2.799 4.254-5.357 3.849s-4.306-2.785-3.905-5.316c0.401-2.531 2.799-4.254 5.357-3.849s4.306 2.785 3.905 5.316z"></path>
</svg>
