<!-- Generated by IcoMoon.io -->
<svg version="1.1" xmlns="http://www.w3.org/2000/svg" width="32" height="32" viewBox="0 0 32 32">
<title>commondata-file-tick</title>
<path fill="#298ef2" opacity="0.1" d="M28.667 26c0 1.473-5.671 2.667-12.667 2.667s-12.667-1.194-12.667-2.667c0-1.473 5.671-2.667 12.667-2.667s12.667 1.194 12.667 2.667z"></path>
<path fill="#e8f3ff" stroke="#b3cfee" stroke-linejoin="miter" stroke-linecap="butt" stroke-miterlimit="4" stroke-width="0.6667" d="M6.667 4.333c-0.92 0-1.667 0.746-1.667 1.667v17.333c0 0.92 0.746 1.667 1.667 1.667h13.333c0.92 0 1.667-0.746 1.667-1.667v-17.333c0-0.92-0.746-1.667-1.667-1.667h-13.333z"></path>
<path fill="#fefefe" d="M26.497 8.286c-0.001-0.242-0.282-0.131-0.456-0.285l-0.393-0.271-4.566-4.703-0.244-0.041c-0.164-0.15-0.055-0.319-0.302-0.319h-11.546c-0.911 0-1.657 0.695-1.657 1.545v19.576c0 0.85 0.746 1.545 1.657 1.545h16.019c0.912 0 1.657-0.695 1.657-1.545l-0.17-15.408v-0.093z"></path>
<path fill="none" stroke="#b3cfee" stroke-linejoin="miter" stroke-linecap="butt" stroke-miterlimit="4" stroke-width="0.6667" d="M26.157 8.164l-0.007-0.006-5.203-4.997c-0.111-0.103-0.256-0.161-0.411-0.161h-11.546c-0.73 0-1.324 0.57-1.324 1.258v20.151c0 0.688 0.593 1.258 1.324 1.258h16.019c0.73 0 1.324-0.57 1.324-1.258v-15.858c-0.001-0.148-0.064-0.285-0.177-0.387z"></path>
<path fill="none" stroke="#b3cfee" stroke-linejoin="miter" stroke-linecap="butt" stroke-miterlimit="4" stroke-width="0.6667" d="M20.667 3.333v3.83c0 0.827 0.781 1.503 1.735 1.503h4.265"></path>
<path fill="#e8f3ff" stroke="#b3cfee" stroke-linejoin="miter" stroke-linecap="butt" stroke-miterlimit="4" stroke-width="0.6667" d="M19.582 12.568l-3.596 3.596-1.604-1.604c-0.318-0.318-0.834-0.318-1.152 0-0.007 0.007-0.007 0.007-0.014 0.014-0.299 0.315-0.287 0.812 0.028 1.111l2.202 2.093c0.053 0.050 0.112 0.093 0.182 0.13 0.33 0.184 0.748 0.129 1.019-0.142l4.066-4.066c0.312-0.312 0.312-0.819 0-1.131s-0.819-0.312-1.131 0z"></path>
</svg>
