<!-- Generated by IcoMoon.io -->
<svg version="1.1" xmlns="http://www.w3.org/2000/svg" width="32" height="32" viewBox="0 0 32 32">
<title>direction-circlecircle-right</title>
<path d="M29.562 10.292c-2.934-6.966-10.669-10.576-17.894-8.351s-11.586 9.563-10.090 16.972c1.497 7.409 8.365 12.479 15.887 11.726s13.25-7.081 13.25-14.64c0.002-1.961-0.39-3.902-1.153-5.708zM24.485 24.485c-4.048 4.048-10.392 4.673-15.152 1.493s-6.611-9.281-4.42-14.57c2.191-5.289 7.813-8.294 13.427-7.178s9.659 6.044 9.659 11.769c0.009 3.184-1.257 6.24-3.515 8.485v0zM23.569 15.057c0.25 0.25 0.391 0.589 0.391 0.943s-0.141 0.693-0.391 0.943l-6.438 6.438c-0.521 0.521-1.365 0.521-1.886 0s-0.521-1.365 0-1.886l4.162-4.162h-10.073c-0.736 0-1.333-0.597-1.333-1.333s0.597-1.333 1.333-1.333h10.073l-4.162-4.162c-0.521-0.521-0.521-1.365 0-1.886s1.365-0.521 1.886 0l6.438 6.438z"></path>
</svg>
