<svg xmlns="http://www.w3.org/2000/svg" width="768" height="768" viewBox="0 0 768 768"><defs><style>.a{opacity:0;}</style></defs><title>fast-right</title><path d="M352,32a32,32,0,0,0-22.63,54.63L626.75,384,329.37,681.37a32,32,0,0,0,45.26,45.26l320-320a32,32,0,0,0,0-45.26l-320-320A31.9,31.9,0,0,0,352,32ZM118.63,41.37l320,320a32,32,0,0,1,0,45.26l-320,320a32,32,0,0,1-45.26-45.26L370.75,384,73.37,86.63a32,32,0,0,1,45.26-45.26Z"/><rect class="a" width="768" height="768" transform="translate(768 768) rotate(180)"/></svg>