<svg xmlns="http://www.w3.org/2000/svg" width="768" height="768" viewBox="0 0 768 768"><defs><style>.a{opacity:0;}</style></defs><title>arrow-up-down</title><path d="M576,320a32,32,0,0,1-24.31-11.17L384,113.17,216.3,308.83a32,32,0,0,1-48.6-41.66l192-224a32,32,0,0,1,48.6,0l192,224A32,32,0,0,1,576,320Z"/><path d="M384,736a32,32,0,0,1-24.3-11.17l-192-224a32,32,0,0,1,48.6-41.66L384,654.83,551.7,459.17a32,32,0,0,1,48.6,41.66l-192,224A32,32,0,0,1,384,736Z"/><rect class="a" width="768" height="768"/></svg>