<svg xmlns="http://www.w3.org/2000/svg" width="768" height="768" viewBox="0 0 768 768"><defs><style>.a{opacity:0;}</style></defs><title>fast-down</title><path d="M736,352a32,32,0,0,0-54.63-22.63L384,626.75,86.63,329.37a32,32,0,0,0-45.26,45.26l320,320a32,32,0,0,0,45.26,0l320-320A31.9,31.9,0,0,0,736,352Zm-9.37-233.37-320,320a32,32,0,0,1-45.26,0l-320-320A32,32,0,0,1,86.63,73.37L384,370.75,681.37,73.37a32,32,0,0,1,45.26,45.26Z"/><rect class="a" width="768" height="768" transform="translate(0 768) rotate(-90)"/></svg>