<svg xmlns="http://www.w3.org/2000/svg" width="768" height="768" viewBox="0 0 768 768"><defs><style>.a{opacity:0;}</style></defs><title>arrow-left-circle</title><path d="M237.6,384a32,32,0,0,1,11.51-24.58l178.8-149a32,32,0,0,1,41,49.16L319.58,384,468.89,508.42a32,32,0,0,1-41,49.16l-178.8-149A32,32,0,0,1,237.6,384ZM32,384A352.09,352.09,0,0,1,708.33,247,352.09,352.09,0,0,1,59.67,521,349.83,349.83,0,0,1,32,384Zm64,0a288,288,0,1,0,84.35-203.65A286.15,286.15,0,0,0,96,384Z"/><rect class="a" width="768" height="768" transform="translate(768 768) rotate(180)"/></svg>