<svg xmlns="http://www.w3.org/2000/svg" width="768" height="768" viewBox="0 0 768 768"><defs><style>.a{opacity:0;}</style></defs><title>arrow-down-circle</title><path d="M384,530.4a32,32,0,0,1-24.58-11.51l-149-178.8a32,32,0,1,1,49.16-41L384,448.42,508.42,299.11a32,32,0,0,1,49.16,41l-149,178.8A32,32,0,0,1,384,530.4ZM384,736A352.09,352.09,0,0,1,247,59.67,352.09,352.09,0,0,1,521,708.33,349.83,349.83,0,0,1,384,736Zm0-64a288,288,0,1,0-203.65-84.35A286.15,286.15,0,0,0,384,672Z"/><rect class="a" width="768" height="768" transform="translate(768) rotate(90)"/></svg>