<svg xmlns="http://www.w3.org/2000/svg" width="768" height="768" viewBox="0 0 768 768"><defs><style>.a{opacity:0;}</style></defs><title>arrow-right-circle</title><path d="M530.4,384a32,32,0,0,1-11.51,24.58l-178.8,149a32,32,0,0,1-41-49.16L448.42,384,299.11,259.58a32,32,0,0,1,41-49.16l178.8,149A32,32,0,0,1,530.4,384ZM736,384A352.09,352.09,0,0,1,59.67,521,352.09,352.09,0,0,1,708.33,247,349.83,349.83,0,0,1,736,384Zm-64,0a288,288,0,1,0-84.35,203.65A286.15,286.15,0,0,0,672,384Z"/><rect class="a" width="768" height="768"/></svg>