<svg xmlns="http://www.w3.org/2000/svg" width="768" height="768" viewBox="0 0 768 768"><defs><style>.a{opacity:0;}</style></defs><title>fast-up</title><path d="M32,416a32,32,0,0,0,54.63,22.63L384,141.25,681.37,438.63a32,32,0,0,0,45.26-45.26l-320-320a32,32,0,0,0-45.26,0l-320,320A31.9,31.9,0,0,0,32,416Zm9.37,233.37,320-320a32,32,0,0,1,45.26,0l320,320a32,32,0,0,1-45.26,45.26L384,397.25,86.63,694.63a32,32,0,0,1-45.26-45.26Z"/><rect class="a" width="768" height="768" transform="translate(768) rotate(90)"/></svg>