<svg version="1.1" xmlns="http://www.w3.org/2000/svg" width="32" height="32" viewBox="0 0 32 32">
<title>entityleaf</title>
<path d="M27.57 10.403c-0.277-0.67-1.038-0.996-1.714-0.734-0.125 0.048-2.684 1.049-5.359 2.825-0.617-0.923-1.309-1.795-2.067-2.606-1.319-1.422-2.94-2.828-4.817-4.18-3.172-2.282-5.97-3.615-6.088-3.671-0.33-0.156-0.709-0.17-1.049-0.039s-0.612 0.395-0.752 0.732c-0.051 0.125-1.267 3.063-2.154 6.968-0.525 2.312-0.824 4.484-0.889 6.456-0.084 2.533 0.22 4.756 0.903 6.609 1.271 3.449 4.233 5.91 8.566 7.118 2.576 0.718 4.899 0.792 5.72 0.792 0.182 0 0.292-0.003 0.311-0.004h0.043c0.121-0 0.241-0.017 0.357-0.050 1.345-0.243 2.663-0.618 3.935-1.118 1.292-0.511 2.417-1.125 3.353-1.82 1.231-0.917 2.135-1.989 2.684-3.183 2.523-5.481-0.838-13.745-0.982-14.095zM6.083 21.84c-1.993-5.407 0.458-13.523 1.589-16.72 1.515 0.829 2.979 1.749 4.383 2.755 3.853 2.771 6.431 5.705 7.455 8.484 1.003 2.724 0.923 5.564-0.24 8.447-0.302 0.745-0.664 1.465-1.083 2.151-1.368-2.075-3.605-5.875-4.2-9.355-0.124-0.726-0.814-1.214-1.54-1.089s-1.214 0.814-1.089 1.54c0.625 3.654 2.729 7.453 4.225 9.797-3.020-0.377-7.896-1.663-9.5-6.010zM26.128 23.382c-0.836 1.826-2.935 2.975-4.545 3.618-0.157 0.063-0.312 0.122-0.466 0.178 0.201-0.394 0.4-0.82 0.587-1.277 0.633-1.542 1.013-3.117 1.128-4.68 0.145-1.965-0.134-3.937-0.82-5.784v0c-0.073-0.197-0.151-0.393-0.235-0.59 1.407-0.954 2.82-1.683 3.792-2.141 0.336 1.019 0.613 2.057 0.831 3.107 0.451 2.204 0.771 5.306-0.27 7.568l-0.002 0.001z"></path>
</svg>
