<svg xmlns="http://www.w3.org/2000/svg" width="768" height="768" viewBox="0 0 768 768"><defs><style>.a{opacity:0;}</style></defs><title>screenboard</title><path d="M704,96H416V64a32,32,0,0,0-64,0V96H63a32,32,0,0,0,0,64V544a32,32,0,0,0,32,32H262.78l-66.3,111.66a32,32,0,0,0,55,32.68L337.22,576h92.66l86.68,144.46a32,32,0,1,0,54.88-32.92L504.52,576H672a32,32,0,0,0,32-32V160a32,32,0,0,0,0-64ZM640,512H127V160H640ZM256,224H512a32,32,0,0,1,0,64H256a32,32,0,0,1,0-64ZM448,384a32,32,0,0,1-32,32H256a32,32,0,0,1,0-64H416A32,32,0,0,1,448,384Z"/><rect class="a" width="768" height="768"/></svg>