<svg xmlns="http://www.w3.org/2000/svg" width="768" height="768" viewBox="0 0 768 768"><defs><style>.a{opacity:0;}</style></defs><title>printer</title><path d="M704,192H608V96a32,32,0,0,0-32-32H192a32,32,0,0,0-32,32v96H64a32,32,0,0,0-32,32V576a32,32,0,0,0,32,32h96v64a32,32,0,0,0,32,32H576a32,32,0,0,0,32-32V608h96a32,32,0,0,0,32-32V224A32,32,0,0,0,704,192ZM224,128H544v64H224ZM544,640H224V512H544Zm128-96H608V480a32,32,0,0,0-32-32H192a32,32,0,0,0-32,32v64H96V256H672ZM576,352a32,32,0,0,1-32,32H480a32,32,0,0,1,0-64h64A32,32,0,0,1,576,352Z"/><rect class="a" width="768" height="768"/></svg>