<!-- Generated by IcoMoon.io -->
<svg version="1.1" xmlns="http://www.w3.org/2000/svg" width="32" height="32" viewBox="0 0 32 32">
<title>entitystairs</title>
<path d="M28 28h-25.333c-0.736 0-1.333-0.597-1.333-1.333v-5.333c0-0.736 0.597-1.333 1.333-1.333h4v-4c0-0.736 0.597-1.333 1.333-1.333h5.333v-4c0-0.736 0.597-1.333 1.333-1.333h5.333v-4c0-0.736 0.597-1.333 1.333-1.333h6.667c0.736 0 1.333 0.597 1.333 1.333v21.333c0 0.736-0.597 1.333-1.333 1.333zM4 25.333h22.667v-18.667h-4v4c0 0.736-0.597 1.333-1.333 1.333h-5.333v4c0 0.736-0.597 1.333-1.333 1.333h-5.333v4c0 0.736-0.597 1.333-1.333 1.333h-4v2.667z"></path>
</svg>
