<svg xmlns="http://www.w3.org/2000/svg" width="768" height="768" viewBox="0 0 768 768"><defs><style>.a{opacity:0;}</style></defs><title>medal</title><path d="M702.07,627.54,606,363.55a240,240,0,1,0-444,0l-96.08,264a32,32,0,0,0,43.59,39.94l94.05-43.85,43.85,94a32,32,0,0,0,29,18.48l1.41,0a32,32,0,0,0,28.67-21L380.43,512c1.19,0,2.38,0,3.57,0s2.38,0,3.57,0l73.94,203.13a32,32,0,0,0,28.67,21l1.41,0a32,32,0,0,0,29-18.48l43.85-94,94.05,43.85a32,32,0,0,0,43.59-39.94ZM384,96C481.05,96,560,175,560,272S481.05,448,384,448,208,369.05,208,272,287,96,384,96ZM272.77,620.61l-24.72-53a32,32,0,0,0-42.53-15.48l-53,24.73,52.69-144.76q4.41,4.92,9.11,9.64a238.91,238.91,0,0,0,101.57,60.52ZM562.48,552.1A32,32,0,0,0,520,567.58l-24.72,53L452.14,502.23a238.91,238.91,0,0,0,101.57-60.52q4.71-4.71,9.11-9.64l52.69,144.76ZM480,288a32,32,0,0,1-32-32,64.07,64.07,0,0,0-64-64,32,32,0,0,1,0-64A128.14,128.14,0,0,1,512,256,32,32,0,0,1,480,288Z"/><rect class="a" width="768" height="768"/></svg>