<svg xmlns="http://www.w3.org/2000/svg" width="768" height="768" viewBox="0 0 768 768"><defs><style>.a{opacity:0;}</style></defs><title>edit-pencil</title><path d="M95.79,704.21a32,32,0,0,1-32-32L64,512a32,32,0,0,1,9.37-22.59l352.71-352.7a32,32,0,0,1,45.25,0l160,160a32,32,0,0,1,0,45.25L278.63,694.63A32,32,0,0,1,256,704l-160.21.21ZM128,525.27l-.15,114.9,114.9-.15L563.45,319.29,448.71,204.55ZM726.84,246.41a32,32,0,0,0,0-45.25l-160-160a32,32,0,0,0-45.25,45.25l160,160a32,32,0,0,0,45.25,0Z"/><rect class="a" width="768" height="768"/></svg>