<svg xmlns="http://www.w3.org/2000/svg" width="768" height="768" viewBox="0 0 768 768"><defs><style>.a{opacity:0;}</style></defs><title>file-box</title><path d="M703.38,409.72l-64-320A32,32,0,0,0,608,64H159a32,32,0,0,0-31.38,25.72l-64,320a32.06,32.06,0,0,0,.35,14.1L63,671.88A32,32,0,0,0,95,704H672a32,32,0,0,0,32-32V416A32.3,32.3,0,0,0,703.38,409.72ZM185.23,128H581.77L633,384H480a32,32,0,0,0-32,32,64,64,0,0,1-128,0,32,32,0,0,0-32-32H134ZM640,640H127.12l.76-192H260.05A128,128,0,0,0,508,448H640Z"/><rect class="a" width="768" height="768"/></svg>