<svg xmlns="http://www.w3.org/2000/svg" width="768" height="768" viewBox="0 0 768 768"><defs><style>.a{opacity:0;}</style></defs><title>authorization-key</title><path d="M726.63,201.37,669.26,144l25.37-25.37a32,32,0,0,0-45.26-45.26L422.16,300.58a223.92,223.92,0,1,0,45.26,45.26L528,285.26l57.37,57.37a32,32,0,0,0,45.26-45.26L573.26,240,624,189.26l57.37,57.37a32,32,0,0,0,45.26-45.26ZM288,640c-88.22,0-160-71.78-160-160s71.78-160,160-160,160,71.78,160,160S376.22,640,288,640Z"/><rect class="a" width="768" height="768"/></svg>