<svg xmlns="http://www.w3.org/2000/svg" width="768" height="768" viewBox="0 0 768 768"><defs><style>.a{opacity:0;}</style></defs><title>box</title><path d="M701.71,244.12l-64-160A32,32,0,0,0,608,64H160a32,32,0,0,0-29.71,20.12l-64,160A32,32,0,0,0,64,256V672a32,32,0,0,0,32,32H672a32,32,0,0,0,32-32V256A32,32,0,0,0,701.71,244.12Zm-77-20.12H416V128H586.33ZM181.67,128H352v96H143.27ZM128,640V288H640V640ZM576,416a32,32,0,0,1-32,32H416a32,32,0,0,1,0-64H544A32,32,0,0,1,576,416Zm0,128a32,32,0,0,1-32,32H288a32,32,0,0,1,0-64H544A32,32,0,0,1,576,544Z"/><rect class="a" width="768" height="768"/></svg>