<svg version="1.1" xmlns="http://www.w3.org/2000/svg" width="32" height="32" viewBox="0 0 32 32">
<title>entitycellphone</title>
<path d="M26.667 1.333h-21.333c-0.736 0-1.333 0.597-1.333 1.333v26.667c0 0.736 0.597 1.333 1.333 1.333h21.333c0.736 0 1.333-0.597 1.333-1.333v-26.667c0-0.736-0.597-1.333-1.333-1.333zM25.333 28h-18.667v-24h4c0 0.736 0.597 1.333 1.333 1.333h8c0.736 0 1.333-0.597 1.333-1.333h4v24zM21.333 24c0 0.736-0.597 1.333-1.333 1.333h-8c-0.736 0-1.333-0.597-1.333-1.333s0.597-1.333 1.333-1.333h8c0.736 0 1.333 0.597 1.333 1.333z"></path>
</svg>
