<svg xmlns="http://www.w3.org/2000/svg" width="768" height="768" viewBox="0 0 768 768"><defs><style>.a{opacity:0;}</style></defs><title>paper-plane</title><path d="M288,704a32,32,0,0,1-32-32V480a32,32,0,0,1,10.29-23.51l160-147.7a32,32,0,0,1,43.42,47L320,494v79l23.23-32.17a32,32,0,0,1,39.57-10.21l200.58,94.39L662.1,152.73,137.3,415.13l75.78,35.66a32,32,0,1,1-27.25,57.91L50.37,445a32,32,0,0,1-.68-57.57l640-320a32,32,0,0,1,45.87,33.88l-96,576A32,32,0,0,1,594.37,701L379.57,599.87l-65.63,90.87A32,32,0,0,1,288,704Z"/><rect class="a" width="768" height="768"/></svg>