<svg version="1.1" xmlns="http://www.w3.org/2000/svg" width="32" height="32" viewBox="0 0 32 32">
<title>entitypc-and-cellphone</title>
<path d="M29.333 10.667h-4v-5.333c0-0.736-0.597-1.333-1.333-1.333h-18.667c-0.736 0-1.333 0.597-1.333 1.333v13.019l-2.526 5.052c-0.093 0.185-0.141 0.389-0.141 0.596v2.667c0 0.736 0.597 1.333 1.333 1.333h14.667c0 0.736 0.597 1.333 1.333 1.333h10.667c0.736 0 1.333-0.597 1.333-1.333v-16c0-0.736-0.597-1.333-1.333-1.333zM6.667 6.667h16v4h-4c-0.736 0-1.333 0.597-1.333 1.333v5.333h-10.667v-10.667zM4 25.333v-1.019l2.158-4.315h11.176v5.333h-13.333zM28 26.667h-7.958c0-0.112-0.014-0.224-0.042-0.333v-13h8v13.333zM25.333 24c0 0.736-0.597 1.333-1.333 1.333s-1.333-0.597-1.333-1.333c0-0.736 0.597-1.333 1.333-1.333s1.333 0.597 1.333 1.333z"></path>
</svg>
