<!-- Generated by IcoMoon.io -->
<svg version="1.1" xmlns="http://www.w3.org/2000/svg" width="32" height="32" viewBox="0 0 32 32">
<title>entitybrush</title>
<path d="M28 10.667h-6.667v-8c0-0.736-0.597-1.333-1.333-1.333h-8c-0.736 0-1.333 0.597-1.333 1.333v8h-6.667c-0.736 0-1.333 0.597-1.333 1.333v6.667c0 0.736 0.597 1.333 1.333 1.333h1.129l-1.116 7.811c-0.055 0.383 0.059 0.77 0.313 1.062s0.621 0.46 1.007 0.46h21.333c0.387 0 0.754-0.168 1.007-0.46s0.367-0.68 0.313-1.062l-1.116-7.811h1.129c0.736 0 1.333-0.597 1.333-1.333v-6.667c0-0.736-0.597-1.333-1.333-1.333zM13.333 4h5.333v6.667h-5.333v-6.667zM5.333 13.333h21.333v4h-21.333v-4zM25.129 26.667h-12.884l0.366-2.159c0.123-0.726-0.366-1.414-1.092-1.538s-1.414 0.366-1.537 1.092l-0.44 2.605h-2.671l0.952-6.667h16.354l0.952 6.667z"></path>
</svg>
