<svg version="1.1" xmlns="http://www.w3.org/2000/svg" width="32" height="32" viewBox="0 0 32 32">
<title>entitylock</title>
<path d="M26.667 12h-2.667v-2.667c0-4.411-3.589-8-8-8s-8 3.589-8 8v2.667h-2.667c-0.736 0-1.333 0.597-1.333 1.333v16c0 0.736 0.597 1.333 1.333 1.333h21.333c0.736 0 1.333-0.597 1.333-1.333v-16c0-0.736-0.597-1.333-1.333-1.333zM10.667 9.333c0-2.946 2.388-5.333 5.333-5.333s5.333 2.388 5.333 5.333v2.667h-10.667v-2.667zM25.333 28h-18.667v-13.333h18.667v13.333zM14.667 24v-5.333c0-0.736 0.597-1.333 1.333-1.333s1.333 0.597 1.333 1.333v5.333c0 0.736-0.597 1.333-1.333 1.333s-1.333-0.597-1.333-1.333z"></path>
</svg>
