<svg version="1.1" xmlns="http://www.w3.org/2000/svg" width="32" height="32" viewBox="0 0 32 32">
<title>entitycity-buildings</title>
<path d="M28 10.667h-4v-8.714c-0-0.492-0.271-0.943-0.704-1.175s-0.96-0.207-1.369 0.066l-8 5.333c-0.371 0.247-0.594 0.663-0.594 1.109v8.714h-2.667v-3.422c-0-0.468-0.246-0.902-0.648-1.143l-5.333-3.245c-0.412-0.247-0.925-0.253-1.343-0.017s-0.676 0.68-0.676 1.16v17.333c0 0.736 0.597 1.333 1.333 1.333h24c0.736 0 1.333-0.597 1.333-1.333v-14.667c0-0.736-0.597-1.333-1.333-1.333zM16 8l5.333-3.555v20.889h-2.667v-8c0-0.736-0.597-1.333-1.333-1.333h-1.333v-8zM5.333 11.688l2.667 1.645v12h-2.667v-13.645zM14.667 25.333h-4v-6.667h5.333v6.667h-1.333zM26.667 25.333h-2.667v-12h2.667v12z"></path>
</svg>
