<svg xmlns="http://www.w3.org/2000/svg" width="768" height="768" viewBox="0 0 768 768"><defs><style>.a{opacity:0;}</style></defs><title>pin</title><path d="M726.63,233.37l-192-192A32,32,0,0,0,491,39.9L240.17,259A223.81,223.81,0,0,0,40.9,320.8a32,32,0,0,0,0,45.26L199.22,524.37,72.86,649.88A32,32,0,1,0,118,695.29L244.47,569.63,402.94,728.1a32,32,0,0,0,45.26,0A223.84,223.84,0,0,0,510,528.75L728.19,277A32,32,0,0,0,726.63,233.37ZM451.1,499a32,32,0,0,0-6.73,29.21,161,161,0,0,1,.33,81.65,159,159,0,0,1-21.41,48L111.06,345.71a159,159,0,0,1,48-21.41,161,161,0,0,1,81.65.33,32,32,0,0,0,29.31-6.81l240.46-210L660.31,257.56Z"/><rect class="a" width="768" height="768"/></svg>