<svg xmlns="http://www.w3.org/2000/svg" width="768" height="768" viewBox="0 0 768 768"><defs><style>.a{opacity:0;}</style></defs><title>bell</title><path d="M608,448V320A224.08,224.08,0,0,0,416,98.26c0-.42,0-.84,0-1.26V64a32,32,0,0,0-64,0V97c0,.42,0,.84,0,1.26A224.08,224.08,0,0,0,160,320V448a96,96,0,0,0,0,192H608a96,96,0,0,0,0-192Zm0,128H160a32,32,0,0,1,0-64h32a32,32,0,0,0,32-32V320c0-88.22,71.78-160,160-160s160,71.78,160,160V480a32,32,0,0,0,32,32h32a32,32,0,0,1,0,64ZM320,672H448a64,64,0,0,1-128,0Z"/><rect class="a" width="768" height="768"/></svg>