<svg version="1.1" xmlns="http://www.w3.org/2000/svg" width="32" height="32" viewBox="0 0 32 32">
<title>entityinfo-card</title>
<path d="M29.333 4h-26.667c-0.736 0-1.333 0.597-1.333 1.333v21.333c0 0.736 0.597 1.333 1.333 1.333h26.667c0.736 0 1.333-0.597 1.333-1.333v-21.333c0-0.736-0.597-1.333-1.333-1.333zM28 25.333h-24v-18.667h24v18.667zM20 16h5.333c0.736 0 1.333-0.597 1.333-1.333v-5.333c0-0.736-0.597-1.333-1.333-1.333h-5.333c-0.736 0-1.333 0.597-1.333 1.333v5.333c0 0.736 0.597 1.333 1.333 1.333zM21.333 10.667h2.667v2.667h-2.667v-2.667zM6.667 16c0-0.736 0.597-1.333 1.333-1.333h6.667c0.736 0 1.333 0.597 1.333 1.333s-0.597 1.333-1.333 1.333h-6.667c-0.736 0-1.333-0.597-1.333-1.333zM6.667 21.333c0-0.736 0.597-1.333 1.333-1.333h12c0.736 0 1.333 0.597 1.333 1.333s-0.597 1.333-1.333 1.333h-12c-0.736 0-1.333-0.597-1.333-1.333z"></path>
</svg>
