<svg version="1.1" xmlns="http://www.w3.org/2000/svg" width="32" height="32" viewBox="0 0 32 32">
<title>entityrouter</title>
<path d="M29.333 16h-2.667v-10.667h-2.667v10.667h-2.667v-10.667h-2.667v10.667h-16c-0.736 0-1.333 0.597-1.333 1.333v9.333c0 0.736 0.597 1.333 1.333 1.333h26.667c0.736 0 1.333-0.597 1.333-1.333v-9.333c0-0.736-0.597-1.333-1.333-1.333zM28 25.333h-24v-6.667h24v6.667zM21.333 4h-2.667v-1.333c0-0.736 0.597-1.333 1.333-1.333s1.333 0.597 1.333 1.333v1.333zM9.167 21.333c0 0.644-0.522 1.167-1.167 1.167s-1.167-0.522-1.167-1.167c0-0.644 0.522-1.167 1.167-1.167s1.167 0.522 1.167 1.167zM13.333 21.333c0 0.472-0.284 0.897-0.72 1.078s-0.938 0.081-1.271-0.253c-0.334-0.334-0.433-0.835-0.253-1.271s0.606-0.72 1.078-0.72c0.644 0 1.167 0.522 1.167 1.167v0zM26.667 4h-2.667v-1.333c0-0.736 0.597-1.333 1.333-1.333s1.333 0.597 1.333 1.333v1.333z"></path>
</svg>
