<svg version="1.1" xmlns="http://www.w3.org/2000/svg" width="32" height="32" viewBox="0 0 32 32">
<title>entitybuilding</title>
<path d="M29.755 16.068l-7.088-2.363v-9.706c0-0.736-0.597-1.333-1.333-1.333h-17.333c-0.736 0-1.333 0.597-1.333 1.333v24c0 0.736 0.597 1.333 1.333 1.333h25.333c0.736 0 1.333-0.597 1.333-1.333v-10.667c0-0.574-0.367-1.084-0.912-1.265zM5.333 5.333h14.667v21.333h-14.667v-21.333zM28 26.667h-5.333v-10.15l5.333 1.777v8.372zM17.333 10.667c0 0.736-0.597 1.333-1.333 1.333h-6.667c-0.736 0-1.333-0.597-1.333-1.333s0.597-1.333 1.333-1.333h6.667c0.736 0 1.333 0.597 1.333 1.333zM17.333 16c0 0.736-0.597 1.333-1.333 1.333h-6.667c-0.736 0-1.333-0.597-1.333-1.333s0.597-1.333 1.333-1.333h6.667c0.736 0 1.333 0.597 1.333 1.333z"></path>
</svg>
