<!-- Generated by IcoMoon.io -->
<svg version="1.1" xmlns="http://www.w3.org/2000/svg" width="32" height="32" viewBox="0 0 32 32">
<title>entityrocket</title>
<path d="M29.292 11.533l-0.030-7.509c-0.003-0.732-0.596-1.325-1.328-1.328l-7.514-0.030c-0.354 0-0.693 0.14-0.943 0.39l-6.474 6.475c-3.121-2.205-7.479-1.912-10.27 0.879-0.25 0.25-0.391 0.589-0.391 0.943s0.141 0.693 0.391 0.943l4.714 4.714c0.029 0.029 0.058 0.056 0.089 0.081l7.372 7.372c0.026 0.031 0.053 0.060 0.081 0.089l4.714 4.714c0.25 0.25 0.589 0.391 0.943 0.391s0.693-0.141 0.943-0.391c2.806-2.806 3.087-7.195 0.845-10.319l6.468-6.467c0.251-0.252 0.392-0.593 0.39-0.948zM11.075 11.458l-2.704 2.704-2.69-2.69c1.664-0.976 3.725-0.981 5.395-0.013zM20.527 26.32l-2.708-2.708 2.708-2.708c0.981 1.672 0.981 3.744 0 5.417zM15.913 21.698l-5.634-5.634 3.768-3.767c0.062-0.063 0.118-0.132 0.167-0.206l6.757-6.755 5.631 0.022 0.024 5.631zM22.532 9.468c0.429 0.429 0.557 1.074 0.325 1.635s-0.779 0.926-1.386 0.926-1.154-0.365-1.386-0.926c-0.232-0.561-0.104-1.206 0.325-1.635 0.586-0.586 1.535-0.586 2.121 0zM3.676 22.115c-0.539-0-1.025-0.325-1.232-0.823s-0.092-1.071 0.289-1.453l1.885-1.886c0.521-0.521 1.365-0.521 1.886 0s0.521 1.365 0 1.886l-1.886 1.885c-0.25 0.25-0.589 0.391-0.942 0.39zM10.275 23.61l-3.958 3.958c-0.337 0.337-0.828 0.468-1.288 0.345s-0.82-0.483-0.943-0.943c-0.123-0.46 0.008-0.951 0.345-1.288l3.958-3.958c0.521-0.521 1.365-0.521 1.886 0s0.521 1.365 0 1.886zM14.047 25.496c0.25 0.25 0.391 0.589 0.391 0.943s-0.141 0.693-0.391 0.943l-1.886 1.885c-0.523 0.508-1.356 0.502-1.872-0.014s-0.521-1.349-0.014-1.872l1.885-1.886c0.25-0.25 0.589-0.391 0.943-0.391s0.693 0.141 0.943 0.391z"></path>
</svg>
