<svg xmlns="http://www.w3.org/2000/svg" width="768" height="768" viewBox="0 0 768 768"><defs><style>.a{opacity:0;}</style></defs><title>letter-up</title><path d="M256,192a32,32,0,0,0,0,64H512a32,32,0,0,0,0-64ZM694.63,566.63a32,32,0,0,1-45.26,0L608,525.26V704a32,32,0,0,1-64,0V525.26l-41.37,41.37a32,32,0,0,1-45.26-45.26l96-96a32,32,0,0,1,45.26,0l96,96A32,32,0,0,1,694.63,566.63ZM384,672H160V96H608V320a32,32,0,0,0,64,0V64a32,32,0,0,0-32-32H128A32,32,0,0,0,96,64V704a32,32,0,0,0,32,32H384a32,32,0,0,0,0-64ZM256,352a32,32,0,0,0,0,64H448a32,32,0,0,0,0-64Z"/><rect class="a" width="768" height="768"/></svg>