<svg xmlns="http://www.w3.org/2000/svg" width="768" height="768" viewBox="0 0 768 768"><defs><style>.a{opacity:0;}</style></defs><title>file-other</title><path d="M672,254.29c-.49-4.42-1-10.93-7.37-18.78l-160-192c-5.31-6.18-14-11.65-24.58-11.51H128A32,32,0,0,0,96,64V704a32,32,0,0,0,32,32H640a32,32,0,0,0,32-32V256C672,255.43,672,254.86,672,254.29ZM512,152.39,571.68,224H512ZM608,672H160V96H448V256a32,32,0,0,0,32,32H608ZM448.26,352.41q4.68,12.42,4.68,31.14a123.75,123.75,0,0,1-1.62,21.6,58.2,58.2,0,0,1-5.4,16.38,54,54,0,0,1-10.08,13.68,147.86,147.86,0,0,1-15.3,13.14,162.07,162.07,0,0,0-13.32,10.8,70.09,70.09,0,0,0-7.92,8.46,23,23,0,0,0-4,7.56,30.82,30.82,0,0,0-1.08,8.46v8.28H350.34v-16.2a70.87,70.87,0,0,1,1.26-13.86,41,41,0,0,1,4.5-12.06,60.72,60.72,0,0,1,8.64-11.52,180.86,180.86,0,0,1,13.32-12.6A100.83,100.83,0,0,0,387.6,417a40.19,40.19,0,0,0,5.94-7.74,24.22,24.22,0,0,0,2.88-8.1,61.94,61.94,0,0,0,.72-10.08,40.6,40.6,0,0,0-1.8-13.32,15.32,15.32,0,0,0-6.3-7.92,30.21,30.21,0,0,0-11.88-4A128.54,128.54,0,0,0,359,364.83a166.6,166.6,0,0,0-22.86,1.62,135.8,135.8,0,0,0-21.06,4.5V326.31a168.36,168.36,0,0,1,24.12-4.68,240.18,240.18,0,0,1,30.24-1.8,215.44,215.44,0,0,1,37.8,2.88q15.84,2.9,26.1,10.08A41,41,0,0,1,448.26,352.41ZM402,530.61a76.07,76.07,0,0,1,1.26,15.3A78.28,78.28,0,0,1,402,561.57a17.89,17.89,0,0,1-4.5,9.18,16.88,16.88,0,0,1-9.18,4.32,114.07,114.07,0,0,1-31.32,0,17.91,17.91,0,0,1-9.36-4.32,16.23,16.23,0,0,1-4.5-9.18,91,91,0,0,1-1.08-15.66,88.43,88.43,0,0,1,1.08-15.3,16.23,16.23,0,0,1,4.5-9.18,17.91,17.91,0,0,1,9.36-4.32,114.07,114.07,0,0,1,31.32,0,16.88,16.88,0,0,1,9.18,4.32A17.89,17.89,0,0,1,402,530.61Z"/><rect class="a" width="768" height="768"/></svg>