<svg version="1.1" xmlns="http://www.w3.org/2000/svg" width="32" height="32" viewBox="0 0 32 32">
<path fill="#4285f4" d="M27.691 9.813l-6.667-8c-0.221-0.258-0.583-0.486-1.024-0.48h-14c-1.105 0-2 0.895-2 2v0 25.333c0 1.105 0.895 2 2 2v0h20c1.105 0 2-0.895 2-2v0-18c0-0.042-0.067-0.556-0.309-0.853z"></path>
<path fill="#8fc1f7" d="M21.024 1.813c-0.221-0.258-0.583-0.486-1.024-0.48v7.333c0 1.105 0.895 2 2 2v0h6c0-0.042-0.067-0.555-0.309-0.853z"></path>
<path fill="#fff" d="M20.909 13.8l-1.583 6.912c-0.020 0.085-0.095 0.148-0.185 0.148s-0.165-0.063-0.184-0.146l-0-0.001-1.581-6.912c-0.067-0.283-0.317-0.491-0.616-0.491h-1.519c-0.299 0-0.549 0.208-0.614 0.487l-0.001 0.004-1.583 6.912c-0.020 0.085-0.095 0.148-0.185 0.148s-0.165-0.063-0.184-0.146l-0-0.001-1.583-6.912c-0.067-0.283-0.317-0.491-0.616-0.491h-1.029c-0.174 0-0.316 0.141-0.316 0.316 0 0.024 0.003 0.048 0.008 0.070l-0-0.002 2.331 10.49c0.065 0.285 0.316 0.495 0.616 0.495h1.545c0 0 0 0 0 0 0.3 0 0.551-0.21 0.615-0.49l0.001-0.004 1.57-7.058c0.020-0.085 0.095-0.148 0.185-0.148s0.165 0.063 0.185 0.147l0 0.001 1.568 7.057c0.065 0.285 0.316 0.495 0.616 0.495h1.547c0.3 0 0.551-0.21 0.615-0.49l0.001-0.004 2.333-10.49c0.005-0.021 0.007-0.044 0.007-0.068 0-0.174-0.141-0.316-0.316-0.316h-1.029c-0.001 0-0.002 0-0.004 0-0.299 0-0.55 0.208-0.615 0.487l-0.001 0.004z"></path>
</svg>
