<svg xmlns="http://www.w3.org/2000/svg" width="768" height="768" viewBox="0 0 768 768"><defs><style>.a{opacity:0;}</style></defs><title>approve</title><path d="M256,192a32,32,0,0,0,0,64H512a32,32,0,0,0,0-64Zm97,480H160V96H608V320a32,32,0,0,0,64,0V64a32,32,0,0,0-32-32H128A32,32,0,0,0,96,64V704a32,32,0,0,0,32,32H353a32,32,0,0,0,0-64ZM256,352a32,32,0,0,0,0,64H416a32,32,0,0,0,0-64ZM613.39,642.7,608,640V602.51a96.15,96.15,0,0,0,64-93c-1.27-50.35-41.84-91.5-92.17-93.46A96,96,0,0,0,544,602.51V640l-5.39,2.7c-23.23,11.61-47.15,21.7-71.07,31.81A32,32,0,0,0,448,704h0a32,32,0,0,0,32,32H672a32,32,0,0,0,32-32h0a32,32,0,0,0-19.54-29.49C660.54,664.4,636.62,654.31,613.39,642.7ZM576,480a32,32,0,1,1-32,32A32,32,0,0,1,576,480Z"/><rect class="a" width="768" height="768"/></svg>