<svg xmlns="http://www.w3.org/2000/svg" width="768" height="768" viewBox="0 0 768 768"><defs><style>.a{opacity:0;}</style></defs><title>doc-hourglass</title><path d="M256,192a32,32,0,0,0,0,64H512a32,32,0,0,0,0-64Zm97,480H160V96H608V320a32,32,0,0,0,64,0V64a32,32,0,0,0-32-32H128A32,32,0,0,0,96,64V704a32,32,0,0,0,32,32H353a32,32,0,0,0,0-64ZM256,352a32,32,0,0,0,0,64H384a32,32,0,0,0,0-64ZM704,480V448a32,32,0,0,0-32-32H480a32,32,0,0,0-32,32v32a127.71,127.71,0,0,0,43.44,96A127.71,127.71,0,0,0,448,672v32a32,32,0,0,0,32,32H672a32,32,0,0,0,32-32V672a127.71,127.71,0,0,0-43.44-96A127.71,127.71,0,0,0,704,480ZM640,672H512a63.93,63.93,0,0,1,26.06-51.51A53.76,53.76,0,0,0,560,577.28v-2.56a53.76,53.76,0,0,0-21.94-43.21A63.93,63.93,0,0,1,512,480H640a63.93,63.93,0,0,1-26.06,51.51A53.76,53.76,0,0,0,592,574.72v2.56a53.76,53.76,0,0,0,21.94,43.21A63.93,63.93,0,0,1,640,672Z"/><rect class="a" width="768" height="768"/></svg>