<svg xmlns="http://www.w3.org/2000/svg" width="768" height="768" viewBox="0 0 768 768"><defs><style>.a{opacity:0;}</style></defs><title>file-email</title><path d="M671,254.29c-.49-4.42-1-10.93-7.37-18.78l-160-192c-5.31-6.18-14-11.65-24.58-11.51H127A32,32,0,0,0,95,64V704a32,32,0,0,0,32,32H639a32,32,0,0,0,32-32V256C671,255.43,671,254.86,671,254.29ZM511,152.39,570.68,224H511ZM607,672H159V96H447V256a32,32,0,0,0,32,32H607ZM288.61,515.41a32.1,32.1,0,0,0-14.25-8.65q-8.94-2.85-22.61-2.85A98.06,98.06,0,0,0,229,506.29a39.36,39.36,0,0,0-16.91,8.36q-6.93,6-10.54,16.34T198,557.11q0,15.78,3.61,26.13t10.35,16.34a38,38,0,0,0,16.34,8.36A91,91,0,0,0,250,610.31a127.85,127.85,0,0,0,26.69-2.47q11.5-2.46,16.25-5.7v-26.6a34.26,34.26,0,0,1-6.18,2.66,77.71,77.71,0,0,1-8.74,2.38q-4.85,1-10.26,1.71a87.07,87.07,0,0,1-10.54.66q-9.88,0-15.87-2.94a13.51,13.51,0,0,1-7.5-9.6l63.08-3.8a33.2,33.2,0,0,0,.76-5.51q.38-4.36.38-10.64A89.22,89.22,0,0,0,296,529.94,32.19,32.19,0,0,0,288.61,515.41ZM233.7,545.9q.57-9.49,4.84-12.54t13.4-3q8.55,0,11.4,3.61a14.91,14.91,0,0,1,2.85,9.5ZM473.29,524a64.54,64.54,0,0,1,2.28,18.52v65.93h-36.1V547.23a32.05,32.05,0,0,0-.76-7.69,9.65,9.65,0,0,0-2.28-4.47,8.06,8.06,0,0,0-3.9-2.09,24.2,24.2,0,0,0-5.6-.57q-7.41,0-10.26,3.14a16.76,16.76,0,0,0-3.8,8.64v64.22h-36.1V547.23a28.31,28.31,0,0,0-.86-7.69,9.7,9.7,0,0,0-2.47-4.47,8.6,8.6,0,0,0-4-2.09,23.27,23.27,0,0,0-5.41-.57q-7,0-9.5,2.57a12.67,12.67,0,0,0-3.23,6.74v66.69h-36.1V505.81h36.1v10.45a27.54,27.54,0,0,1,4.08-4.94,22.13,22.13,0,0,1,5.7-3.89,34.15,34.15,0,0,1,7.89-2.57,54,54,0,0,1,10.83-.95q11,0,17.95,2.95a22,22,0,0,1,10.74,9.59,24,24,0,0,1,11.59-9.31q7.79-3.22,20.52-3.23a53.85,53.85,0,0,1,14.91,1.9,25.74,25.74,0,0,1,11,6.27A27.37,27.37,0,0,1,473.29,524Zm25.27,68.68A52.45,52.45,0,0,1,497,579.15V464h36.1V570.6q0,6.46,1.71,8.74c1.14,1.52,3.16,2.28,6.08,2.28h1.71a10.11,10.11,0,0,0,2.28-.38v27.17a71.07,71.07,0,0,1-12.73,1.14,70.33,70.33,0,0,1-17.48-1.8A23.74,23.74,0,0,1,504,602.14,20.27,20.27,0,0,1,498.56,592.64Z"/><rect class="a" width="768" height="768"/></svg>