<svg xmlns="http://www.w3.org/2000/svg" width="768" height="768" viewBox="0 0 768 768"><defs><style>.a{opacity:0;}</style></defs><title>方形cny</title><path d="M352,416V352H256a32,32,0,0,1,0-64h19.6l-18-53.88a32,32,0,0,1,60.72-20.24L343.06,288h81.88l24.7-74.12a32,32,0,0,1,60.72,20.24L492.4,288H512a32,32,0,0,1,0,64H416v64h96a32,32,0,0,1,0,64H416v64a32,32,0,0,1-64,0V480H256a32,32,0,0,1,0-64ZM672,64V704a32,32,0,0,1-32,32H128a32,32,0,0,1-32-32V64a32,32,0,0,1,32-32H640A32,32,0,0,1,672,64ZM608,96H160V672H608Z"/><rect class="a" width="768" height="768"/></svg>