<svg version="1.1" xmlns="http://www.w3.org/2000/svg" width="32" height="32" viewBox="0 0 32 32">
<path fill="#1d93eb" d="M27.695 9.81l-6.667-8c-0.221-0.258-0.583-0.486-1.024-0.48h-14c-1.105 0-2 0.895-2 2v0 25.333c0 1.105 0.895 2 2 2v0h20c1.105 0 2-0.895 2-2v0-18c0-0.041-0.067-0.556-0.309-0.853z"></path>
<path fill="#79c7f2" d="M21.028 1.81c-0.221-0.258-0.583-0.486-1.024-0.48v7.333c0 1.105 0.895 2 2 2v0h6c0-0.042-0.067-0.555-0.309-0.853z"></path>
<path fill="#fff" d="M16 26.215c-3.506 0-5.684-2.542-5.684-6.632s2.178-6.631 5.684-6.631 5.684 2.542 5.684 6.631-2.178 6.632-5.684 6.632zM16 14.953c-3.206 0-3.685 2.901-3.685 4.63s0.479 4.63 3.685 4.63 3.685-2.901 3.685-4.63-0.477-4.63-3.685-4.63z"></path>
</svg>
