<svg xmlns="http://www.w3.org/2000/svg" width="768" height="768" viewBox="0 0 768 768"><defs><style>.a{opacity:0;}</style></defs><title>file-sync</title><path d="M416,704a32,32,0,0,1-32,32H128a32,32,0,0,1-32-32V64a32,32,0,0,1,32-32H640a32,32,0,0,1,32,32V320a32,32,0,0,1-64,0V96H160V672H384A32,32,0,0,1,416,704ZM256,192a32,32,0,0,0,0,64H512a32,32,0,0,0,0-64ZM384,352H256a32,32,0,0,0,0,64H384a32,32,0,0,0,0-64ZM540.62,529.69a32,32,0,0,0-37.13-16.55A96,96,0,0,1,624,492.83,32,32,0,1,0,656,437.44,160,160,0,0,0,576,416c-88.22,0-160,71.78-160,160a32,32,0,0,0,46.31,28.62l64-32A32,32,0,0,0,540.62,529.69Zm180,19a32,32,0,0,0-31.32-1.11l-64,33a32,32,0,0,0,22,59.59,96,96,0,0,1-119.34,19A32,32,0,1,0,496,714.56,160,160,0,0,0,576,736c88.22,0,160-71.78,160-160A32,32,0,0,0,720.65,548.67Z"/><rect class="a" width="768" height="768"/></svg>