<!-- Generated by IcoMoon.io -->
<svg version="1.1" xmlns="http://www.w3.org/2000/svg" width="32" height="32" viewBox="0 0 32 32">
<path fill="#26a358" d="M27.691 9.813l-6.667-8c-0.221-0.258-0.583-0.486-1.024-0.48h-14c-1.105 0-2 0.895-2 2v0 25.333c0 1.105 0.895 2 2 2v0h20c1.105 0 2-0.895 2-2v0-18c0-0.042-0.067-0.556-0.309-0.853z"></path>
<path fill="#85c98c" d="M21.024 1.813c-0.221-0.258-0.583-0.486-1.024-0.48v7.333c0 1.105 0.895 2 2 2v0h6c0-0.042-0.067-0.555-0.309-0.853z"></path>
<path fill="#fff" d="M20.852 13.309h-1.581c-0 0-0 0-0 0-0.207 0-0.391 0.1-0.506 0.254l-0.001 0.002-2.52 3.398c-0.058 0.078-0.15 0.128-0.254 0.128-0.071 0-0.136-0.023-0.189-0.063l0.001 0.001c-0.025-0.019-0.046-0.040-0.064-0.065l-0.001-0.001-2.531-3.399c-0.116-0.155-0.3-0.254-0.506-0.255h-1.55c-0.174 0-0.316 0.141-0.316 0.316 0 0.071 0.023 0.136 0.063 0.189l-0.001-0.001 3.703 4.992c0.038 0.052 0.061 0.117 0.061 0.188s-0.023 0.136-0.062 0.188l0.001-0.001-3.703 4.993c-0.039 0.052-0.062 0.117-0.062 0.188 0 0.174 0.141 0.316 0.316 0.316h1.581c0 0 0 0 0 0 0.207 0 0.391-0.1 0.506-0.254l0.001-0.002 2.51-3.384c0.058-0.078 0.15-0.128 0.254-0.128 0.071 0 0.136 0.023 0.189 0.063l-0.001-0.001c0.025 0.019 0.047 0.041 0.065 0.065l0.001 0.001 2.51 3.384c0.116 0.156 0.3 0.255 0.507 0.255 0 0 0 0 0 0h1.58c0.174-0 0.316-0.141 0.316-0.316 0-0.071-0.023-0.136-0.063-0.189l0.001 0.001-3.708-4.981c-0.039-0.052-0.062-0.117-0.062-0.188s0.023-0.136 0.062-0.188l-0.001 0.001 3.708-5.003c0.039-0.052 0.062-0.117 0.062-0.188 0-0.174-0.141-0.316-0.316-0.316v0z"></path>
</svg>
