<svg xmlns="http://www.w3.org/2000/svg" width="768" height="768" viewBox="0 0 768 768"><defs><style>.a{opacity:0;}</style></defs><title>letter-send</title><path d="M544,224a32,32,0,0,0-32-32H256a32,32,0,0,0,0,64H512A32,32,0,0,0,544,224ZM480,704a32,32,0,0,1-32,32H128a32,32,0,0,1-32-32V64a32,32,0,0,1,32-32H640a32,32,0,0,1,32,32V320a32,32,0,0,1-64,0V96H160V672H448A32,32,0,0,1,480,704ZM448,352a32,32,0,0,1,0,64H256a32,32,0,0,1,0-64Zm278.63,73.37A32,32,0,0,0,692.76,418l-256,96a32,32,0,0,0-1.8,59.18l100.67,44.95,43,98.63A32,32,0,0,0,608,736h.84A32,32,0,0,0,638,715.24l96-256A32,32,0,0,0,726.63,425.37ZM605.76,618.85,589.33,581.2A32,32,0,0,0,573,564.78l-40.77-18.2,117.05-43.9Z"/><rect class="a" width="768" height="768"/></svg>