<svg xmlns="http://www.w3.org/2000/svg" width="768" height="768" viewBox="0 0 768 768"><defs><style>.a{opacity:0;}</style></defs><title>file-reject</title><path d="M352,704a32,32,0,0,1-32,32H128a32,32,0,0,1-32-32V64a32,32,0,0,1,32-32H640a32,32,0,0,1,32,32V320a32,32,0,0,1-64,0V96H160V672H320A32,32,0,0,1,352,704ZM256,192a32,32,0,0,0,0,64H512a32,32,0,0,0,0-64ZM384,352H256a32,32,0,0,0,0,64H384a32,32,0,0,0,0-64ZM608,480H544V448a16,16,0,0,0-24.88-13.31l-96,64a16,16,0,0,0,0,26.62l96,64A16,16,0,0,0,544,576V544h64a64,64,0,0,1,0,128H448a32,32,0,0,0,0,64H608a128,128,0,0,0,0-256Z"/><rect class="a" width="768" height="768"/></svg>