<svg xmlns="http://www.w3.org/2000/svg" width="768" height="768" viewBox="0 0 768 768"><defs><style>.a{opacity:0;}</style></defs><title>file-compressed</title><path d="M672,254.29c-.49-4.42-1-10.93-7.37-18.78l-160-192c-5.31-6.18-14-11.65-24.58-11.51H128A32,32,0,0,0,96,64V704a32,32,0,0,0,32,32H640a32,32,0,0,0,32-32V256C672,255.43,672,254.86,672,254.29ZM512,152.39,571.68,224H512ZM608,672H160V96h64v64h64V96H448V256a32,32,0,0,0,32,32H608ZM288,224V160h64v64Zm-64,0h64v64H224Zm64,128V288h64v64ZM224,480a32,32,0,0,0,32,32h64a32,32,0,0,0,32-32V384H288V352H224Zm96,0H256V448h64Z"/><rect class="a" width="768" height="768"/></svg>