<svg xmlns="http://www.w3.org/2000/svg" width="768" height="768" viewBox="0 0 768 768"><defs><style>.a{opacity:0;}</style></defs><title>file-excel</title><path d="M672,254.29c-.49-4.42-1-10.93-7.37-18.78l-160-192c-5.31-6.18-14-11.65-24.58-11.51H128A32,32,0,0,0,96,64V704a32,32,0,0,0,32,32H640a32,32,0,0,0,32-32V256C672,255.43,672,254.86,672,254.29ZM512,152.39,571.68,224H512ZM608,672H160V96H448V256a32,32,0,0,0,32,32H608ZM499.38,326.15l-74.52,120.6L501.9,576H436.74l-51.12-93.6h-2.16l-54,93.6H266.1l78.48-127.08L271.5,326.15h63.72l49,89.28h2.16l50-89.28Z"/><rect class="a" width="768" height="768"/></svg>