<svg version="1.1" xmlns="http://www.w3.org/2000/svg" width="32" height="32" viewBox="0 0 32 32">
<path fill="#59acff" d="M27.685 9.813l-6.667-8c-0.221-0.258-0.583-0.486-1.024-0.48h-14c-1.105 0-2 0.895-2 2v0 25.333c0 1.105 0.895 2 2 2v0h20c1.105 0 2-0.895 2-2v0-18c0-0.042-0.067-0.556-0.309-0.853z"></path>
<path fill="#9cd7ff" d="M21.018 1.813c-0.221-0.258-0.583-0.486-1.024-0.48v7.333c0 1.105 0.895 2 2 2v0h6c0-0.042-0.067-0.555-0.309-0.853z"></path>
<path fill="#fff" d="M18.257 14.856l-3.692 4.456-1.652-1.994c-0.106-0.131-0.266-0.213-0.446-0.213-0.215 0-0.402 0.119-0.5 0.294l-0.002 0.003-3.873 6.667c-0.242 0.417 0.042 0.952 0.503 0.952h15.299c0.458 0 0.743-0.53 0.506-0.947l-5.191-9.127c-0.099-0.182-0.288-0.303-0.505-0.303-0.18 0-0.34 0.083-0.445 0.212l-0.001 0.001zM15.007 22.038l3.475-4.193 2.859 5.025h-10.167l1.5-2.579 1.448 1.747c0.105 0.13 0.265 0.212 0.443 0.212s0.338-0.082 0.443-0.211l0.001-0.001z"></path>
<path fill="#fff" d="M13.523 13.487c0 0.87-0.667 1.575-1.489 1.575s-1.489-0.705-1.489-1.575c0-0.87 0.667-1.575 1.489-1.575s1.489 0.705 1.489 1.575z"></path>
</svg>
