<svg xmlns="http://www.w3.org/2000/svg" width="768" height="768" viewBox="0 0 768 768"><defs><style>.a{opacity:0;}</style></defs><title>file-user</title><path d="M256,192a32,32,0,0,0,0,64H512a32,32,0,0,0,0-64Zm64,480H160V96H608V320a32,32,0,0,0,64,0V64a32,32,0,0,0-32-32H128A32,32,0,0,0,96,64V704a32,32,0,0,0,32,32H320a32,32,0,0,0,0-64ZM256,352a32,32,0,0,0,0,64H416a32,32,0,0,0,0-64ZM729.6,684.78a193.63,193.63,0,0,0-66.35-55.85,189.58,189.58,0,0,0-22.41-9.65,112,112,0,1,0-129.68,0,189.58,189.58,0,0,0-22.41,9.65,193.63,193.63,0,0,0-66.35,55.85,32,32,0,1,0,51.17,38.44,128,128,0,0,1,204.86,0,32,32,0,1,0,51.17-38.44ZM576,480a48,48,0,1,1-48,48A48.05,48.05,0,0,1,576,480Z"/><rect class="a" width="768" height="768"/></svg>