<svg version="1.1" xmlns="http://www.w3.org/2000/svg" width="32" height="32" viewBox="0 0 32 32">
<path fill="#989994" d="M27.685 9.813l-6.667-8c-0.221-0.258-0.583-0.486-1.024-0.48h-14c-1.105 0-2 0.895-2 2v0 25.333c0 1.105 0.895 2 2 2v0h20c1.105 0 2-0.895 2-2v0-18c0-0.042-0.067-0.556-0.309-0.853z"></path>
<path fill="#c1c2bf" d="M21.018 1.813c-0.221-0.258-0.583-0.486-1.024-0.48v7.333c0 1.105 0.895 2 2 2v0h6c0-0.042-0.067-0.555-0.309-0.853z"></path>
<path fill="#fff" d="M21.051 13.309h-10.102c-0.349 0-0.631 0.283-0.631 0.631 0 0 0 0 0 0v-0 0.92c0 0 0 0 0 0 0 0.349 0.283 0.631 0.631 0.631h3.596c0.174 0 0.316 0.141 0.316 0.316v0 9.5c0 0.349 0.283 0.632 0.632 0.632v0h1.018c0.349 0 0.631-0.283 0.631-0.631 0-0 0-0 0-0v0-9.5c0-0.174 0.141-0.316 0.316-0.316v0h3.593c0.349 0 0.631-0.283 0.631-0.631 0-0 0-0 0-0v0-0.92c0-0 0-0 0-0 0-0.349-0.283-0.631-0.631-0.631v0z"></path>
</svg>
