<svg xmlns="http://www.w3.org/2000/svg" width="768" height="768" viewBox="0 0 768 768"><defs><style>.a{opacity:0;}</style></defs><title>file-code</title><path d="M672,254.29c-.49-4.42-1-10.93-7.37-18.78l-160-192c-5.31-6.18-14-11.65-24.58-11.51H128A32,32,0,0,0,96,64V704a32,32,0,0,0,32,32H640a32,32,0,0,0,32-32V256C672,255.43,672,254.86,672,254.29ZM512,152.39,571.68,224H512ZM608,672H160V96H448V256a32,32,0,0,0,32,32H608ZM191.27,530.76l114.5-46.63v38.43L229.9,551.41l75.87,28.85V618.7l-114.5-46.64Zm187.11-64.91h34.95L358.24,619.11H323.3Zm52.48,18.28,114.5,46.63v41.3L430.86,618.7V580.26l75.86-28.85-75.86-28.85Z"/><rect class="a" width="768" height="768"/></svg>