<!-- Generated by IcoMoon.io -->
<svg version="1.1" xmlns="http://www.w3.org/2000/svg" width="32" height="32" viewBox="0 0 32 32">
<path fill="#fc7909" d="M27.684 9.803l-6.667-8c-0.221-0.258-0.583-0.485-1.025-0.48h-14c-1.105 0-2 0.895-2 2v0 25.333c0 1.105 0.895 2 2 2v0h20c1.105 0 2-0.895 2-2v0-18c0-0.042-0.067-0.556-0.309-0.854z"></path>
<path fill="#ffb169" d="M21.017 1.803c-0.221-0.258-0.583-0.485-1.025-0.48v7.333c0 1.105 0.895 2 2 2v0h6c0-0.042-0.067-0.555-0.309-0.853z"></path>
<path fill="#fff" d="M12.827 15.386v0.966c0 0.403-0.229 0.752-0.563 0.926l-0.006 0.003-3.182 1.62 3.183 1.62c0.34 0.176 0.569 0.525 0.569 0.928v0 0.968c0 0 0 0 0 0 0 0.23-0.187 0.417-0.417 0.417-0.070 0-0.136-0.017-0.194-0.048l0.002 0.001-5.533-2.865c-0.202-0.106-0.338-0.315-0.338-0.555v0-0.929c0-0.24 0.136-0.449 0.335-0.553l0.003-0.002 5.533-2.865c0.056-0.029 0.122-0.047 0.192-0.047 0.229 0 0.415 0.185 0.417 0.415v0zM17.799 13.365h-0.693c-0 0-0 0-0 0-0.392 0-0.72 0.27-0.809 0.634l-0.001 0.006-2.39 10.019c-0.006 0.023-0.009 0.050-0.009 0.078 0 0.184 0.149 0.333 0.333 0.333h0.7c0 0 0 0 0 0 0.392 0 0.72-0.27 0.81-0.635l0.001-0.006 2.385-10.019c0.006-0.023 0.009-0.050 0.009-0.077 0-0.184-0.149-0.333-0.333-0.333-0.001 0-0.001 0-0.002 0h0zM25.301 17.881l-5.534-2.865c-0.056-0.029-0.121-0.046-0.191-0.046-0.23 0-0.417 0.186-0.417 0.416v0 0.966c0 0.403 0.229 0.752 0.563 0.926l0.006 0.003 3.183 1.62-3.183 1.62c-0.34 0.176-0.569 0.525-0.569 0.928v0 0.968c0 0.23 0.187 0.416 0.417 0.416 0.070 0 0.136-0.017 0.194-0.048l-0.002 0.001 5.534-2.865c0.202-0.106 0.337-0.315 0.337-0.555 0-0 0-0 0-0v0-0.929c0-0.001 0-0.001 0-0.002 0-0.24-0.135-0.449-0.334-0.553l-0.003-0.002z"></path>
</svg>
