<svg xmlns="http://www.w3.org/2000/svg" width="768" height="768" viewBox="0 0 768 768"><defs><style>.a{opacity:0;}</style></defs><title>file-check</title><path d="M416,704a32,32,0,0,1-32,32H128a32,32,0,0,1-32-32V64a32,32,0,0,1,32-32H640a32,32,0,0,1,32,32V353a32,32,0,0,1-64,0V96H160V672H384A32,32,0,0,1,416,704ZM256,256H512a32,32,0,0,0,0-64H256a32,32,0,0,0,0,64Zm0,160H513a32,32,0,0,0,0-64H256a32,32,0,0,0,0,64Zm466.6,38A32,32,0,0,0,678,461.4L543.37,649.83l-69.77-93a32,32,0,0,0-51.2,38.4l96,128A32,32,0,0,0,544,736h.37A32,32,0,0,0,570,722.6l160-224A32,32,0,0,0,722.6,454Z"/><rect class="a" width="768" height="768"/></svg>