<svg version="1.1" xmlns="http://www.w3.org/2000/svg" width="32" height="32" viewBox="0 0 32 32">
<path fill="#e65245" d="M27.692 9.811l-6.665-7.998c-0.221-0.258-0.583-0.486-1.024-0.48h-13.997c-1.104 0-2 0.895-2 2v0 25.327c0 1.104 0.895 2 2 2v0h19.995c1.104 0 2-0.895 2-2v0-17.996c0-0.042-0.067-0.556-0.309-0.853z"></path>
<path fill="#ef9d8f" d="M21.027 1.813c-0.221-0.258-0.583-0.486-1.024-0.48v7.332c0 1.104 0.895 2 2 2v0h5.999c0-0.042-0.067-0.555-0.309-0.852z"></path>
<path fill="#fff" d="M23.356 20.893v-0.013l-0.004-0.012c-0.522-1.583-2.901-1.391-4.323-1.276-0.301 0.025-0.565 0.046-0.761 0.047-0.487-0.431-0.801-0.805-1.154-1.325-0.121-0.178-0.246-0.362-0.378-0.539-0.413-0.534-0.375-0.496-0.233-0.87 0.018-0.048 0.062-0.196 0.062-0.196 0.412-1.261 0.564-2.359 0.451-3.263-0.096-0.769-0.393-1.375-0.837-1.71-0.466-0.351-1.050-0.368-1.525-0.046-0.613 0.417-1.103 1.468-0.637 3.169 0.25 0.954 0.434 1.383 0.532 1.614 0.052 0.122 0.075 0.177 0.074 0.215-0.001 0.085-0.016 0.166-0.043 0.241l0.002-0.005c-0.875 2.926-1.867 4.249-1.867 4.249s-3.603 1.16-4.013 2.912c-0.144 0.617 0.029 1.228 0.625 1.579 0.262 0.155 0.583 0.205 0.861 0.205 0.911 0 1.87-0.762 2.286-1.259 1.129-1.306 1.5-1.973 1.697-2.333 0.131-0.237 0.178-0.316 0.295-0.386 0.647-0.271 3.244-1.028 3.47-0.813 0.775 0.656 1.7 1.145 2.604 1.375 0.886 0.226 1.662 0.189 2.186-0.105 0.51-0.286 0.735-0.802 0.632-1.453zM9.812 24.653c-0.020-0.005-0.049-0.013-0.051-0.083-0.011-0.307 0.534-1.156 2.18-1.833-1.173 1.712-1.942 1.966-2.128 1.916zM15.223 12.602c0.145-0.028 0.287 0.135 0.315 0.427 0.070 0.739-0.072 1.506-0.308 2.189 0 0-0.096-0.3-0.173-0.51-0.594-1.628-0.059-2.062 0.166-2.106zM16.712 19.987c-0.039 0.002-0.076 0.006-0.112 0.013l0.005-0.001c-0.303 0.065-0.609 0.135-0.911 0.208-0.028 0.007-0.072 0.020-0.125 0.036-0.067 0.020-0.219 0.065-0.345 0.094l0.625-1.56c0.005 0.006 0.010 0.011 0.016 0.016 0.031 0.032 0.061 0.062 0.087 0.093q0.167 0.199 0.33 0.399c0.175 0.205 0.346 0.431 0.503 0.667l0.016 0.026c-0.034 0.003-0.067 0.006-0.088 0.008zM21.592 21.278c-0.018 0.021-0.038 0.039-0.058 0.056l-0.001 0.001c-0.145 0.118-0.362 0.14-0.702 0.073-0.435-0.085-0.907-0.292-1.443-0.634-0.042-0.027-0.089-0.055-0.134-0.083-0.038-0.023-0.075-0.046-0.113-0.070 0.111-0.014 0.222-0.026 0.333-0.036 0.228-0.019 0.494-0.030 0.763-0.030 0.124 0 0.247 0.002 0.369 0.007l-0.018-0.001c0.313 0.010 0.896 0.027 1.074 0.324 0.080 0.136 0.013 0.295-0.070 0.39z"></path>
</svg>
