<svg version="1.1" xmlns="http://www.w3.org/2000/svg" width="32" height="32" viewBox="0 0 32 32">
<path fill="#959eb8" d="M27.685 9.813l-6.667-8c-0.221-0.258-0.583-0.486-1.024-0.48h-14c-1.105 0-2 0.895-2 2v0 25.333c0 1.105 0.895 2 2 2v0h20c1.105 0 2-0.895 2-2v0-18c0-0.042-0.067-0.556-0.309-0.853z"></path>
<path fill="#c1cad3" d="M21.018 1.813c-0.221-0.258-0.583-0.486-1.024-0.48v7.333c0 1.105 0.895 2 2 2v0h6c0-0.042-0.067-0.555-0.309-0.853z"></path>
<path fill="#fff" d="M17.263 25.065c0 0.698-0.566 1.263-1.263 1.263s-1.263-0.566-1.263-1.263c0-0.698 0.566-1.263 1.263-1.263v0c0.698 0 1.263 0.566 1.263 1.263v0zM16 11.422c-2.652 0-4.8 2.155-4.8 4.813l0.004 0.072c0.037 0.309 0.298 0.546 0.614 0.546 0 0 0 0 0 0h0.785c0 0 0.001 0 0.001 0 0.341 0 0.617-0.276 0.617-0.616v-0c0-1.535 1.244-2.779 2.779-2.779s2.779 1.244 2.779 2.779v0c0 0.848-0.339 1.292-1.49 2.152l-0.167 0.125c-1.508 1.128-2.132 1.919-2.132 3.393v0.145c0.002 0.35 0.286 0.634 0.637 0.634 0 0 0 0 0 0h0.744c0.352 0 0.637-0.285 0.637-0.637v0-0.113c0-0.011 0-0.023 0-0.034 0.002-0.634 0.29-0.997 1.322-1.769l0.167-0.125c1.617-1.208 2.3-2.102 2.3-3.77 0.002-2.66-2.146-4.815-4.798-4.815z"></path>
</svg>
