<svg xmlns="http://www.w3.org/2000/svg" width="768" height="768" viewBox="0 0 768 768"><defs><style>.a{opacity:0;}</style></defs><title>document-disable</title><path d="M512,256H256a32,32,0,0,1,0-64H512a32,32,0,0,1,0,64ZM352,672H160V96H608V320a32,32,0,0,0,64,0V64a32,32,0,0,0-32-32H128A32,32,0,0,0,96,64V704a32,32,0,0,0,32,32H352a32,32,0,0,0,0-64ZM256,352a32,32,0,0,0,0,64H416a32,32,0,0,0,0-64ZM736,576c0,88.22-71.78,160-160,160S416,664.22,416,576s71.78-160,160-160S736,487.78,736,576ZM617.37,662.62l-128-128a96,96,0,0,0,128,128ZM672,576a96,96,0,0,0-137.37-86.62l128,128A95.47,95.47,0,0,0,672,576Z"/><rect class="a" width="768" height="768"/></svg>