<svg version="1.1" xmlns="http://www.w3.org/2000/svg" width="32" height="32" viewBox="0 0 32 32">
<path fill="#faab21" d="M27.691 9.813l-6.667-8c-0.221-0.258-0.583-0.486-1.024-0.48h-14c-1.105 0-2 0.895-2 2v0 25.333c0 1.105 0.895 2 2 2v0h20c1.105 0 2-0.895 2-2v0-18c0-0.042-0.067-0.556-0.309-0.853z"></path>
<path fill="#ffd676" d="M21.024 1.813c-0.221-0.258-0.583-0.486-1.024-0.48v7.333c0 1.105 0.895 2 2 2v0h6c0-0.042-0.067-0.555-0.309-0.853z"></path>
<path fill="#fff" d="M10.667 2.667v2h-2.029c-0.352 0-0.637-0.285-0.637-0.638v0-0.725c0-0.352 0.285-0.637 0.637-0.637v0zM12.696 4.667h-2.029v2h2.029c0.352 0 0.637-0.285 0.637-0.638v0-0.725c0-0.352-0.285-0.638-0.637-0.638v0zM8 7.304v0.725c0 0.352 0.285 0.637 0.637 0.637v0h2.029v-2h-2.029c-0.352 0-0.638 0.285-0.638 0.638v0zM13.333 10.029v-0.725c0-0.352-0.285-0.637-0.637-0.637h-2.029v2h2.029c0.352 0 0.637-0.285 0.637-0.637v0zM8.637 12.667h2.029v-2h-2.029c-0.352 0-0.638 0.285-0.638 0.637v0.725c0 0.352 0.285 0.637 0.638 0.637v0zM10.667 14.667v-2h2.029c0.352 0 0.637 0.285 0.637 0.637v0 5.362c0 0.736-0.597 1.333-1.333 1.333v0h-2.667c-0.736 0-1.333-0.597-1.333-1.333v0-3.363c0-0.352 0.285-0.637 0.638-0.637v0zM12 17.333h-2.667v1.333h2.667z"></path>
</svg>
