<svg xmlns="http://www.w3.org/2000/svg" width="768" height="768" viewBox="0 0 768 768"><defs><style>.a{opacity:0;}</style></defs><title>file-txt</title><path d="M672,254.29c-.49-4.42-1-10.93-7.37-18.78l-160-192c-5.31-6.18-14-11.65-24.58-11.51H128A32,32,0,0,0,96,64V704a32,32,0,0,0,32,32H640a32,32,0,0,0,32-32V256C672,255.43,672,254.86,672,254.29ZM512,152.39,571.68,224H512ZM608,672H160V96H448V256a32,32,0,0,0,32,32H608ZM241.87,505.81h18.24v27.74H241.87v37.62q0,6.66,2,8.74c1.33,1.4,3.83,2.09,7.51,2.09h3a10.12,10.12,0,0,0,2.85-.38v27c-2,.25-4.4.48-7.13.67s-5.22.28-7.5.28a74.38,74.38,0,0,1-17.29-1.71,25.46,25.46,0,0,1-11.4-5.7,22.25,22.25,0,0,1-6.27-10.73,63,63,0,0,1-1.9-16.82v-41H193.61V505.81h12.16V481.49h36.1Zm108.11,50,35.34,52.63H341.81l-16.72-30H324l-17.29,30H263.34l35.72-52.63-33.44-50h42.94L324,533.74h1.14l15.77-27.93h42.56Zm86.64-50h18.24v27.74H436.62v37.62q0,6.66,2,8.74c1.33,1.4,3.83,2.09,7.51,2.09h3a10.14,10.14,0,0,0,2.86-.38v27c-2,.25-4.41.48-7.13.67s-5.23.28-7.5.28a74.38,74.38,0,0,1-17.29-1.71,25.46,25.46,0,0,1-11.4-5.7,22.25,22.25,0,0,1-6.27-10.73,63,63,0,0,1-1.9-16.82v-41H388.36V505.81h12.16V481.49h36.1Z"/><rect class="a" width="768" height="768"/></svg>