<svg xmlns="http://www.w3.org/2000/svg" width="768" height="768" viewBox="0 0 768 768"><defs><style>.a{opacity:0;}</style></defs><title>file-key</title><path d="M448,704a32,32,0,0,1-32,32H128a32,32,0,0,1-32-32V64a32,32,0,0,1,32-32H640a32,32,0,0,1,32,32V353a32,32,0,0,1-64,0V96H160V672H416A32,32,0,0,1,448,704Zm96-480a32,32,0,0,0-32-32H256a32,32,0,0,0,0,64H512A32,32,0,0,0,544,224ZM256,352a32,32,0,0,0,0,64h96a32,32,0,0,0,0-64ZM705.93,705.65A101,101,0,0,1,544.1,589.07L441,486a32,32,0,0,1,45.25-45.26l11.7,11.7,26.18-26.19a32,32,0,0,1,45.26,45.25l-26.19,26.19,46.13,46.13a101.22,101.22,0,0,1,116.58,19h0A101.14,101.14,0,0,1,705.93,705.65ZM660.68,608a37,37,0,1,0,0,52.37A36.79,36.79,0,0,0,660.68,608Z"/><rect class="a" width="768" height="768"/></svg>