<svg xmlns="http://www.w3.org/2000/svg" width="768" height="768" viewBox="0 0 768 768"><defs><style>.a{opacity:0;}</style></defs><title>file-pdf</title><path d="M672,254.29c-.49-4.42-1-10.93-7.37-18.78l-160-192c-5.31-6.18-14-11.65-24.58-11.51H128A32,32,0,0,0,96,64V704a32,32,0,0,0,32,32H640a32,32,0,0,0,32-32V256C672,255.43,672,254.86,672,254.29ZM512,152.39,571.68,224H512ZM160,672V96H448V256a32,32,0,0,0,32,32H608V672ZM538.87,494.82c-23.36-27.37-79.5-24-105.69-24.55a466,466,0,0,1-34-34.45c-5.84-8.92-18.53-14.22-13.06-24.27,8.35-26.35,14.85-49.12,14.11-77.31-1.7-65.18-72.87-50.93-81.89-21.2-11.17,37.55,27,85.66,41.45,106.62,1.85,11-9.88,25.1-13.27,35.91-6,9-7.23,21.06-16.25,27.19-26.7,5.68-49.11,12.77-66.65,21-73.95,32.08-20.65,93.24,21.26,65,75.81-57.8,31.39-70.86,99-75.37,13.81-.14,29.51-5.79,43.08-1.64,14.92,13.17,28.1,23.58,45.17,33.84C535.19,564.53,554.34,513.74,538.87,494.82ZM278.48,536.36c-30.75.32,8-22.26,21.12-21.94C291.93,525.8,284.62,533.47,278.48,536.36Zm73.75-188.12c-13.13-28.23,31-30.17,11.43,19.23A99.53,99.53,0,0,1,352.23,348.24ZM367.16,464.8c2.63-5.32,5.1-10.69,7.46-16a154.87,154.87,0,0,0,12.51,13.72A196.11,196.11,0,0,0,367.16,464.8Zm134.59,41.47c-2.91,1.37-11.51-2.08-24-12.76C492.76,494.51,508.81,498.59,501.75,506.27Z"/><rect class="a" width="768" height="768"/></svg>