<svg xmlns="http://www.w3.org/2000/svg" width="768" height="768" viewBox="0 0 768 768"><defs><style>.a{opacity:0;}</style></defs><title>file-search</title><path d="M384,704a32,32,0,0,1-32,32H128a32,32,0,0,1-32-32V64a32,32,0,0,1,32-32H640a32,32,0,0,1,32,32V320a32,32,0,0,1-64,0V96H160V672H352A32,32,0,0,1,384,704ZM256,192a32,32,0,0,0,0,64H512a32,32,0,0,0,0-64ZM384,352H256a32,32,0,0,0,0,64H384a32,32,0,0,0,0-64ZM726.63,725.63a32,32,0,0,1-45.26,0l-45-45A142.59,142.59,0,0,1,559.5,703C480.37,703,416,638.63,416,559.5S480.37,416,559.5,416,703,480.37,703,559.5a142.62,142.62,0,0,1-21.61,75.64l45.24,45.23A32,32,0,0,1,726.63,725.63ZM639,559.5A79.5,79.5,0,1,0,559.5,639,79.59,79.59,0,0,0,639,559.5Z"/><rect class="a" width="768" height="768"/></svg>