<svg version="1.1" xmlns="http://www.w3.org/2000/svg" width="32" height="32" viewBox="0 0 32 32">
<path fill="#ff9e0f" d="M27.695 9.81l-6.667-8c-0.221-0.258-0.583-0.486-1.024-0.48h-14c-1.105 0-2 0.895-2 2v0 25.333c0 1.105 0.895 2 2 2v0h20c1.105 0 2-0.895 2-2v0-18c0-0.041-0.067-0.556-0.309-0.853z"></path>
<path fill="#ffcc71" d="M21.028 1.81c-0.221-0.258-0.583-0.486-1.024-0.48v7.333c0 1.105 0.895 2 2 2v0h6c0-0.042-0.067-0.555-0.309-0.853z"></path>
<path fill="#fff" d="M11.212 13.941v11.368c0 0.349 0.283 0.632 0.632 0.632h1.042c0.349 0 0.632-0.283 0.632-0.632v0-4.222h3.974c2.109 0 3.825-1.75 3.825-3.905 0-2.136-1.716-3.875-3.825-3.875h-5.648c0 0 0 0 0 0-0.349 0-0.632 0.283-0.632 0.632 0 0.001 0 0.001 0 0.002v-0zM17.492 18.958h-3.974v-3.523h3.974c0.913 0 1.655 0.784 1.655 1.747s-0.758 1.775-1.655 1.775z"></path>
</svg>
