<svg xmlns="http://www.w3.org/2000/svg" width="768" height="768" viewBox="0 0 768 768"><defs><style>.a{opacity:0;}</style></defs><title>file-data-import</title><path d="M672,64V704a32,32,0,0,1-32,32H129a32,32,0,0,1-32-32V576a32,32,0,0,1,64,0v96H608V96H161v64a32,32,0,0,1-64,0V64a32,32,0,0,1,32-32H640A32,32,0,0,1,672,64ZM281.37,473.37a32,32,0,0,0,45.26,45.26l112-112a32,32,0,0,0,0-45.26l-112-112a32,32,0,0,0-45.26,45.26L338.75,352H96a32,32,0,0,0,0,64H338.74Z"/><rect class="a" width="768" height="768"/></svg>