<!-- Generated by IcoMoon.io -->
<svg version="1.1" xmlns="http://www.w3.org/2000/svg" width="32" height="32" viewBox="0 0 32 32">
<title>flowflow-restore</title>
<path d="M29.514 10.292c-1.804-4.267-5.518-7.432-10.017-8.536s-9.256-0.018-12.83 2.93v-2.020c0-0.736-0.597-1.333-1.333-1.333s-1.333 0.597-1.333 1.333v5.333c0 0.736 0.597 1.333 1.333 1.333h5.333c0.736 0 1.333-0.597 1.333-1.333s-0.597-1.333-1.333-1.333h-2.208c4.36-3.523 10.579-3.558 14.979-0.084s5.807 9.532 3.391 14.59c-2.416 5.058-8.013 7.77-13.48 6.531s-9.348-6.098-9.348-11.704c0-0.736-0.597-1.333-1.333-1.333s-1.333 0.597-1.333 1.333c0.005 6.976 4.921 12.983 11.758 14.368s13.703-2.236 16.423-8.66c1.537-3.65 1.537-7.766 0-11.417v0z"></path>
</svg>
