<svg xmlns="http://www.w3.org/2000/svg" width="768" height="768" viewBox="0 0 768 768"><defs><style>.a{opacity:0;}</style></defs><title>keep-rotating</title><path d="M641.17,601.92a32,32,0,0,1-8.27,31A351.9,351.9,0,0,1,32,384a32,32,0,0,1,64,0A288.14,288.14,0,0,0,541.46,625.26L471.86,607a32,32,0,0,1,16.28-61.9l130.28,34.28A32,32,0,0,1,641.17,601.92Zm69.05-350.36A351.91,351.91,0,0,0,135.1,135.1a32,32,0,0,0,14.48,53.57L279.86,223a32,32,0,1,0,16.28-61.9l-69.6-18.31A288.08,288.08,0,0,1,672,384a32,32,0,0,0,64,0A350.68,350.68,0,0,0,710.22,251.56Z"/><rect class="a" width="768" height="768"/></svg>