<svg xmlns="http://www.w3.org/2000/svg" width="768" height="768" viewBox="0 0 768 768"><defs><style>.a{opacity:0;}</style></defs><title>flow-rollback</title><path d="M240,192a40,40,0,1,1,40,40A40,40,0,0,1,240,192Zm425.71,38.29A238.43,238.43,0,0,0,496,160h-2.74l41.37-41.37a32,32,0,0,0-45.26-45.26l-96,96a32,32,0,0,0,0,45.26l96,96a32,32,0,0,0,45.26-45.26L493.26,224H496c97,0,176,78.95,176,176s-79,176-176,176H272C175,576,96,497.05,96,400a175.28,175.28,0,0,1,82.18-148.94A32,32,0,1,0,144,196.94,239.84,239.84,0,0,0,32,400,240,240,0,0,0,272,640H496A240,240,0,0,0,665.71,230.29Z"/><rect class="a" width="768" height="768"/></svg>