<svg xmlns="http://www.w3.org/2000/svg" width="768" height="768" viewBox="0 0 768 768"><defs><style>.a{opacity:0;}</style></defs><title>flow-update</title><path d="M662.63,553.37a32,32,0,0,1,0,45.26l-96,96a32,32,0,0,1-45.26-45.26L562.74,608H224C118.13,608,32,521.87,32,416a32,32,0,0,1,64,0A128.14,128.14,0,0,0,224,544H562.74l-41.37-41.37a32,32,0,0,1,45.26-45.26ZM544,160H205.25l41.38-41.37a32,32,0,0,0-45.26-45.26l-96,96a32,32,0,0,0,0,45.26l96,96a32,32,0,0,0,45.26-45.26L205.25,224H544A128.14,128.14,0,0,1,672,352a32,32,0,0,0,64,0C736,246.13,649.87,160,544,160Z"/><rect class="a" width="768" height="768"/></svg>