<svg xmlns="http://www.w3.org/2000/svg" width="768" height="768" viewBox="0 0 768 768"><defs><style>.a{opacity:0;}</style></defs><title>thumb-up</title><path d="M730.24,261.39a95.39,95.39,0,0,0-75.62-36.95l-111.12-.09V127.5a96,96,0,0,0-192,0,96.62,96.62,0,0,1-96.62,96.62h-.08L96,224h0a32,32,0,0,0-32,32V640a32,32,0,0,0,32,32l444.47.41h.14a159.76,159.76,0,0,0,155.23-121.2l51.87-207.49A95.38,95.38,0,0,0,730.24,261.39ZM128,288l64,.05-.5,319.38c0,.21,0,.42,0,.64L128,608ZM685.59,328.2,633.72,535.69a95.85,95.85,0,0,1-93.14,72.72h-.08l-285-.26c0-.2,0-.4,0-.6l.5-319.44A160.61,160.61,0,0,0,415.5,127.5a32,32,0,0,1,64,0V256.32a32,32,0,0,0,32,32l143.1.12a32,32,0,0,1,31,39.76Z"/><rect class="a" width="768" height="768"/></svg>