<svg xmlns="http://www.w3.org/2000/svg" width="768" height="768" viewBox="0 0 768 768"><defs><style>.a{opacity:0;}</style></defs><title>star</title><path d="M581.55,704a31.94,31.94,0,0,1-15.76-4.15L384,597,202.21,699.85a32,32,0,0,1-47.12-34.24l41.69-204.68-154-141.1a32,32,0,0,1,18-55.39l207.55-23.61L354.88,50.74a32,32,0,0,1,58.24,0l86.59,190.09,207.55,23.61a32,32,0,0,1,18,55.39l-154,141.1,41.69,204.68A32,32,0,0,1,581.55,704ZM137.78,320.09,253.36,426a32,32,0,0,1,9.75,30l-31.29,153.6,136.42-77.22a32,32,0,0,1,31.52,0l136.41,77.21L504.89,456a32,32,0,0,1,9.75-30L630.22,320.09,474.48,302.38A32,32,0,0,1,449,283.85L384,141.2,319,283.85a32,32,0,0,1-25.51,18.53Z"/><rect class="a" width="768" height="768"/></svg>