<svg xmlns="http://www.w3.org/2000/svg" width="768" height="768" viewBox="0 0 768 768"><defs><style>.a{opacity:0;}</style></defs><title>protection-internal</title><path d="M678.94,96.76l-288.06-64a32.17,32.17,0,0,0-13.88,0l-288,64a32,32,0,0,0-25,33.63l31.11,416a32,32,0,0,0,15,24.77l257,160a32,32,0,0,0,33.87,0L657,571.14a32,32,0,0,0,14.95-24.69l32-416A32,32,0,0,0,678.94,96.76ZM609.33,525.43,383.92,666.29,157.7,525.42,129.87,153.23,383.94,96.78l254,56.44ZM360.46,175.85v44.82H239.18V509.56h46.7V410.12l20.72,24.11q28.62-22.22,47.83-42.75a207.45,207.45,0,0,0,31.27-42.75q9,9,18.64,19.4t19.21,20.71q9.6,10.37,18.45,20.53t15.63,19.21l24.11-32V441q0,12.06-4,16t-17.13,5.47l-28.25,3,15.82,46.33,29.38-3a166.29,166.29,0,0,0,25.8-4.14q10-2.64,15.63-8.1a28.45,28.45,0,0,0,7.72-14.5q2.07-9,2.07-23.35v-238h-122V177.73Zm-5.65,124.29A117.85,117.85,0,0,1,342,330.09a146.42,146.42,0,0,1-22.41,28.24A249.92,249.92,0,0,1,285.88,386V267h74.2A169.21,169.21,0,0,1,354.81,300.14ZM481.74,267V380.37q-7.55-8.67-17.52-19t-20.71-20.91Q432.77,329.91,422,320.1t-19.77-17.7a167.41,167.41,0,0,0,2.82-17.32q.95-8.67,1.32-18.08Z"/><rect class="a" width="768" height="768"/></svg>