<svg xmlns="http://www.w3.org/2000/svg" width="768" height="768" viewBox="0 0 768 768"><defs><style>.a{opacity:0;}</style></defs><title>thumb-up-filled</title><path d="M192,288V640a32,32,0,0,1-32,32H96a32,32,0,0,1-32-32V288a32,32,0,0,1,32-32h64A32,32,0,0,1,192,288Zm416-32H512V136.5A72.5,72.5,0,0,0,439.5,64h0A72.5,72.5,0,0,0,367,136.5V145A111,111,0,0,1,256,256h0a32,32,0,0,0-32,32V640a32,32,0,0,0,32,32H538.17A128,128,0,0,0,662.9,572.78l55-238.39A64,64,0,0,0,655.55,256Z"/><rect class="a" width="768" height="768"/></svg>