<svg xmlns="http://www.w3.org/2000/svg" width="768" height="768" viewBox="0 0 768 768"><defs><style>.a{opacity:0;}</style></defs><title>ruliu</title><path d="M364.1,457.88C177.16,503.33,82.54,454.28,80,453.17c-16.14-7-23.52-4.7-30.35,9-1.29,2.58-9.68,25.44-15.77,40.66a22.16,22.16,0,0,0-1.84,8.2v.37c.09,5.26,2.77,11.62,13.37,16.5,19.46,8.76,66.22,25.63,140.74,28.22,16.87,2.58,20.1,14.56,15.3,29.31L175,671.22c-7.38,26.18,8.85,39.18,25.45,39.36H201a30.13,30.13,0,0,0,18.63-6.36C223.64,701,398,556.43,398,556.43c14.76-13.37,41.14-34.29,69-38.54,119.15-14.65,187,7.47,199.29,12,7.84,2.86,16.6,5.53,25.18-8.94,3.69-6.18,17.25-43.33,17.52-52.46.37-10.24-9.5-13.74-12.82-14.75a.77.77,0,0,1-.37-.19c-14-4.88-40.94-12.54-80.05-16.87a567.1,567.1,0,0,0-61.51-3.23c-49.25,0-113.16,5.72-190.16,24.44m15.73-169c-186.94,45.45-281.56-3.59-284.14-4.7-16.14-7-23.52-4.7-30.34,9-1.29,2.59-9.69,25.45-15.77,40.66-1.85,4.7-6.27,16.78,11.52,25.08,21.12,9.5,74.43,28.58,160.38,28.58,53,0,110.21-7.37,169.69-21.76C567.32,323,666.92,355.28,682,360.91c7.84,2.95,16.61,5.53,25.18-9,3.69-6.17,17.25-43.33,17.52-52.46.37-10.23-9.49-13.73-12.81-14.75-.1-.09-.28-.09-.37-.18-14-4.89-40.95-12.54-80-16.87a564.35,564.35,0,0,0-61.42-3.23c-49.34,0-113.25,5.72-190.26,24.43m11.24-167.59c-186.93,45.45-281.55-3.6-284.14-4.7-16.13-7-23.51-4.7-30.34,9-1.29,2.58-9.68,25.45-15.77,40.66C59,171,54.55,183.08,72.35,191.38,93.47,200.87,146.77,220,232.73,220c53.12,0,110.2-7.38,169.69-21.76,176.14-42.78,275.75-10.51,290.87-4.89,7.84,2.86,16.6,5.54,25.18-8.94,3.69-6.18,17.24-43.33,17.52-52.46.37-10.23-9.5-13.73-12.82-14.75-.09-.09-.28-.09-.37-.18-14-4.89-40.95-12.54-80-16.88a566.89,566.89,0,0,0-61.42-3.22c-49.34,0-113.25,5.71-190.26,24.43"/><rect class="a" width="768" height="768"/></svg>