<svg xmlns="http://www.w3.org/2000/svg" width="768" height="768" viewBox="0 0 768 768"><defs><style>.a{opacity:0;}</style></defs><title>baidu</title><path d="M159.45,405.12c76.34-16.4,65.91-107.56,63.63-127.51-3.73-30.7-39.86-84.37-88.93-80.16C72.41,203,63.37,292.16,63.37,292.16,55,333.38,83.37,421.48,159.45,405.12Zm81,158.56c-2.24,6.41-7.24,22.81-2.9,37.1,8.51,32,36.35,33.42,36.35,33.42h39.91V536.54h-42.8C251.8,542.29,242.5,557.19,240.49,563.68ZM301,252.22c42.14,0,76.17-48.46,76.17-108.44S343.18,35.42,301,35.42s-76.21,48.46-76.21,108.36S259,252.22,301,252.22Zm181.46,7.14c56.3,7.33,92.48-52.79,99.67-98.31,7.36-45.47-28.94-98.35-68.8-107.43S423.52,108.43,419,150.18C413.56,201.22,426.32,252.17,482.5,259.36Zm138,267.75s-87.13-67.35-137.95-140.23c-69-107.43-166.94-63.71-199.69-9.08S199.4,467,192.16,476.12,86.92,538,108.67,634.5s98.09,94.63,98.09,94.63,56.26,5.61,121.51-9c65.3-14.47,121.51,3.64,121.51,3.64S602.29,774.82,644,676.47,620.49,527.11,620.49,527.11Zm-261,146.38H260.39c-42.84-8.56-59.85-37.8-62-42.76s-14.3-28.54-7.81-68.49C209,502.34,261.8,498,261.8,498h52.79v-64.9l44.91.75Zm184.69-.71H430.09c-44.2-11.4-46.26-42.88-46.26-42.88V503.74l46.26-.74V616.44c2.81,12,17.85,14.25,17.85,14.25h47v-127h49.29Zm161.55-336.9c0-21.79-18.11-87.39-85.25-87.39s-76.21,61.92-76.21,105.72c0,41.79,3.51,100.16,87,98.27S705.74,357.81,705.74,335.88Z"/><rect class="a" width="768" height="768"/></svg>