<!-- Generated by IcoMoon.io -->
<svg version="1.1" xmlns="http://www.w3.org/2000/svg" width="32" height="32" viewBox="0 0 32 32">
<title>logoinfoflow-plain</title>
<path d="M15.171 19.078c-7.789 1.894-11.732-0.15-11.838-0.196-0.672-0.292-0.98-0.196-1.265 0.375-0.054 0.108-0.403 1.060-0.657 1.694-0.047 0.108-0.073 0.224-0.077 0.342v0.015c0.004 0.219 0.115 0.484 0.557 0.688 0.811 0.365 2.759 1.068 5.864 1.176 0.703 0.108 0.837 0.607 0.638 1.221l-1.102 3.575c-0.308 1.091 0.369 1.633 1.060 1.64h0.023c0.281 0.001 0.554-0.092 0.776-0.265 0.167-0.134 7.432-6.158 7.432-6.158 0.615-0.557 1.714-1.429 2.875-1.606 4.965-0.61 7.792 0.311 8.304 0.5 0.327 0.119 0.692 0.23 1.049-0.372 0.154-0.258 0.719-1.805 0.73-2.186 0.015-0.427-0.396-0.573-0.534-0.615-0.006-0.001-0.011-0.004-0.015-0.008-0.583-0.203-1.706-0.523-3.335-0.703-0.851-0.091-1.707-0.136-2.563-0.135-2.052 0-4.715 0.238-7.923 1.018zM15.825 12.037c-7.789 1.894-11.732-0.15-11.839-0.196-0.672-0.292-0.98-0.196-1.264 0.375-0.054 0.108-0.404 1.060-0.657 1.694-0.077 0.196-0.261 0.699 0.48 1.045 0.88 0.396 3.101 1.191 6.682 1.191 2.208 0 4.592-0.307 7.070-0.907 7.34-1.781 11.49-0.436 12.119-0.202 0.327 0.123 0.692 0.23 1.049-0.375 0.154-0.257 0.719-1.805 0.73-2.186 0.015-0.426-0.395-0.572-0.534-0.615-0.004-0.004-0.012-0.004-0.015-0.008-0.583-0.204-1.706-0.523-3.333-0.703-0.85-0.091-1.704-0.136-2.559-0.135-2.056 0-4.719 0.238-7.928 1.018zM16.295 5.053c-7.789 1.894-11.731-0.15-11.839-0.196-0.672-0.292-0.98-0.196-1.264 0.375-0.054 0.107-0.403 1.060-0.657 1.694-0.076 0.199-0.262 0.702 0.48 1.048 0.88 0.395 3.101 1.192 6.682 1.192 2.213 0 4.592-0.307 7.070-0.907 7.339-1.782 11.49-0.438 12.12-0.204 0.327 0.119 0.692 0.231 1.049-0.372 0.154-0.258 0.718-1.805 0.73-2.186 0.015-0.426-0.396-0.572-0.534-0.615-0.004-0.004-0.012-0.004-0.015-0.008-0.583-0.204-1.706-0.522-3.333-0.703-0.85-0.091-1.704-0.136-2.559-0.134-2.056 0-4.719 0.238-7.927 1.018z"></path>
</svg>
