<svg xmlns="http://www.w3.org/2000/svg" xmlns:xlink="http://www.w3.org/1999/xlink" viewBox="0 0 768 768"><defs><style>.cls-1{fill:url(#未命名的渐变_86);}.cls-2{fill:url(#未命名的渐变_86-2);}.cls-3{fill:url(#未命名的渐变_86-3);}.cls-4{opacity:0;}</style><linearGradient id="未命名的渐变_86" x1="30.99" y1="572.41" x2="708.01" y2="572.41" gradientUnits="userSpaceOnUse"><stop offset="0" stop-color="#4a88f5"/><stop offset="1" stop-color="#74bbf6"/></linearGradient><linearGradient id="未命名的渐变_86-2" x1="46.71" y1="327.12" x2="723.73" y2="327.12" xlink:href="#未命名的渐变_86"/><linearGradient id="未命名的渐变_86-3" x1="57.96" y1="158.57" x2="734.99" y2="158.57" xlink:href="#未命名的渐变_86"/></defs><title>ruliu (2)</title><g id="图层_2" data-name="图层 2"><g id="图层_1-2" data-name="图层 1"><g id="ruliu"><path class="cls-1" d="M695.23,455.49l-.4-.14c-14-4.88-40.92-12.63-80-17-51.64-5.71-137.22-6.65-251.71,21.33C176.16,505.43,81.55,456.13,79,455c-16.12-7-23.5-4.71-30.33,9.07-1.3,2.62-9.71,25.58-15.76,40.94-1.87,4.73-6.29,16.87,11.52,25.2C63.82,539,110.64,556,185.09,558.61c16.91,2.56,20.11,14.62,15.34,29.52l-26.34,86.23c-10,45.28,37.27,40.07,57.93,22.57L397,558.86h0c14.76-13.49,41.56-32,69-38.79,119.14-14.73,187,7.48,199.27,12.06,7.82,2.92,16.59,5.57,25.2-9,3.68-6.23,17.24-43.56,17.53-52.76C708.33,460,698.47,456.54,695.23,455.49Z"/><path class="cls-2" d="M711,285.53l-.4-.14c-14-4.88-40.92-12.63-80-17-51.64-5.71-137.22-6.65-251.71,21.33-186.92,45.71-281.53-3.59-284.12-4.71-16.12-7-23.5-4.71-30.33,9.07-1.3,2.62-9.71,25.58-15.76,40.94-1.87,4.73-6.29,16.87,11.52,25.2C81.2,369.78,134.48,389,220.46,389c53.06,0,110.15-7.37,169.68-21.93,176.08-43,275.73-10.58,290.85-4.93,7.82,2.92,16.59,5.56,25.2-9,3.68-6.24,17.24-43.56,17.53-52.77C724.05,290,714.2,286.57,711,285.53Z"/><path class="cls-3" d="M722.21,117l-.41-.14c-14-4.87-40.91-12.62-80-17-51.63-5.71-137.21-6.65-251.7,21.33-186.93,45.71-281.54-3.58-284.13-4.71-16.12-7-23.49-4.71-30.32,9.07-1.3,2.62-9.71,25.58-15.77,40.94-1.86,4.73-6.28,16.87,11.53,25.21,21.09,9.51,74.37,28.77,160.34,28.77,53.07,0,110.16-7.38,169.69-21.93,176.08-43.05,275.73-10.58,290.85-4.94,7.81,2.92,16.59,5.57,25.2-9,3.67-6.23,17.24-43.56,17.53-52.76C735.31,121.49,725.45,118,722.21,117Z"/><rect class="cls-4" width="768" height="768"/></g></g></g></svg>