<!-- Generated by IcoMoon.io -->
<svg version="1.1" xmlns="http://www.w3.org/2000/svg" width="32" height="32" viewBox="0 0 32 32">
<title>logo-rawbaidu</title>
<path fill="#2932e1" d="M6.644 16.88c3.181-0.683 2.746-4.482 2.651-5.313-0.155-1.279-1.661-3.515-3.705-3.34-2.572 0.231-2.949 3.946-2.949 3.946-0.349 1.717 0.833 5.388 4.003 4.707zM10.019 23.487c-0.093 0.267-0.302 0.95-0.121 1.546 0.355 1.333 1.515 1.392 1.515 1.392h1.663v-4.069h-1.783c-0.8 0.24-1.188 0.86-1.272 1.131h-0.002zM12.542 10.509c1.756 0 3.174-2.019 3.174-4.518s-1.416-4.515-3.174-4.515c-1.758 0-3.175 2.019-3.175 4.515s1.425 4.518 3.175 4.518zM20.102 10.807c2.346 0.305 3.853-2.2 4.153-4.096 0.307-1.895-1.206-4.098-2.867-4.476s-3.742 2.284-3.93 4.023c-0.227 2.127 0.305 4.25 2.646 4.549h-0.002zM25.852 21.963c0 0-3.63-2.806-5.748-5.843-2.875-4.476-6.956-2.655-8.32-0.378s-3.476 3.717-3.777 4.097c-0.302 0.38-4.385 2.578-3.479 6.599s4.087 3.943 4.087 3.943c0 0 2.344 0.234 5.063-0.375 2.721-0.603 5.063 0.152 5.063 0.152s6.355 2.127 8.093-1.971c1.738-4.098-0.98-6.223-0.98-6.223h-0.001zM14.977 28.062h-4.128c-1.785-0.357-2.494-1.575-2.583-1.782s-0.596-1.189-0.325-2.854c0.768-2.496 2.967-2.677 2.967-2.677h2.2v-2.704l1.871 0.031-0.002 9.985zM22.673 28.032h-4.753c-1.842-0.475-1.928-1.787-1.928-1.787v-5.257l1.928-0.031v4.727c0.117 0.5 0.744 0.594 0.744 0.594h1.958v-5.292h2.054l-0.003 7.045zM29.404 13.995c0-0.908-0.755-3.641-3.552-3.641s-3.175 2.58-3.175 4.405c0 1.741 0.146 4.173 3.625 4.095s3.104-3.945 3.104-4.858h-0.002z"></path>
</svg>
