<svg xmlns="http://www.w3.org/2000/svg" width="768" height="768" viewBox="0 0 768 768"><defs><style>.a{opacity:0;}</style></defs><title>bullet</title><path d="M672,190H256a32,32,0,0,1,0-64H672a32,32,0,0,1,0,64ZM112,110a48,48,0,1,0,48,48A48,48,0,0,0,112,110ZM704,384a32,32,0,0,0-32-32H256a32,32,0,0,0,0,64H672A32,32,0,0,0,704,384Zm0,223a32,32,0,0,0-32-32H256a32,32,0,0,0,0,64H672A32,32,0,0,0,704,607ZM112,336a48,48,0,1,0,48,48A48,48,0,0,0,112,336Zm0,223a48,48,0,1,0,48,48A48,48,0,0,0,112,559Z"/><rect class="a" width="768" height="768"/></svg>