<svg xmlns="http://www.w3.org/2000/svg" width="768" height="768" viewBox="0 0 768 768"><defs><style>.a{opacity:0;}</style></defs><title>cloud</title><path d="M576,640H192c-88.22,0-160-71.78-160-160A160.08,160.08,0,0,1,144.15,327.28a240,240,0,0,1,479.7,0A160.08,160.08,0,0,1,736,480C736,568.22,664.22,640,576,640ZM384,160C287,160,208,239,208,336c0,4.7.2,9.53.58,14.35a32,32,0,0,1-28.1,34.34A96,96,0,0,0,192,576H576a96,96,0,0,0,11.52-191.31,32,32,0,0,1-28.1-34.34c.38-4.82.58-9.65.58-14.35C560,239,481.05,160,384,160Z"/><rect class="a" width="768" height="768"/></svg>