<svg xmlns="http://www.w3.org/2000/svg" width="768" height="768" viewBox="0 0 768 768"><defs><style>.a{opacity:0;}</style></defs><title>live-broadcast-plus</title><path d="M406,384a13.16,13.16,0,0,1-6.4,11l-128,82.29A17.84,17.84,0,0,1,262,480a18.25,18.25,0,0,1-7.16-1.45c-5.42-2.32-8.84-7.07-8.84-12.26V301.71c0-5.19,3.42-9.94,8.84-12.26a18.28,18.28,0,0,1,16.76,1.29L399.6,373A13.16,13.16,0,0,1,406,384ZM704,544H608V448a32,32,0,0,0-64,0v96H448a32,32,0,0,0,0,64h96v96a32,32,0,0,0,64,0V608h96a32,32,0,0,0,0-64Zm17.87-378.55a32,32,0,0,0-29.91-3.1L576,209.46V128a32,32,0,0,0-32-32H64a32,32,0,0,0-32,32V640a32,32,0,0,0,32,32H320a32,32,0,0,0,0-64H96V160H512V320a32,32,0,0,0,64,0V278.54l96-39V384a32,32,0,0,0,64,0V192A32,32,0,0,0,721.87,165.45Z"/><rect class="a" width="768" height="768"/></svg>