<svg xmlns="http://www.w3.org/2000/svg" width="768" height="768" viewBox="0 0 768 768"><defs><style>.a{opacity:0;}</style></defs><title>todo</title><path d="M640,96H576V64a32,32,0,0,0-32-32H224a32,32,0,0,0-32,32V96H128a32,32,0,0,0-32,32V704a32,32,0,0,0,32,32H640a32,32,0,0,0,32-32V128A32,32,0,0,0,640,96ZM256,96H512v64H256ZM608,672H160V160h32v32a32,32,0,0,0,32,32H544a32,32,0,0,0,32-32V160h32ZM538.63,369.75l-128,192a32,32,0,0,1-23.48,14.09A30.21,30.21,0,0,1,384,576a32,32,0,0,1-22.63-9.37l-96-96a32,32,0,0,1,45.26-45.26l68.4,68.4L485.37,334.25a32,32,0,0,1,53.26,35.5Z"/><rect class="a" width="768" height="768"/></svg>