<svg xmlns="http://www.w3.org/2000/svg" width="768" height="768" viewBox="0 0 768 768"><defs><style>.a{opacity:0;}</style></defs><title>bookmark</title><path d="M640,736a32.05,32.05,0,0,1-17-4.86L384,581.74,145,731.14A32,32,0,0,1,96,704V64a32,32,0,0,1,32-32H640a32,32,0,0,1,32,32V704a32,32,0,0,1-32,32ZM384,512a32,32,0,0,1,17,4.86l207,129.4V96H160V646.26l207-129.4A32,32,0,0,1,384,512Zm32-288a32,32,0,0,0-32-32H256a32,32,0,0,0,0,64H384A32,32,0,0,0,416,224Zm96,128a32,32,0,0,0-32-32H256a32,32,0,0,0,0,64H480A32,32,0,0,0,512,352Z"/><rect class="a" width="768" height="768"/></svg>