<svg xmlns="http://www.w3.org/2000/svg" width="768" height="768" viewBox="0 0 768 768"><defs><style>.a{opacity:0;}</style></defs><title>handshaking</title><path d="M731.61,242.83,632.74,98.48A132,132,0,0,0,430.5,79.74L383.74,126.5,337.32,80.08A132,132,0,0,0,135,98.92L36.24,243.41a162.08,162.08,0,0,0,19.19,206L312.84,706.8a99.72,99.72,0,0,0,141,0L682.1,478.54a31.9,31.9,0,0,0,4.61-3.82l25.8-25.79A162.07,162.07,0,0,0,731.61,242.83ZM591.06,479.07l-78-78a28,28,0,0,0-39.6,39.59l78,78L521,549.16,416.23,444.41A28,28,0,0,0,376.63,484L481.38,588.75l-30.49,30.49-78-78a28,28,0,0,0-39.6,39.59l78,78-2.7,2.7a35.71,35.71,0,0,1-50.5,0L100.68,404.13a98,98,0,0,1-11.6-124.6L187.85,135a68,68,0,0,1,104.22-9.7l46.41,46.41-113,113a32,32,0,0,0,0,45.25,141.82,141.82,0,0,0,200.57,0l35.31-35.3,157,157Zm76.19-75.4-3.17,3.17L506.65,249.41l9.11-9.11A32,32,0,1,0,470.51,195l-31.73,31.74h0l-57.92,57.93a78,78,0,0,1-82.6,17.79L406.36,194.38h0L475.75,125a68,68,0,0,1,104.19,9.66L678.81,279A98,98,0,0,1,667.25,403.67Z"/><rect class="a" width="768" height="768"/></svg>