<svg xmlns="http://www.w3.org/2000/svg" width="768" height="768" viewBox="0 0 768 768"><defs><style>.a{opacity:0;}</style></defs><title>square-four</title><path d="M320,351H96a32,32,0,0,1-32-32V96A32,32,0,0,1,96,64H320a32,32,0,0,1,32,32V319A32,32,0,0,1,320,351ZM128,287H288V128H128Zm192,64H96a32,32,0,0,1-32-32V96A32,32,0,0,1,96,64H320a32,32,0,0,1,32,32V319A32,32,0,0,1,320,351ZM128,287H288V128H128Zm544,65H448a32,32,0,0,1-32-32V96a32,32,0,0,1,32-32H672a32,32,0,0,1,32,32V320A32,32,0,0,1,672,352ZM480,288H640V128H480ZM320,703H96a32,32,0,0,1-32-32V448a32,32,0,0,1,32-32H320a32,32,0,0,1,32,32V671A32,32,0,0,1,320,703ZM128,639H288V480H128Zm192,64H96a32,32,0,0,1-32-32V448a32,32,0,0,1,32-32H320a32,32,0,0,1,32,32V671A32,32,0,0,1,320,703ZM128,639H288V480H128Zm544,65H448a32,32,0,0,1-32-32V448a32,32,0,0,1,32-32H672a32,32,0,0,1,32,32V672A32,32,0,0,1,672,704ZM480,640H640V480H480Z"/><rect class="a" width="768" height="768"/></svg>