<svg xmlns="http://www.w3.org/2000/svg" width="768" height="768" viewBox="0 0 768 768"><defs><style>.a{opacity:0;}</style></defs><title>locationpin</title><path d="M730.71,689.62A32,32,0,0,1,704,704H64a32,32,0,0,1-29.41-44.61l96-224A32,32,0,0,1,160,416h96a32,32,0,0,1,0,64H181.1L112.53,640H655.47L586.9,480H513a32,32,0,0,1,0-64h95a32,32,0,0,1,29.41,19.39l96,224A32,32,0,0,1,730.71,689.62ZM224,192c0-88.22,71.78-160,160-160s160,71.78,160,160c0,77.27-55.06,141.92-128,156.78V512a32,32,0,0,1-64,0V348.78C279.06,333.92,224,269.27,224,192Zm64,0a96,96,0,1,0,96-96A96.11,96.11,0,0,0,288,192Z"/><rect class="a" width="768" height="768"/></svg>