<svg xmlns="http://www.w3.org/2000/svg" width="768" height="768" viewBox="0 0 768 768"><defs><style>.a{opacity:0;}</style></defs><title>chart-trend</title><path d="M704,672a32,32,0,0,1-32,32H96a32,32,0,0,1-32-32V96a32,32,0,0,1,64,0V640H672A32,32,0,0,1,704,672ZM672,192H544a32,32,0,0,0,0,64h50.74L448,402.75,342.63,297.37a32,32,0,0,0-45.26,0l-128,128a32,32,0,0,0,45.26,45.26L320,365.25,425.37,470.63a32,32,0,0,0,45.26,0L640,301.26V352a32,32,0,0,0,64,0V224A32,32,0,0,0,672,192Z"/><rect class="a" width="768" height="768"/></svg>