<svg xmlns="http://www.w3.org/2000/svg" width="768" height="768" viewBox="0 0 768 768"><defs><style>.a{opacity:0;}</style></defs><title>magnifier-plus</title><path d="M726.63,681.37,599.79,554.53a320,320,0,0,0-474.06-428.8,320,320,0,0,0,428.8,474.06L681.37,726.63a32,32,0,0,0,45.26-45.26ZM352,608a256,256,0,1,1,181-75A254.33,254.33,0,0,1,352,608ZM512,352a32,32,0,0,1-32,32H384v96a32,32,0,0,1-64,0V384H224a32,32,0,0,1,0-64h96V224a32,32,0,0,1,64,0v96h96A32,32,0,0,1,512,352Z"/><rect class="a" width="768" height="768"/></svg>