<svg xmlns="http://www.w3.org/2000/svg" width="768" height="768" viewBox="0 0 768 768"><defs><style>.a{opacity:0;}</style></defs><title>comment</title><path d="M64,96H705a32,32,0,0,1,32,32V608a32,32,0,0,1-32,32H608v64a32,32,0,0,1-46.31,28.62L376.45,640H64a32,32,0,0,1-32-32V128A32,32,0,0,1,64,96ZM96,576H384a32,32,0,0,1,14.31,3.38L544,652.22V608a32,32,0,0,1,32-32h97V160H96ZM448,288a32,32,0,0,0-32-32H224a32,32,0,0,0,0,64H416A32,32,0,0,0,448,288ZM576,416a32,32,0,0,0-32-32H224a32,32,0,0,0,0,64H544A32,32,0,0,0,576,416Z"/><rect class="a" width="768" height="768" transform="translate(768 768) rotate(180)"/></svg>