<svg xmlns="http://www.w3.org/2000/svg" width="768" height="768" viewBox="0 0 768 768"><defs><style>.a{opacity:0;}</style></defs><title>currency-coin</title><path d="M285.24,163.92c12.77-5.32,30-3.17,38.53,4.81l47.32,44.36h25.82l47.32-44.36c8.51-8,25.76-10.13,38.53-4.81S499,180,490.46,188l-26.77,25.1h3.66c15.34,0,27.78,7.77,27.78,17.36s-12.44,17.37-27.78,17.37H411.78v17.36h55.57c15.34,0,27.78,7.78,27.78,17.37s-12.44,17.36-27.78,17.36H411.78v34.73c0,9.59-12.44,17.36-27.78,17.36s-27.78-7.77-27.78-17.36V299.91H300.65c-15.34,0-27.78-7.78-27.78-17.36s12.44-17.37,27.78-17.37h55.57V247.82H300.65c-15.34,0-27.78-7.78-27.78-17.37s12.44-17.36,27.78-17.36h3.66L277.54,188C269,180,272.48,169.24,285.24,163.92ZM704,256V512c0,32.09-9.29,63-27.61,91.88-16.92,26.66-40.8,50.38-71,70.51C545.8,714.12,467.18,736,384,736s-161.8-21.88-221.4-61.61c-30.19-20.13-54.07-43.85-71-70.51C73.29,575,64,544.09,64,512V256c0-32.09,9.29-63,27.61-91.88,16.92-26.66,40.8-50.38,71-70.51C222.2,53.88,300.82,32,384,32S545.8,53.88,605.4,93.61c30.19,20.13,54.07,43.85,71,70.51C694.71,193,704,223.91,704,256Zm-576,0c0,40.24,24.9,79,70.1,109.14C247.3,397.94,313.32,416,384,416s136.7-18.06,185.9-50.86C615.1,335,640,296.24,640,256s-24.9-79-70.1-109.14C520.7,114.06,454.68,96,384,96s-136.7,18.06-185.9,50.86C152.9,177,128,215.76,128,256ZM605.4,418.39C545.8,458.12,467.18,480,384,480s-161.8-21.88-221.4-61.61a273.59,273.59,0,0,1-34.31-26.93c2.88,37.55,27.41,73.41,69.81,101.68C247.3,525.94,313.32,544,384,544s136.7-18.06,185.9-50.86c42.4-28.27,66.93-64.13,69.81-101.68A273.59,273.59,0,0,1,605.4,418.39Zm34.31,101.07a273.59,273.59,0,0,1-34.31,26.93C545.8,586.12,467.18,608,384,608s-161.8-21.88-221.4-61.61a273.59,273.59,0,0,1-34.31-26.93c2.88,37.55,27.41,73.41,69.81,101.68C247.3,653.94,313.32,672,384,672s136.7-18.06,185.9-50.86C612.3,592.87,636.83,557,639.71,519.46Z"/><rect class="a" width="768" height="768"/></svg>