<svg xmlns="http://www.w3.org/2000/svg" width="768" height="768" viewBox="0 0 768 768"><defs><style>.a{opacity:0;}</style></defs><title>location</title><path d="M384,736a31.92,31.92,0,0,1-19.2-6.4l-20.2-15.15a816.55,816.55,0,0,1-190-200.82A347.93,347.93,0,0,1,96,320h0a288,288,0,1,1,576,0,348,348,0,0,1-58.62,193.63,816.78,816.78,0,0,1-190,200.82L403.2,729.6A32,32,0,0,1,384,736Zm0-640A224,224,0,0,0,160,320a284.22,284.22,0,0,0,47.88,158.13A752.68,752.68,0,0,0,383,663.25l1,.75,1-.75A752.68,752.68,0,0,0,560.12,478.13,284.2,284.2,0,0,0,608,320,224,224,0,0,0,384,96Zm0,352A128,128,0,1,1,512,320,128.14,128.14,0,0,1,384,448Zm0-192a64,64,0,1,0,64,64A64.07,64.07,0,0,0,384,256Z"/><rect class="a" width="768" height="768"/></svg>