<svg xmlns="http://www.w3.org/2000/svg" width="768" height="768" viewBox="0 0 768 768"><defs><style>.a{opacity:0;}</style></defs><title>text-right</title><path d="M672,608H96a32,32,0,0,0,0,64H672a32,32,0,0,0,0-64Zm32-138.33a32,32,0,0,1-32,32H289a32,32,0,0,1,0-64H672A32,32,0,0,1,704,469.67ZM704,129a32,32,0,0,1-32,32H289a32,32,0,0,1,0-64H672A32,32,0,0,1,704,129Zm0,170.33a32,32,0,0,1-32,32H96a32,32,0,0,1,0-64H672A32,32,0,0,1,704,299.33Z"/><rect class="a" width="768" height="768" transform="translate(768 768) rotate(180)"/></svg>