<svg xmlns="http://www.w3.org/2000/svg" width="768" height="768" viewBox="0 0 768 768"><defs><style>.a{opacity:0;}</style></defs><title>infinity</title><path d="M551.35,576a184.3,184.3,0,0,1-124.78-48.53,32,32,0,0,1,43.24-47.19A120.65,120.65,0,0,0,672,391.35v-14.7a120.65,120.65,0,0,0-232.67-44.81L388.09,459.93A184.65,184.65,0,0,1,216.65,576C114.83,576,32,493.17,32,391.35v-14.7C32,274.83,114.83,192,216.65,192a184.5,184.5,0,0,1,122.82,46.77,32,32,0,1,1-42.56,47.79A120.66,120.66,0,0,0,96,376.65v14.7a120.65,120.65,0,0,0,232.67,44.81l51.24-128.09A184.65,184.65,0,0,1,551.35,192C653.17,192,736,274.83,736,376.65v14.7C736,493.17,653.17,576,551.35,576Z"/><rect class="a" width="768" height="768"/></svg>