<svg xmlns="http://www.w3.org/2000/svg" width="768" height="768" viewBox="0 0 768 768"><defs><style>.a{opacity:0;}</style></defs><title>calendar-trend</title><path d="M672,97H576V64a32,32,0,0,0-64,0V97H256V64a32,32,0,0,0-64,0V97H96a32,32,0,0,0-32,32V672a32,32,0,0,0,32,32H672a32,32,0,0,0,32-32V129A32,32,0,0,0,672,97ZM640,640H128V352H640Zm0-352H128V161h64v63a32,32,0,0,0,64,0V161H512v63a32,32,0,0,0,64,0V161h64ZM528,416v96a16,16,0,0,1-27.31,11.31l-25.38-25.37-68.68,68.69a32,32,0,0,1-45.26,0L320,525.25l-41.37,41.38a32,32,0,0,1-45.26-45.26l64-64a32,32,0,0,1,45.26,0L384,498.75l46.06-46.06-25.37-25.38A16,16,0,0,1,416,400h96A16,16,0,0,1,528,416Z"/><rect class="a" width="768" height="768"/></svg>