<svg xmlns="http://www.w3.org/2000/svg" width="768" height="768" viewBox="0 0 768 768"><defs><style>.a{opacity:0;}</style></defs><title>image-broken</title><path d="M704,704H64a32,32,0,0,1-32-32V128A32,32,0,0,1,64,96H289a32,32,0,0,1,0,64H96V640H672V160H435.78L358.94,313.68,470.63,425.37a32,32,0,0,1,6,36.94l-64,128a32,32,0,0,1-57.24-28.62l53.68-107.37L297.37,342.63a32,32,0,0,1-6-36.94l96-192A32,32,0,0,1,416,96H704a32,32,0,0,1,32,32V672A32,32,0,0,1,704,704Z"/><rect class="a" width="768" height="768"/></svg>