<svg version="1.1" xmlns="http://www.w3.org/2000/svg" width="32" height="32" viewBox="0 0 32 32">
<title>miscchart-pie</title>
<path d="M20 13.333h9.333c0.736 0 1.333-0.597 1.333-1.333 0-5.891-4.776-10.667-10.667-10.667-0.736 0-1.333 0.597-1.333 1.333v9.333c0 0.736 0.597 1.333 1.333 1.333zM21.333 4.111c3.355 0.573 5.982 3.201 6.555 6.555h-6.555v-6.555zM29.333 14.667h-12v-12c0-0.736-0.597-1.333-1.333-1.333-6.976 0.005-12.983 4.921-14.368 11.758s2.236 13.703 8.66 16.423c4.53 1.916 9.718 1.434 13.817-1.285s6.561-7.311 6.558-12.229c0-0.736-0.597-1.333-1.333-1.333zM24.485 24.485c-4.686 4.686-12.284 4.686-16.971 0s-4.686-12.284 0-16.971c1.92-1.931 4.445-3.146 7.152-3.442v11.927c0 0.736 0.597 1.333 1.333 1.333h11.927c-0.296 2.707-1.51 5.232-3.442 7.152z"></path>
</svg>
