<svg xmlns="http://www.w3.org/2000/svg" width="768" height="768" viewBox="0 0 768 768"><defs><style>.a{opacity:0;}</style></defs><title>calendar-checked</title><path d="M672,97H576V64a32,32,0,0,0-64,0V97H256V64a32,32,0,0,0-64,0V97H96a32,32,0,0,0-32,32V672a32,32,0,0,0,32,32H672a32,32,0,0,0,32-32V129A32,32,0,0,0,672,97ZM640,640H128V352H640Zm0-352H128V161h64v63a32,32,0,0,0,64,0V161H512v63a32,32,0,0,0,64,0V161h64ZM276.37,502.63a32,32,0,0,1,45.26-45.26L363,498.75,468.37,393.37a32,32,0,0,1,45.26,45.26l-128,128a32,32,0,0,1-45.26,0Z"/><rect class="a" width="768" height="768"/></svg>