<svg xmlns="http://www.w3.org/2000/svg" width="768" height="768" viewBox="0 0 768 768"><defs><style>.a{opacity:0;}</style></defs><title>资源 439</title><path d="M256,96H64a32,32,0,0,0-32,32V320a32,32,0,0,0,32,32H256a32,32,0,0,0,32-32V128A32,32,0,0,0,256,96ZM224,288H96V160H224Zm32,128H64a32,32,0,0,0-32,32V640a32,32,0,0,0,32,32H256a32,32,0,0,0,32-32V448A32,32,0,0,0,256,416ZM224,608H96V480H224ZM351,160a32,32,0,0,1,32-32H704a32,32,0,0,1,0,64H383A32,32,0,0,1,351,160ZM736,288a32,32,0,0,1-32,32H383a32,32,0,0,1,0-64H704A32,32,0,0,1,736,288Zm0,192a32,32,0,0,1-32,32H383a32,32,0,0,1,0-64H704A32,32,0,0,1,736,480Zm0,128a32,32,0,0,1-32,32H383a32,32,0,0,1,0-64H704A32,32,0,0,1,736,608Z"/><rect class="a" width="768" height="768"/></svg>