<svg xmlns="http://www.w3.org/2000/svg" width="768" height="768" viewBox="0 0 768 768"><defs><style>.a{opacity:0;}</style></defs><title>chat</title><path d="M424,384a40,40,0,1,1-40-40A40,40,0,0,1,424,384ZM248,344a40,40,0,1,0,40,40A40,40,0,0,0,248,344Zm272,0a40,40,0,1,0,40,40A40,40,0,0,0,520,344Zm1,364.33A352,352,0,1,0,81.54,564.13L64.44,666.74a32,32,0,0,0,36.82,36.82l102.61-17.1A352.61,352.61,0,0,0,521,708.33Zm-315.78-87-70.31,11.72,11.72-70.31A32,32,0,0,0,142,540.12,287.94,287.94,0,1,1,227.88,626a32.13,32.13,0,0,0-22.64-4.69Z"/><rect class="a" width="768" height="768"/></svg>