<svg xmlns="http://www.w3.org/2000/svg" width="768" height="768" viewBox="0 0 768 768"><defs><style>.a{opacity:0;}</style></defs><title>planet</title><path d="M681.63,92.37C656.56,67.3,622.55,63,598.46,63.81c-27.77.93-59.58,8.79-94.6,23.32A320.34,320.34,0,0,0,87.13,503.86c-14.53,35-22.39,66.83-23.32,94.6-1.46,43.67,14.72,69.33,28.56,83.17,13.34,13.33,37.43,28.65,77.73,28.65q4.07,0,8.37-.21c28.33-1.43,60.69-9.89,96.27-25.13a320.4,320.4,0,0,0,410.2-410.2c15.24-35.58,23.7-67.94,25.13-96.27C712.35,133.1,695.86,106.61,681.63,92.37ZM203,203a256.31,256.31,0,0,1,412,70.4c-31.47,62.75-82.9,131.26-146.63,195S336.13,583.53,273.38,615A256.13,256.13,0,0,1,203,203ZM137.63,636.37c-10.12-10.12-12.42-30.54-7.28-57.22a324.69,324.69,0,0,0,66.14,64.22C169,649,148,646.78,137.63,636.37ZM565,565a254.33,254.33,0,0,1-181,75q-12,0-23.84-1.1c51.38-33,104-75.78,153.47-125.27S605.92,411.54,638.9,360.16Q640,372,640,384A254.33,254.33,0,0,1,565,565Zm45.25-407.29a323.58,323.58,0,0,0-31.12-27.38c26.68-5.14,47.1-2.84,57.22,7.28,10.41,10.4,12.59,31.39,7,58.86A323.79,323.79,0,0,0,610.27,157.73Z"/><rect class="a" width="768" height="768"/></svg>