<svg xmlns="http://www.w3.org/2000/svg" width="768" height="768" viewBox="0 0 768 768"><defs><style>.a{opacity:0;}</style></defs><title>currency-paper</title><path d="M490.46,220l-26.77,25.1h3.66c15.34,0,27.78,7.77,27.78,17.36s-12.44,17.37-27.78,17.37H411.78v17.36h55.57c15.34,0,27.78,7.78,27.78,17.37s-12.44,17.36-27.78,17.36H411.78v34.73c0,9.59-12.44,17.36-27.78,17.36s-27.78-7.77-27.78-17.36V331.91H300.65c-15.34,0-27.78-7.78-27.78-17.36s12.44-17.37,27.78-17.37h55.57V279.82H300.65c-15.34,0-27.78-7.78-27.78-17.37s12.44-17.36,27.78-17.36h3.66L277.54,220c-8.51-8-5.06-18.75,7.7-24.07s30-3.17,38.53,4.81l47.32,44.36h25.82l47.32-44.36c8.51-8,25.76-10.13,38.53-4.81S499,212,490.46,220ZM736,448V672a32,32,0,0,1-32,32H64a32,32,0,0,1-32-32V448c0-.29,0-.58,0-.87s0-.46,0-.69c0-.6.07-1.2.14-1.79l32-319.83A32,32,0,0,1,96,96H672a32,32,0,0,1,31.84,28.82l32,319.81c.07.6.11,1.21.14,1.82,0,.2,0,.41,0,.62S736,447.69,736,448ZM99.36,416H668.64L643,160H125ZM96,480v47H672V480ZM672,640V591H96v49Z"/><rect class="a" width="768" height="768"/></svg>