<svg xmlns="http://www.w3.org/2000/svg" width="768" height="768" viewBox="0 0 768 768"><defs><style>.a{opacity:0;}</style></defs><title>home</title><path d="M722.35,261.78l-320-224a32,32,0,0,0-36.7,0l-320,224a32,32,0,1,0,36.7,52.44L96,304.66V608a96.11,96.11,0,0,0,96,96H576a96.11,96.11,0,0,0,96-96V304.66l13.65,9.56a32,32,0,0,0,36.7-52.44ZM448,640H320V513a64,64,0,0,1,128,0Zm160-32a32,32,0,0,1-32,32H512V513a128,128,0,0,0-256,0V640H192a32,32,0,0,1-32-32V259.86l224-156.8,224,156.8Z"/><rect class="a" width="768" height="768"/></svg>