<svg xmlns="http://www.w3.org/2000/svg" width="768" height="768" viewBox="0 0 768 768"><defs><style>.a{opacity:0;}</style></defs><title>invoice</title><path d="M656,64H224a96.11,96.11,0,0,0-96,96V544H64a32,32,0,0,0-32,32v80a80.09,80.09,0,0,0,80,80H560a80.09,80.09,0,0,0,80-80V256h64a32,32,0,0,0,32-32V144A80.09,80.09,0,0,0,656,64ZM480,672H112a16,16,0,0,1-16-16V608H480Zm96-16a16,16,0,0,1-32,0V576a32,32,0,0,0-32-32H192V160a32,32,0,0,1,32-32H576Zm96-464H640V144a16,16,0,0,1,32,0ZM256,256a32,32,0,0,1,32-32H480a32,32,0,0,1,0,64H288A32,32,0,0,1,256,256Zm0,128a32,32,0,0,1,32-32H416a32,32,0,0,1,0,64H288A32,32,0,0,1,256,384Z"/><rect class="a" width="768" height="768"/></svg>