<!-- Generated by IcoMoon.io -->
<svg version="1.1" xmlns="http://www.w3.org/2000/svg" width="32" height="32" viewBox="0 0 32 32">
<title>miscmove</title>
<path d="M30.276 15.057l-4-4c-0.521-0.521-1.365-0.521-1.886 0s-0.521 1.365 0 1.886l1.724 1.724h-8.781v-8.781l1.724 1.724c0.521 0.521 1.365 0.521 1.886 0s0.521-1.365 0-1.886l-4-4c-0.25-0.25-0.589-0.391-0.943-0.391s-0.693 0.141-0.943 0.391l-4 4c-0.521 0.521-0.521 1.365 0 1.886s1.365 0.521 1.886 0l1.724-1.724v8.781h-8.781l1.724-1.724c0.521-0.521 0.521-1.365 0-1.886s-1.365-0.521-1.886 0l-4 4c-0.25 0.25-0.391 0.589-0.391 0.943s0.141 0.693 0.391 0.943l4 4c0.521 0.521 1.365 0.521 1.886 0s0.521-1.365 0-1.886l-1.724-1.724h8.781v8.781l-1.724-1.724c-0.521-0.521-1.365-0.521-1.886 0s-0.521 1.365 0 1.886l4 4c0.25 0.25 0.589 0.391 0.943 0.391s0.693-0.141 0.943-0.391l4-4c0.521-0.521 0.521-1.365 0-1.886s-1.365-0.521-1.886 0l-1.724 1.724v-8.781h8.781l-1.724 1.724c-0.521 0.521-0.521 1.365 0 1.886s1.365 0.521 1.886 0l4-4c0.25-0.25 0.391-0.589 0.391-0.943s-0.141-0.693-0.391-0.943z"></path>
</svg>
