<svg xmlns="http://www.w3.org/2000/svg" width="768" height="768" viewBox="0 0 768 768"><defs><style>.a{opacity:0;}</style></defs><title>image</title><path d="M704,96H64a32,32,0,0,0-32,32V672a32,32,0,0,0,32,32H704a32,32,0,0,0,32-32V128A32,32,0,0,0,704,96Zm-32,64V466.74L534.63,329.37a32,32,0,0,0-45.26,0L352,466.75l-73.37-73.38a32,32,0,0,0-45.26,0L96,530.74V160ZM96,640V621.26l160-160,73.37,73.38a32,32,0,0,0,45.26,0L512,397.25l160,160V640ZM256,279a40,40,0,1,1,40,40A40,40,0,0,1,256,279Z"/><rect class="a" width="768" height="768"/></svg>