<svg xmlns="http://www.w3.org/2000/svg" width="768" height="768" viewBox="0 0 768 768"><defs><style>.a{opacity:0;}</style></defs><title>book-open</title><path d="M704,672H64a32,32,0,0,1-32-32V128A32,32,0,0,1,64,96H320a95.63,95.63,0,0,1,64,24.5A95.63,95.63,0,0,1,448,96H704a32,32,0,0,1,32,32V640A32,32,0,0,1,704,672ZM416,608H672V160H448a32,32,0,0,0-32,32ZM96,608H352V192a32,32,0,0,0-32-32H96ZM288,288a32,32,0,0,0-32-32H192a32,32,0,0,0,0,64h64A32,32,0,0,0,288,288Zm0,128a32,32,0,0,0-32-32H192a32,32,0,0,0,0,64h64A32,32,0,0,0,288,416ZM608,288a32,32,0,0,0-32-32H512a32,32,0,0,0,0,64h64A32,32,0,0,0,608,288Zm0,128a32,32,0,0,0-32-32H512a32,32,0,0,0,0,64h64A32,32,0,0,0,608,416Z"/><rect class="a" width="768" height="768"/></svg>