<svg xmlns="http://www.w3.org/2000/svg" width="768" height="768" viewBox="0 0 768 768"><defs><style>.a{opacity:0;}</style></defs><title>chart-org</title><path d="M704,480H640V384a32,32,0,0,0-32-32H416V288H544a32,32,0,0,0,32-32V129a32,32,0,0,0-32-32H224a32,32,0,0,0-32,32V256a32,32,0,0,0,32,32H352v64H160a32,32,0,0,0-32,32v96H64a32,32,0,0,0-32,32V640a32,32,0,0,0,32,32H192a32,32,0,0,0,32-32V512a32,32,0,0,0-32-32V416H352v64H320a32,32,0,0,0-32,32V640a32,32,0,0,0,32,32H448a32,32,0,0,0,32-32V512a32,32,0,0,0-32-32H416V416H576v64a32,32,0,0,0-32,32V640a32,32,0,0,0,32,32H704a32,32,0,0,0,32-32V512A32,32,0,0,0,704,480ZM256,224V161H512v63ZM160,608H96V544h64Zm256-64v64H352V544Zm256,64H608V544h64Z"/><rect class="a" width="768" height="768"/></svg>