<svg version="1.1" xmlns="http://www.w3.org/2000/svg" width="32" height="32" viewBox="0 0 32 32">
<title>sign-zhsign-zh-approval</title>
<path d="M24.028 11.569c-0.002 0.318-0.034 0.627-0.095 0.927l0.005-0.030c-0.077 0.393-0.161 0.718-0.26 1.036l0.019-0.069c-0.115 0.373-0.272 0.618-0.481 0.75-0.118 0.076-0.261 0.121-0.416 0.121-0.003 0-0.006-0-0.009-0h0c-0.16-0.003-0.312-0.035-0.452-0.090l0.009 0.003c-0.375-0.132-0.503-0.381-0.545-0.566-0.047-0.208-0.013-0.5 0.105-0.921 0.241-0.837 0.181-1.071 0.167-1.11-0.018-0.047-0.165-0.117-0.496-0.117h-11.417c-0.003-0-0.007-0-0.010-0s-0.007 0-0.011 0l0-0c-0.008 0.030-0.013 0.065-0.013 0.101 0 0.005 0 0.010 0 0.015l-0-0.001v1.45c0 0.32-0.096 0.568-0.285 0.739-0.169 0.152-0.393 0.245-0.639 0.245-0.010 0-0.019-0-0.029-0l0.001 0c-0.289 0-0.525-0.072-0.702-0.216-0.198-0.16-0.298-0.407-0.298-0.734v-1.467c0-0.649 0.158-1.153 0.469-1.5 0.32-0.355 0.83-0.535 1.514-0.535h4.661c-0.001-0.003-0.002-0.005-0.003-0.007l0 0c-0.316-0.537-0.199-1.045 0.316-1.359 0.27-0.174 0.535-0.226 0.785-0.155 0.244 0.070 0.463 0.275 0.691 0.644 0.088 0.139 0.171 0.299 0.242 0.467l0.008 0.022c0.050 0.119 0.098 0.25 0.145 0.387h4.572c0.024-0 0.051-0.001 0.079-0.001 0.371 0 0.735 0.034 1.087 0.099l-0.037-0.006c0.331 0.066 0.599 0.182 0.796 0.344 0.207 0.172 0.358 0.405 0.426 0.672l0.002 0.009c0.061 0.242 0.097 0.519 0.097 0.805 0 0.017-0 0.033-0 0.050l0-0.002zM30.667 16c-0.006 8.098-6.572 14.66-14.67 14.66-6.037 0-11.222-3.646-13.473-8.857l-0.037-0.095c-0.702-1.654-1.11-3.578-1.11-5.597 0-8.102 6.568-14.67 14.67-14.67 5.998 0 11.156 3.6 13.43 8.757l0.037 0.094c0.729 1.677 1.153 3.63 1.153 5.682 0 0.009 0 0.019-0 0.028v-0.001zM28 16c-0-6.627-5.373-12-12-12s-12 5.373-12 12 5.373 12 12 12c3.314 0 6.314-1.343 8.485-3.515v0c2.171-2.16 3.515-5.15 3.515-8.453 0-0.011-0-0.023-0-0.034v0.002zM21.937 13.506c0.264 0.278 0.392 0.702 0.392 1.296v5.117c0 0.578-0.125 1.002-0.383 1.295-0.265 0.302-0.703 0.455-1.3 0.455h-3.733v2.033c0 0.365-0.086 0.625-0.262 0.792-0.169 0.16-0.412 0.241-0.721 0.241-0.302 0-0.542-0.086-0.711-0.256s-0.256-0.427-0.256-0.777v-2.033h-3.733c-0.622 0-1.049-0.151-1.307-0.462-0.242-0.292-0.36-0.713-0.36-1.288v-5.116c0-0.59 0.12-1.012 0.368-1.289 0.258-0.288 0.682-0.428 1.298-0.428h3.733v-0.467c0-0.342 0.090-0.597 0.27-0.757 0.167-0.15 0.402-0.227 0.697-0.227 0.305 0 0.545 0.076 0.713 0.226 0.179 0.161 0.27 0.417 0.27 0.757v0.467h3.733c0.601 0 1.022 0.138 1.292 0.421zM16.912 18.285v1.45h3.467v-1.45zM20.378 16.335v-1.317h-3.467v1.317zM11.512 18.285v1.45h3.45v-1.45zM11.512 15.019v1.317h3.45v-1.317z"></path>
</svg>
