<svg xmlns="http://www.w3.org/2000/svg" width="768" height="768" viewBox="0 0 768 768"><defs><style>.a{opacity:0;}</style></defs><title>sign-cross</title><path d="M519.63,293.63,429.26,384l90.37,90.37a32,32,0,0,1-45.26,45.26L384,429.26l-90.37,90.37a32,32,0,0,1-45.26-45.26L338.74,384l-90.37-90.37a32,32,0,0,1,45.26-45.26L384,338.74l90.37-90.37a32,32,0,0,1,45.26,45.26ZM736,384A352.09,352.09,0,0,1,59.67,521,352.09,352.09,0,0,1,708.33,247,349.83,349.83,0,0,1,736,384Zm-64,0a288,288,0,1,0-84.35,203.65A286.15,286.15,0,0,0,672,384Z"/><rect class="a" width="768" height="768"/></svg>