<!-- Generated by IcoMoon.io -->
<svg version="1.1" xmlns="http://www.w3.org/2000/svg" width="32" height="32" viewBox="0 0 32 32">
<title>sign-zhsign-zh-num-even</title>
<path d="M16 1.333c-8.1 0-14.667 6.567-14.667 14.667s6.567 14.667 14.667 14.667 14.667-6.567 14.667-14.667-6.567-14.667-14.667-14.667zM15.958 28c-6.627 0-12-5.372-12-12s5.373-12 12-12 12 5.372 12 12-5.372 12-12 12zM15.333 20.455c-0.206 0.206-0.49 0.333-0.804 0.333-0.411 0-0.772-0.219-0.971-0.546l-0.003-0.005c-0.22-0.367-0.453-0.739-0.696-1.108-0.813 1.476-1.771 2.746-2.885 3.861l0-0c-0.213 0.212-0.506 0.343-0.83 0.343h-0c-0.015 0-0.030 0-0.045 0-0.631-0.025-1.133-0.542-1.133-1.177 0-0.323 0.13-0.616 0.341-0.829l-0 0c1.229-1.239 2.247-2.689 2.995-4.29l0.039-0.094c-0.814-1.091-1.703-2.202-2.644-3.305-0.168-0.197-0.271-0.456-0.271-0.738 0-0.319 0.131-0.608 0.343-0.815l0-0c0.205-0.199 0.484-0.322 0.793-0.322 0.343 0 0.65 0.152 0.858 0.391l0.001 0.001c0.662 0.766 1.285 1.519 1.853 2.241 0.32-1.103 0.57-2.409 0.701-3.75l0.007-0.091h-3.784c-0.6-0.012-1.081-0.501-1.081-1.103s0.482-1.091 1.080-1.103l0.001-0h4.924c0.609 0.001 1.102 0.494 1.102 1.102v0.515c-0.125 2.485-0.539 4.673-1.267 6.685 0.56 0.763 1.094 1.549 1.589 2.336 0.111 0.172 0.176 0.381 0.176 0.606 0 0.314-0.128 0.598-0.335 0.803l-0 0zM23.744 23.18c-0.221 0.259-0.549 0.423-0.914 0.423-0.354 0-0.673-0.154-0.892-0.398l-0.001-0.001c-0.854-0.95-1.665-1.986-2.403-3.076l-0.064-0.101c-0.909 1.204-1.824 2.269-2.802 3.273l0.007-0.008c-0.215 0.221-0.515 0.358-0.847 0.358h-0.046c-0.632-0.026-1.134-0.544-1.134-1.18 0-0.34 0.143-0.646 0.373-0.861l0.001-0.001c1.268-1.187 2.352-2.417 3.222-3.661-1.26-2.417-1.988-4.911-2.167-7.42-0.295-0.088-0.507-0.357-0.508-0.676v-0.797c0-0.389 0.315-0.704 0.704-0.704h6.57c0.389 0 0.704 0.315 0.704 0.704v1.167l-0.002 0.014c-0.356 2.708-1.266 5.311-2.706 7.743 0.884 1.349 1.825 2.525 2.865 3.605l-0.007-0.008c0.205 0.215 0.332 0.506 0.332 0.828 0 0.297-0.108 0.569-0.287 0.778l0.001-0.002zM19.594 15.736c0.796-1.497 1.414-3.232 1.762-5.064l0.018-0.116h-3.208c0.173 1.913 0.681 3.671 1.466 5.267l-0.039-0.088z"></path>
</svg>
