<svg xmlns="http://www.w3.org/2000/svg" width="768" height="768" viewBox="0 0 768 768"><defs><style>.a{opacity:0;}</style></defs><title>sign-cny</title><path d="M416,352v64h96a32,32,0,0,1,0,64H416v64a32,32,0,0,1-64,0V480H256a32,32,0,0,1,0-64h96V352H256a32,32,0,0,1,0-64h19.6l-18-53.88a32,32,0,0,1,60.72-20.24L343.06,288h81.88l24.7-74.12a32,32,0,0,1,60.72,20.24L492.4,288H512a32,32,0,0,1,0,64Zm320,32A352.09,352.09,0,0,1,59.67,521,352.09,352.09,0,0,1,708.33,247,349.83,349.83,0,0,1,736,384Zm-64,0a288,288,0,1,0-84.35,203.65A286.15,286.15,0,0,0,672,384Z"/><rect class="a" width="768" height="768"/></svg>