<svg xmlns="http://www.w3.org/2000/svg" width="768" height="768" viewBox="0 0 768 768"><defs><style>.a{opacity:0;}</style></defs><title>sign-info-bold</title><path d="M469,528l-4.42,25.67s-91.39,50.24-143.57,0c-26.28-25.27-10.18-72.15,6.22-115.53,35-103.35,7-112-49.15-89.86l4.43-25.67s91.39-50.23,143.58,0c26.27,25.27,10.17,72.15-6.23,115.53C384.79,541.48,412.82,550.13,469,528ZM419.2,160a52.19,52.19,0,1,0,52.19,52.19A52.18,52.18,0,0,0,419.2,160ZM736,384A352.09,352.09,0,0,1,59.67,521,352.09,352.09,0,0,1,708.33,247,349.83,349.83,0,0,1,736,384Zm-64,0a288,288,0,1,0-84.35,203.65A286.15,286.15,0,0,0,672,384Z"/><rect class="a" width="768" height="768"/></svg>