<svg version="1.1" xmlns="http://www.w3.org/2000/svg" width="32" height="32" viewBox="0 0 32 32">
<title>sign-zhsign-zh-empty-ban</title>
<path d="M10.908 16.517h1.837l2.152 2.152h-3.989c-0.585-0.012-1.055-0.489-1.055-1.076s0.47-1.064 1.054-1.076l0.001-0zM9.372 14.808c-0.046 0.115-0.073 0.249-0.073 0.389 0 0.168 0.039 0.327 0.108 0.469l-0.003-0.006 0.037 0.078c0.18 0.368 0.551 0.618 0.981 0.618 0 0 0 0 0.001 0h-0c0 0 0 0 0.001 0 0.158 0 0.308-0.034 0.442-0.096l-0.007 0.003q0.565-0.254 1.099-0.534l-1.667-1.667c-0.108 0.047-0.216 0.094-0.326 0.14-0.273 0.114-0.485 0.33-0.59 0.599l-0.002 0.007zM17.799 13.962c1.255 0.65 2.332 1.343 3.337 2.123l-0.049-0.036c0.18 0.138 0.407 0.221 0.655 0.221h0c0.063-0 0.124-0.005 0.184-0.015l-0.006 0.001c0.301-0.052 0.554-0.223 0.714-0.462l0.002-0.004 0.072-0.109c0.113-0.167 0.18-0.373 0.18-0.595 0-0.358-0.175-0.674-0.445-0.869l-0.003-0.002c-1.063-0.772-2.271-1.497-3.541-2.114l-0.144-0.063c-0.137-0.068-0.298-0.107-0.468-0.107-0.593 0-1.074 0.481-1.074 1.074 0 0.257 0.090 0.492 0.24 0.677l-0.002-0.002 0.16 0.16c0.055 0.044 0.116 0.085 0.181 0.118l0.006 0.003zM15.125 11.355h6.678v1.005c0.012 0.619 0.517 1.117 1.138 1.117s1.126-0.497 1.138-1.115l0-0.001v-1.985c-0.001-0.628-0.51-1.137-1.138-1.138h-5.65c-0.091-0.271-0.193-0.571-0.295-0.855-0.164-0.444-0.584-0.755-1.076-0.755-0.433 0-0.809 0.24-1.004 0.594l-0.003 0.006c-0.087 0.156-0.138 0.343-0.138 0.542 0 0.169 0.037 0.33 0.104 0.474l-0.003-0.007h-1.866zM9.583 5.811c1.8-1.145 3.993-1.825 6.344-1.825 0.006 0 0.013 0 0.019 0h-0.001c6.627 0 12 5.373 12 12 0 0.005 0 0.011 0 0.017 0 2.352-0.68 4.545-1.854 6.394l0.029-0.049 1.951 1.951c1.617-2.316 2.583-5.191 2.583-8.292 0-0.008 0-0.015-0-0.023v0.001c0-8.1-6.567-14.667-14.667-14.667-0.007 0-0.014-0-0.022-0-3.1 0-5.975 0.967-8.339 2.615l0.048-0.031zM22.358 26.13c-1.811 1.165-4.023 1.857-6.396 1.857-0.006 0-0.012 0-0.019 0h0.001c-6.628 0-12-5.373-12-12 0-0.006-0-0.013-0-0.019 0-2.373 0.692-4.583 1.885-6.442l-0.029 0.048-1.9-1.9c-1.617 2.316-2.583 5.191-2.583 8.291 0 0.008 0 0.016 0 0.024v-0.001c0 8.1 6.566 14.667 14.667 14.667 0.007 0 0.014 0 0.022 0 3.1 0 5.975-0.967 8.338-2.615l-0.048 0.031zM9.439 23.928h10.718l-2.188-2.188h-0.655v-0.655l-2.294-2.294v2.949h-5.583c-0.604 0-1.094 0.49-1.094 1.094s0.49 1.094 1.094 1.094v0zM9.447 13.48c0.001 0 0.001 0 0.002 0 0.083 0 0.164-0.009 0.242-0.026l-0.008 0.001-1.375-1.375v0.261c0 0.629 0.51 1.138 1.138 1.138h0zM22.539 17.593c-0.001-0.594-0.482-1.076-1.076-1.076h-1.175l1.884 1.884c0.225-0.198 0.367-0.486 0.367-0.808 0 0 0-0 0-0v0zM28.92 27.035l-23.983-23.983c-0.242-0.24-0.575-0.389-0.943-0.389s-0.701 0.149-0.943 0.389l0-0c-0.24 0.242-0.389 0.575-0.389 0.943s0.149 0.701 0.389 0.943l23.982 23.983c0.242 0.24 0.575 0.389 0.943 0.389s0.701-0.148 0.943-0.389l-0 0c0.24-0.242 0.389-0.575 0.389-0.943s-0.148-0.701-0.389-0.943l0 0z"></path>
</svg>
