<svg version="1.1" xmlns="http://www.w3.org/2000/svg" width="32" height="32" viewBox="0 0 32 32">
<title>sign-zhsign-zh-empty</title>
<path d="M16 1.333c-8.1 0-14.667 6.567-14.667 14.667s6.567 14.667 14.667 14.667 14.667-6.567 14.667-14.667-6.567-14.667-14.667-14.667zM15.958 28c-6.627 0-12-5.372-12-12s5.373-12 12-12 12 5.372 12 12-5.372 12-12 12zM24.093 10.39v1.985c-0.012 0.619-0.517 1.117-1.138 1.117s-1.126-0.497-1.138-1.115l-0-0.001v-1.006h-11.217v0.987c-0.012 0.619-0.517 1.117-1.138 1.117s-1.126-0.497-1.138-1.115l-0-0.001v-1.966c0.001-0.628 0.51-1.137 1.138-1.138h5.427c-0.063-0.137-0.1-0.298-0.1-0.467 0-0.569 0.416-1.041 0.96-1.129l0.007-0.001c0.053-0.009 0.115-0.014 0.177-0.014 0.493 0 0.913 0.311 1.075 0.748l0.003 0.008c0.102 0.283 0.205 0.583 0.295 0.855h5.65c0.628 0.001 1.137 0.509 1.138 1.137v0zM24.040 22.849c-0.001 0.604-0.49 1.093-1.094 1.094h-13.494c-0.604 0-1.094-0.49-1.094-1.094s0.49-1.094 1.094-1.094v0h5.583v-3.073h-4.113c-0.006 0-0.014 0-0.021 0-0.594 0-1.076-0.482-1.076-1.076s0.482-1.076 1.076-1.076c0.007 0 0.015 0 0.022 0l-0.001-0h10.554c0.585 0.012 1.055 0.489 1.055 1.076s-0.47 1.064-1.054 1.076l-0.001 0h-4.149v3.072h5.617c0 0 0.001 0 0.001 0 0.604 0 1.094 0.49 1.095 1.094v0zM9.454 15.75l-0.037-0.078c-0.066-0.135-0.104-0.294-0.104-0.462 0-0.446 0.271-0.829 0.657-0.993l0.007-0.003c1.258-0.523 2.36-1.14 3.273-1.836 0.18-0.138 0.408-0.221 0.655-0.221 0.597 0 1.081 0.484 1.081 1.081 0 0.037-0.002 0.073-0.005 0.108l0-0.005c-0.029 0.307-0.184 0.572-0.412 0.748l-0.002 0.002c-1.075 0.831-2.318 1.566-3.694 2.183-0.128 0.059-0.278 0.093-0.435 0.093-0 0-0.001 0-0.001 0h0c-0 0-0 0-0 0-0.43 0-0.802-0.249-0.979-0.611l-0.003-0.006zM17.264 13.295c-0.023-0.083-0.036-0.178-0.036-0.276 0-0.593 0.481-1.075 1.075-1.075 0.17 0 0.331 0.039 0.473 0.11l-0.006-0.003c1.413 0.68 2.621 1.405 3.755 2.225l-0.071-0.049c0.273 0.197 0.448 0.514 0.448 0.871 0 0.222-0.067 0.427-0.182 0.598l0.002-0.004-0.072 0.108c-0.163 0.242-0.416 0.413-0.71 0.464l-0.006 0.001c-0.053 0.009-0.113 0.015-0.175 0.015-0.001 0-0.002 0-0.002 0h0c-0 0-0 0-0 0-0.247 0-0.475-0.083-0.657-0.223l0.003 0.002c-0.957-0.743-2.033-1.436-3.169-2.030l-0.118-0.056c-0.269-0.138-0.468-0.38-0.548-0.67l-0.002-0.008z"></path>
</svg>
