<!-- Generated by IcoMoon.io -->
<svg version="1.1" xmlns="http://www.w3.org/2000/svg" width="32" height="32" viewBox="0 0 32 32">
<title>sign-zhsign-zh-num-odd</title>
<path d="M16 1.333c-8.1 0-14.667 6.567-14.667 14.667s6.567 14.667 14.667 14.667 14.667-6.567 14.667-14.667-6.567-14.667-14.667-14.667zM15.958 28c-6.627 0-12-5.372-12-12s5.373-12 12-12 12 5.372 12 12-5.372 12-12 12zM23.066 19.167h-5.937v-0.896h4.279c0.639-0.001 1.157-0.519 1.158-1.158v-5.804c-0.001-0.639-0.519-1.157-1.158-1.158h-1.802c0.196-0.288 0.385-0.588 0.562-0.893 0.094-0.16 0.149-0.352 0.149-0.558 0-0.616-0.5-1.116-1.116-1.116-0.446 0-0.831 0.262-1.010 0.64l-0.003 0.007c-0.356 0.763-0.699 1.392-1.076 1.998l0.046-0.080h-2.68c0.132-0.173 0.211-0.392 0.211-0.63 0-0.235-0.078-0.453-0.209-0.627l0.002 0.003c-0.23-0.31-0.471-0.613-0.714-0.898-0.192-0.232-0.481-0.379-0.804-0.379-0.575 0-1.042 0.466-1.042 1.042 0 0.253 0.090 0.484 0.239 0.664l-0.001-0.002c0.208 0.262 0.417 0.542 0.625 0.828h-2.195c-0.639 0.001-1.157 0.519-1.158 1.158v5.804c0.001 0.639 0.519 1.157 1.158 1.158h4.279v0.896h-5.937c-0.585 0.012-1.055 0.489-1.055 1.076s0.47 1.064 1.054 1.076l0.001 0h5.937v1.97c0 0.624 0.506 1.129 1.129 1.129s1.129-0.506 1.129-1.129v0-1.972h5.937c0.585-0.012 1.055-0.489 1.055-1.076s-0.47-1.064-1.054-1.076l-0.001-0zM17.129 13.197v-1.018h3.231v1.018zM17.129 16.225v-1.053h3.231v1.053zM14.871 15.172v1.053h-3.231v-1.053zM14.871 12.179v1.018h-3.231v-1.018z"></path>
</svg>
