<svg xmlns="http://www.w3.org/2000/svg" width="768" height="768" viewBox="0 0 768 768"><defs><style>.a{opacity:0;}</style></defs><title>sign-question</title><path d="M384,480a32,32,0,0,1-32-32,68.47,68.47,0,0,1,14.12-41.83,69.65,69.65,0,0,1,36-24.77A64.21,64.21,0,0,0,448,319.08c-.47-34.3-28.77-62.6-63.07-63.07A64,64,0,0,0,320,320a32,32,0,0,1-64,0,128,128,0,0,1,256-1.81A128.44,128.44,0,0,1,420.21,442.8,5.54,5.54,0,0,0,416,448,32,32,0,0,1,384,480Zm0,32a40,40,0,1,0,40,40A40,40,0,0,0,384,512ZM521,708.33A353.09,353.09,0,1,0,384,736,351,351,0,0,0,521,708.33Zm66.63-528A288,288,0,1,1,384,96,286.15,286.15,0,0,1,587.65,180.35Z"/><rect class="a" width="768" height="768"/></svg>