<svg xmlns="http://www.w3.org/2000/svg" width="768" height="768" viewBox="0 0 768 768"><defs><style>.a{opacity:0;}</style></defs><title>protection-external</title><path d="M345,198.24q-2.62,9.81-5.27,19.4T334,237h80.6v47.08a373.45,373.45,0,0,1-18.45,69.11,332.16,332.16,0,0,1-30.51,60.83,434.25,434.25,0,0,1-43.5,56.88,752.22,752.22,0,0,1-57.44,56.87L226,491.27a703.65,703.65,0,0,0,53.1-48.21,407.58,407.58,0,0,0,39.55-46.32q-9.42-7.53-20.34-16t-21.47-16q-9.8,15.82-20.34,30.51l-32.39-37.66a531.47,531.47,0,0,0,43.88-81.36,538.37,538.37,0,0,0,30.32-90Zm-28.24,85.88q-4.16,9.79-8.29,19.21t-8.66,18.83q10.92,7.15,23.35,15.82t21.47,15.44a326.82,326.82,0,0,0,24.48-69.3ZM486.58,289q8.28,5.28,19,12.61t21.85,15.82q11.1,8.48,21.66,17.14t18.83,16.2L541.57,393q-6.78-7.53-15.25-15.63t-17.52-16.2q-9-8.08-18.07-15.44T473.4,332v188.7H427.83V189.58l45.57,1.89V308.22ZM678.94,96.76l-288.06-64a32.17,32.17,0,0,0-13.88,0l-288,64a32,32,0,0,0-25,33.63l31.11,416a32,32,0,0,0,15,24.77l257,160a32,32,0,0,0,33.87,0L657,571.14a32,32,0,0,0,14.95-24.69l32-416A32,32,0,0,0,678.94,96.76ZM609.33,525.43,383.92,666.29,157.7,525.42,129.87,153.23,383.94,96.78l254,56.44Z"/><rect class="a" width="768" height="768"/></svg>