<svg xmlns="http://www.w3.org/2000/svg" width="768" height="768" viewBox="0 0 768 768"><defs><style>.a{opacity:0;}</style></defs><title>visible</title><path d="M735,376.24c-.71-2.87-18.15-71.06-69.44-139.44-30.51-40.67-66.75-73.17-107.72-96.58C506.53,110.88,448,96,384,96s-122.53,14.88-173.88,44.22c-41,23.41-77.21,55.91-107.72,96.58C51.11,305.18,33.67,373.37,33,376.24L31,384,33,391.76c.71,2.87,18.15,71.06,69.44,139.44,30.51,40.67,66.75,73.17,107.72,96.58C261.47,657.12,320,672,384,672s122.53-14.88,173.88-44.22c41-23.41,77.21-55.91,107.72-96.58,51.29-68.38,68.73-136.57,69.44-139.44L737,384ZM613.11,494.51C555.89,569.82,478.8,608,384,608S212.11,569.82,154.89,494.51C120.11,448.73,103.08,402,97.35,384c5.75-18.09,22.77-64.76,57.54-110.51C212.11,198.18,289.2,160,384,160s171.89,38.18,229.11,113.49C647.87,319.24,664.9,365.9,670.65,384,664.9,402.1,647.87,448.76,613.11,494.51ZM384,244c-77.2,0-140,62.8-140,140s62.8,140,140,140,140-62.8,140-140S461.2,244,384,244Zm0,216a76,76,0,1,1,76-76A76.08,76.08,0,0,1,384,460Z"/><rect class="a" width="768" height="768"/></svg>