<?xml version="1.0" encoding="UTF-8"?>
<svg width="768px" height="768px" viewBox="0 0 768 768" version="1.1" xmlns="http://www.w3.org/2000/svg" xmlns:xlink="http://www.w3.org/1999/xlink">
    <title>status-flower-filled</title>
    <g id="Page-1" stroke="none" stroke-width="1" fill="none" fill-rule="evenodd">
        <g id="status-flower-filled" fill="#000000" fill-rule="nonzero">
            <path d="M459.07,500.81 L458.84,500.88 L458.47,500.99 L456.92,501.45 C443.537786,505.418279 429.851548,508.277941 416,510 L416,704 C416,721.673112 401.673112,736 384,736 C366.326888,736 352,721.673112 352,704 L352,510 C338.148168,508.274669 324.461925,505.411662 311.08,501.44 L309.53,500.98 L309.16,500.87 L308.93,500.8 C257.18405,484.768809 211.794077,452.862184 179.19,409.6 C115.884666,325.152838 110.862479,210.519925 166.54,120.86 C174.208803,108.547685 189.200183,102.933612 203.07,107.18 C230.954754,115.733256 257.167477,129.001967 280.57,146.41 C299.7116,106.069114 329.052171,71.4236634 365.69,45.9 C376.690319,38.225241 391.309681,38.225241 402.31,45.9 C438.949166,71.4264273 468.289853,106.075462 487.43,146.42 C510.832523,129.011967 537.045246,115.743256 564.93,107.19 C578.799817,102.943612 593.791197,108.557685 601.46,120.87 C657.143173,210.529717 652.116784,325.167916 588.8,409.61 C556.20331,452.875409 510.815321,484.783099 459.07,500.81 Z M704,512 C606,512 526.39,586.12 484.59,655.48 C475.920814,670.582787 480.91984,689.845334 495.839277,698.826389 C510.758715,707.807444 530.120952,703.209649 539.41,688.48 C558.14,657.39 583.54,629.33 610.93,609.48 C641.16,587.59 673.34,576 704,576 C721.673112,576 736,561.673112 736,544 C736,526.326888 721.673112,512 704,512 Z M64,512 C46.326888,512 32,526.326888 32,544 C32,561.673112 46.326888,576 64,576 C94.66,576 126.84,587.59 157.07,609.51 C184.46,629.37 209.86,657.43 228.59,688.51 C234.36031,698.562588 245.115566,704.708943 256.705807,704.577469 C268.296049,704.445995 278.909113,698.057248 284.449904,687.876353 C289.990695,677.695458 289.592896,665.314223 283.41,655.51 C241.61,586.12 162,512 64,512 Z" id="形状"></path>
            <rect id="矩形" opacity="0" x="0" y="0" width="768" height="768"></rect>
        </g>
    </g>
</svg>