<svg xmlns="http://www.w3.org/2000/svg" width="768" height="768" viewBox="0 0 768 768"><defs><style>.a{opacity:0;}</style></defs><title>protection-checked</title><path d="M609.33,525.43,383.92,666.29,157.7,525.42,129.87,153.23,383.94,96.78l254,56.44ZM678.94,96.76l-288.06-64a32.17,32.17,0,0,0-13.88,0l-288,64a32,32,0,0,0-25,33.63l31.11,416a32,32,0,0,0,15,24.77l257,160a32,32,0,0,0,33.87,0L657,571.14a32,32,0,0,0,14.95-24.69l32-416A32,32,0,0,0,678.94,96.76ZM352.37,512A32,32,0,0,0,378,498.6l160-224A32,32,0,1,0,486,237.4L351.37,425.83l-69.77-93a32,32,0,0,0-51.2,38.4l96,128A32,32,0,0,0,352,512Z"/><rect class="a" width="768" height="768"/></svg>