<svg xmlns="http://www.w3.org/2000/svg" width="768" height="768" viewBox="0 0 768 768"><defs><style>.a{opacity:0;}</style></defs><title>folder-opened</title><path d="M753.67,331.89A32,32,0,0,0,728,319H696V224a32,32,0,0,0-32-32H369.13l-54.5-81.75A32,32,0,0,0,288,96H64a32,32,0,0,0-32,32V672a32,32,0,0,0,32,32H632a32,32,0,0,0,30.66-22.83l96-321A32,32,0,0,0,753.67,331.89ZM270.87,160l54.5,81.75A32,32,0,0,0,352,256H632v63H160a32,32,0,0,0-30.66,22.83L96,453.32V160Zm337.3,480H107l76.86-257H685Z"/><rect class="a" width="768" height="768"/></svg>