<svg xmlns="http://www.w3.org/2000/svg" width="768" height="768" viewBox="0 0 768 768"><defs><style>.a{opacity:0;}</style></defs><title>visible-disabled</title><path d="M737,384,735,391.76c-.71,2.87-18.15,71.06-69.44,139.44-30.51,40.67-66.75,73.17-107.72,96.58C506.53,657.12,448,672,384,672c-58.38,0-112.16-12.37-160.12-36.79L272.06,587Q323,607.94,384,608c94.8,0,171.89-38.18,229.11-113.49C647.87,448.76,664.9,402.1,670.65,384c-5.75-18.1-22.78-64.76-57.54-110.51q-6-7.89-12.29-15.22l45.35-45.35q10.07,11.43,19.43,23.88c51.29,68.38,68.73,136.57,69.44,139.44ZM401,458.05l-59.4,59.39A139.3,139.3,0,0,0,384,524c77.2,0,140-62.8,140-140a139.3,139.3,0,0,0-6.56-42.36L458.05,401A76.24,76.24,0,0,1,401,458.05ZM122.37,555.7l45.35-45.35c-4.37-5.09-8.66-10.35-12.83-15.84C120.11,448.73,103.08,402,97.35,384c5.75-18.09,22.77-64.76,57.54-110.51C212.11,198.18,289.2,160,384,160q61.44,0,112.76,21.31l48.12-48.12C496.74,108.51,442.69,96,384,96c-64,0-122.53,14.88-173.88,44.22-41,23.41-77.21,55.91-107.72,96.58C51.11,305.18,33.67,373.37,33,376.24L31,384,33,391.76c.71,2.87,18.15,71.06,69.44,139.44Q112,544,122.37,555.7ZM244,384a139.54,139.54,0,0,0,6.84,43.23l58.76-58.76a76.21,76.21,0,0,1,58.87-58.87l58.76-58.76A139.54,139.54,0,0,0,384,244C306.8,244,244,306.8,244,384ZM695.07,73.51a32,32,0,0,0-45.26,0l-576,576a32,32,0,0,0,45.26,45.26l576-576A32,32,0,0,0,695.07,73.51Z"/><rect class="a" width="768" height="768"/></svg>