<?xml version="1.0" encoding="UTF-8"?>
<svg width="768px" height="768px" viewBox="0 0 768 768" version="1.1" xmlns="http://www.w3.org/2000/svg" xmlns:xlink="http://www.w3.org/1999/xlink">
    <title>thumb-up-filled</title>
    <g id="Page-1" stroke="none" stroke-width="1" fill="none" fill-rule="evenodd">
        <g id="thumb-up-filled" fill="#000000" fill-rule="nonzero">
            <path d="M715.27,246.33 C703.120068,232.147933 685.374897,223.989611 666.7,224 L480,224 L480,106.25 C479.994032,73.9731913 459.139442,45.3963363 428.402366,35.5462309 C397.66529,25.6961255 364.085288,36.8286904 345.32,63.09 L207.53,256 L96,256 C78.326888,256 64,270.326888 64,288 L64,672 C64,689.673112 78.326888,704 96,704 L530.19,704 C609.161297,704 676.321427,646.38293 688.33,568.33 L730,297.73 C732.837457,279.267338 727.455585,260.487421 715.27,246.33 L715.27,246.33 Z M128,640 L128,320 L192,320 L192,640 L128,640 Z" id="形状"></path>
            <rect id="矩形" opacity="0" x="0" y="0" width="768" height="768"></rect>
        </g>
    </g>
</svg>