<?xml version="1.0" encoding="UTF-8"?>
<svg width="768px" height="768px" viewBox="0 0 768 768" version="1.1" xmlns="http://www.w3.org/2000/svg" xmlns:xlink="http://www.w3.org/1999/xlink">
    <title>status-flower</title>
    <g id="Page-1" stroke="none" stroke-width="1" fill="none" fill-rule="evenodd">
        <g id="status-flower" fill="#000000" fill-rule="nonzero">
            <path d="M588.8,409.61 C652.116784,325.167916 657.143173,210.529717 601.46,120.87 C593.791197,108.557685 578.799817,102.943612 564.93,107.19 C537.045246,115.743256 510.832523,129.011967 487.43,146.42 C468.289853,106.075462 438.949166,71.4264273 402.31,45.9 C391.309681,38.225241 376.690319,38.225241 365.69,45.9 C329.050834,71.4264273 299.710147,106.075462 280.57,146.42 C257.167477,129.011967 230.954754,115.743256 203.07,107.19 C189.200183,102.943612 174.208803,108.557685 166.54,120.87 C110.862479,210.529925 115.884666,325.162838 179.19,409.61 C211.794077,452.872184 257.18405,484.778809 308.93,500.81 L309.16,500.88 L309.53,500.99 L311.08,501.45 C324.462214,505.418279 338.148452,508.277941 352,510 L352,704 C352,721.673112 366.326888,736 384,736 C401.673112,736 416,721.673112 416,704 L416,510 C429.851832,508.274669 443.538075,505.411662 456.92,501.44 L458.47,500.98 L458.84,500.87 L459.07,500.8 C510.813988,484.775773 556.201814,452.871697 588.8,409.61 Z M440.33,439.61 L439.4,439.9 L438.87,440.05 C403.057892,450.649901 364.942108,450.649901 329.13,440.05 L328.68,439.92 L327.68,439.61 C288.870635,427.573033 254.830839,403.633226 230.38,371.18 C188.597532,315.395399 180.279375,241.366092 208.64,177.7 C232.221019,188.641223 253.33956,204.248804 270.72,223.58 C278.645134,232.39 290.790045,236.099116 302.285055,233.220125 C313.780065,230.341134 322.742984,221.345442 325.58,209.84 C334.83489,172.358914 355.197875,138.548411 384,112.84 C412.802125,138.548411 433.16511,172.358914 442.42,209.84 C445.257016,221.345442 454.219935,230.341134 465.714945,233.220125 C477.209955,236.099116 489.354866,232.39 497.28,223.58 C514.66044,204.248804 535.778981,188.641223 559.36,177.7 C581.763127,227.934687 581.562924,285.361977 558.810091,335.439242 C536.057258,385.516507 492.933761,423.441403 440.36,439.61 L440.33,439.61 Z M736,544 C736,561.673112 721.673112,576 704,576 C673.34,576 641.16,587.59 610.93,609.51 C583.54,629.37 558.14,657.43 539.41,688.51 C530.120952,703.239649 510.758715,707.837444 495.839277,698.856389 C480.91984,689.875334 475.920814,670.612787 484.59,655.51 C526.39,586.12 606,512 704,512 C721.673112,512 736,526.326888 736,544 Z M283.41,655.48 C292.079186,670.582787 287.08016,689.845334 272.160723,698.826389 C257.241285,707.807444 237.879048,703.209649 228.59,688.48 C209.86,657.39 184.46,629.33 157.07,609.48 C126.84,587.59 94.66,576 64,576 C46.326888,576 32,561.673112 32,544 C32,526.326888 46.326888,512 64,512 C162,512 241.61,586.12 283.41,655.48 Z" id="形状"></path>
            <rect id="矩形" opacity="0" x="0" y="0" width="768" height="768"></rect>
        </g>
    </g>
</svg>