<?xml version="1.0" encoding="UTF-8"?>
<svg width="768px" height="768px" viewBox="0 0 768 768" version="1.1" xmlns="http://www.w3.org/2000/svg" xmlns:xlink="http://www.w3.org/1999/xlink">
    <title>五星</title>
    <g id="----2.3-Icon-图标（有更新）" stroke="none" stroke-width="1" fill="none" fill-rule="evenodd">
        <g id="面性icon" transform="translate(-413.000000, -1802.000000)" fill="#000000" fill-rule="nonzero">
            <g id="五星" transform="translate(413.000000, 1802.000000)">
                <path d="M588.7,726.670003 C583.561139,726.670003 578.49768,725.43391 573.94,723.06 L384,624.36 L194.06,723.06 C183.301218,728.650258 170.307035,727.679966 160.497799,720.55387 C150.688563,713.427773 145.749161,701.369888 147.74,689.41 L182.91,478.26 L30.34,328.11 C21.7006705,319.609229 18.6054585,306.957037 22.3447245,295.427987 C26.0839904,283.898936 36.0159205,275.471893 48,273.66 L259.68,241.86 L355.37,50.37 C360.787229,39.5197491 371.87258,32.6641631 384,32.6641631 C396.12742,32.6641631 407.212771,39.5197491 412.63,50.37 L508.28,241.86 L720,273.66 C731.990981,275.459492 741.934933,283.88169 745.683399,295.412986 C749.431864,306.944283 746.340897,319.603727 737.7,328.11 L585.09,478.26 L620.26,689.41 C621.806031,698.687579 619.192229,708.175517 613.113184,715.352488 C607.03414,722.529458 598.105513,726.670003 588.7,726.670003 Z M384,556.3 C389.135622,556.298096 394.195739,557.536538 398.75,559.91 L546.61,636.73 L519.23,472.37 C517.519343,462.089614 520.922093,451.62019 528.35,444.31 L647.11,327.43 L482.33,302.68 C472.024513,301.131581 463.118519,294.661956 458.46,285.34 L384,136.28 L309.54,285.34 C304.881481,294.661956 295.975487,301.131581 285.67,302.68 L120.89,327.43 L239.65,444.31 C247.077907,451.62019 250.480657,462.089614 248.77,472.37 L221.39,636.73 L369.25,559.91 C373.804261,557.536538 378.864378,556.298096 384,556.3 L384,556.3 Z" id="形状"></path>
                <rect id="矩形" opacity="0" x="0" y="0" width="768" height="768"></rect>
            </g>
        </g>
    </g>
</svg>