<?xml version="1.0" encoding="UTF-8"?>
<svg width="768px" height="768px" viewBox="0 0 768 768" version="1.1" xmlns="http://www.w3.org/2000/svg" xmlns:xlink="http://www.w3.org/1999/xlink">
    <title>赞</title>
    <g id="----2.3-Icon-图标（有更新）" stroke="none" stroke-width="1" fill="none" fill-rule="evenodd">
        <g id="面性icon" transform="translate(-462.000000, -1495.000000)" fill="#000000" fill-rule="nonzero">
            <g id="赞" transform="translate(462.000000, 1495.000000)">
                <path d="M530.19,704.000005 L96,704.000005 C78.326888,704.000005 64,689.673112 64,672 L64,288 C64,270.326888 78.326888,256 96,256 L204.91,256 L298,83.71 C319.093301,44.7495116 363.936577,25.0719303 406.88989,35.9282621 C449.843203,46.7845939 479.95157,85.4059972 480,129.71 L480,224 L666.7,224 C685.380577,223.987169 703.134337,232.136719 715.302893,246.310299 C727.471448,260.483879 732.840037,279.266568 730,297.73 L688.37,568.33 C676.359124,646.397917 609.176457,704.020072 530.19,704.000005 Z M256,640 L530.19,640 C577.570612,640 617.864199,605.429465 625.07,558.6 L666.7,288 L448,288 C430.326888,288 416,273.673112 416,256 L416,129.73 C415.993059,114.697678 405.780302,101.589196 391.206159,97.9061143 C376.632015,94.2230325 361.417752,100.905765 354.27,114.13 L256,296.09 L256,640 Z M128,640 L192,640 L192,320 L128,320 L128,640 Z" id="形状"></path>
                <rect id="矩形" opacity="0" x="0" y="0" width="768" height="768"></rect>
            </g>
        </g>
    </g>
</svg>