<svg xmlns="http://www.w3.org/2000/svg" width="768" height="768" viewBox="0 0 768 768"><defs><style>.a{opacity:0;}</style></defs><title>mute</title><path d="M306.21,215.7l-47-47L496.39,36.07A32,32,0,0,1,544,64V453.49l-64-64V118.55ZM672,384c0,56.71-13.11,111.07-38.17,159.32l47.08,47.08C717,528.8,736,458,736,384c0-83.36-24.06-162.64-69.58-229.28a32,32,0,1,0-52.84,36.09C651.8,246.77,672,313.58,672,384ZM480,649.62,256,525.17V346.51l-64-64V512H96V257h70.49l-64-64H64a32,32,0,0,0-32,32V544a32,32,0,0,0,32,32H215.71L496.46,732A32,32,0,0,0,544,704V634.51l-64-64ZM118.63,73.37a32,32,0,0,0-45.26,45.26l576,576a32,32,0,0,0,45.26-45.26Z"/><rect class="a" width="768" height="768"/></svg>