<?xml version="1.0" encoding="UTF-8"?>
<svg width="768px" height="768px" viewBox="0 0 768 768" version="1.1" xmlns="http://www.w3.org/2000/svg" xmlns:xlink="http://www.w3.org/1999/xlink">
    <title>面-五星</title>
    <g id="----2.3-Icon-图标（有更新）" stroke="none" stroke-width="1" fill="none" fill-rule="evenodd">
        <g id="面性icon" transform="translate(-336.000000, -1664.000000)" fill="#000000" fill-rule="nonzero">
            <g id="面-五星" transform="translate(336.000000, 1664.000000)">
                <path d="M745.64,295.42 C741.900672,283.898455 731.976275,275.475878 720,273.66 L508.32,241.86 L412.63,50.37 C407.212771,39.5197491 396.12742,32.6641631 384,32.6641631 C371.87258,32.6641631 360.787229,39.5197491 355.37,50.37 L259.72,241.86 L48,273.66 C36.0090193,275.459492 26.0650668,283.88169 22.3166013,295.412986 C18.5681359,306.944283 21.6591028,319.603727 30.3,328.11 L182.91,478.26 L147.74,689.41 C145.749161,701.369888 150.688563,713.427773 160.497799,720.55387 C170.307035,727.679966 183.301218,728.650258 194.06,723.06 L384,624.36 L573.94,723.06 C584.698782,728.650258 597.692965,727.679966 607.502201,720.55387 C617.311437,713.427773 622.250839,701.369888 620.26,689.41 L585.09,478.26 L737.66,328.11 C746.296993,319.604361 749.386415,306.948569 745.64,295.42 Z" id="路径"></path>
                <rect id="矩形" opacity="0" x="0" y="0" width="768" height="768"></rect>
            </g>
        </g>
    </g>
</svg>