<svg xmlns="http://www.w3.org/2000/svg" width="768" height="768" viewBox="0 0 768 768"><defs><style>.a{opacity:0;}</style></defs><title>gender-female</title><path d="M651.65,116.35A288,288,0,0,0,223,499.77l-47,47-57.37-57.38a32,32,0,0,0-45.26,45.26L130.75,592,73.37,649.37a32,32,0,0,0,45.26,45.26L176,637.25l57.37,57.38a32,32,0,0,0,45.26-45.26L221.25,592l47-47A288,288,0,0,0,651.65,116.35Zm-45.26,362A224,224,0,1,1,672,320,222.53,222.53,0,0,1,606.39,478.39Z"/><rect class="a" width="768" height="768"/></svg>