
<svg xmlns="http://www.w3.org/2000/svg" width="768" height="768" viewBox="0 0 768 768"><defs><style>.a{opacity:0;}</style></defs><title>heart-fill</title><path d="M530.26,64A203.46,203.46,0,0,0,384,125.8,203.46,203.46,0,0,0,237.74,64C124.29,64,32,157.55,32,272.55,32,332.88,50.28,395,86.33,457.05c28,48.23,66.81,96.66,115.34,143.94C283.4,680.61,364.14,729.4,367.54,731.44a32,32,0,0,0,32.92,0c3.4-2,84.14-50.83,165.87-130.45,48.53-47.28,87.34-95.71,115.34-143.94C717.72,395,736,332.88,736,272.55,736,157.55,643.71,64,530.26,64Z"/><rect class="a" width="768" height="768"/></svg>