<svg xmlns="http://www.w3.org/2000/svg" width="768" height="768" viewBox="0 0 768 768"><defs><style>.a{opacity:0;}</style></defs><title>volume</title><path d="M528.19,36.4a32,32,0,0,0-31.8-.33L215.66,193H64a32,32,0,0,0-32,32V544a32,32,0,0,0,32,32H215.71L496.46,732A32,32,0,0,0,544,704V64A32,32,0,0,0,528.19,36.4ZM96,257h96V512H96ZM480,649.62,256,525.17V243.77L480,118.55ZM736,384c0,83.36-24.06,162.64-69.58,229.28a32,32,0,1,1-52.84-36.09C651.8,521.23,672,454.42,672,384s-20.2-137.23-58.42-193.19a32,32,0,1,1,52.84-36.09C711.94,221.36,736,300.64,736,384Z"/><rect class="a" width="768" height="768"/></svg>