<?xml version="1.0" encoding="UTF-8"?>
<svg width="768px" height="768px" viewBox="0 0 768 768" version="1.1" xmlns="http://www.w3.org/2000/svg" xmlns:xlink="http://www.w3.org/1999/xlink">
    <title>无线网</title>
    <g id="----2.3-Icon-图标（有更新）" stroke="none" stroke-width="1" fill="none" fill-rule="evenodd">
        <g id="品牌标识" transform="translate(-191.000000, -506.000000)" fill="#000000" fill-rule="nonzero">
            <g id="无线网" transform="translate(191.000000, 506.000000)">
                <path d="M416.9,639.1 L416.9,639.1 C399.226888,639.1 384.9,624.773112 384.9,607.1 C384.905522,484.936901 483.936901,385.905522 606.1,385.9 C623.773112,385.9 638.1,400.226888 638.1,417.9 C638.1,435.573112 623.773112,449.9 606.1,449.9 C564.407155,449.897348 524.421178,466.458591 494.939885,495.939885 C465.458591,525.421178 448.897348,565.407155 448.9,607.1 C448.9,624.773112 434.573112,639.1 416.9,639.1 L416.9,639.1 Z M297.53,607.1 C297.535523,436.683782 435.683782,298.535523 606.1,298.53 L606.1,298.53 C623.773112,298.53 638.1,284.203112 638.1,266.53 C638.1,248.856888 623.773112,234.529902 606.1,234.529902 L606.1,234.529902 C507.266329,234.458298 412.460025,273.68807 342.574047,343.574047 C272.68807,413.460025 233.458298,508.266329 233.529902,607.1 C233.529902,624.773112 247.856888,639.1 265.53,639.1 C283.203112,639.1 297.53,624.773112 297.53,607.1 L297.53,607.1 Z M146.17,607.1 C146.053103,485.083181 194.472335,368.030254 280.751294,281.751294 C367.030254,195.472335 484.083181,147.053103 606.1,147.17 C623.773112,147.17 638.1,132.843112 638.1,115.17 C638.1,97.496888 623.773112,83.1698147 606.1,83.1698147 C467.109329,83.0531274 333.777767,138.215205 235.496486,236.496486 C137.215205,334.777767 82.0531274,468.109329 82.1698147,607.1 C82.1698147,624.773112 96.496888,639.1 114.17,639.1 C131.843112,639.1 146.17,624.773112 146.17,607.1 L146.17,607.1 Z M560.52,560.54 C538.486648,582.573391 538.486669,618.296541 560.520047,640.329906 C582.553425,662.36327 618.276575,662.36327 640.309953,640.329906 C662.343331,618.296541 662.343352,582.573391 640.31,560.54 C618.274325,538.512093 582.555675,538.512093 560.52,560.54 Z" id="形状"></path>
                <rect id="矩形" opacity="0" x="0" y="0" width="768" height="768"></rect>
            </g>
        </g>
    </g>
</svg>