<svg xmlns="http://www.w3.org/2000/svg" width="768" height="768" viewBox="0 0 768 768"><defs><style>.a{opacity:0;}</style></defs><title>copy</title><path d="M672,32H224a32,32,0,0,0-32,32v96H96a32,32,0,0,0-32,32V544a32,32,0,0,0,9.37,22.63l160,160A32,32,0,0,0,256,736H544a32,32,0,0,0,32-32V608h96a32,32,0,0,0,32-32V64A32,32,0,0,0,672,32ZM224,626.75,173.25,576H224ZM512,672H288V544a32,32,0,0,0-32-32H128V224H512ZM640,544H576V192a32,32,0,0,0-32-32H256V96H640Z"/><rect class="a" width="768" height="768"/></svg>