<svg xmlns="http://www.w3.org/2000/svg" width="768" height="768" viewBox="0 0 768 768"><defs><style>.a{opacity:0;}</style></defs><title>adjust</title><path d="M192,160H160V128a32,32,0,0,0-64,0v32H64a32,32,0,0,0-32,32V576a32,32,0,0,0,32,32H96v32a32,32,0,0,0,64,0V608h32a32,32,0,0,0,32-32V192A32,32,0,0,0,192,160ZM160,544H96V224h64ZM448,256H416V128a32,32,0,0,0-64,0V256H320a32,32,0,0,0-32,32V448a32,32,0,0,0,32,32h32V640a32,32,0,0,0,64,0V480h32a32,32,0,0,0,32-32V288A32,32,0,0,0,448,256ZM416,416H352V320h64Zm288-32H672V128a32,32,0,0,0-64,0V384H576a32,32,0,0,0-32,32V576a32,32,0,0,0,32,32h32v32a32,32,0,0,0,64,0V608h32a32,32,0,0,0,32-32V416A32,32,0,0,0,704,384ZM672,544H608V448h64Z"/><rect class="a" width="768" height="768"/></svg>