<?xml version="1.0" encoding="UTF-8"?>
<svg width="768px" height="768px" viewBox="0 0 768 768" version="1.1" xmlns="http://www.w3.org/2000/svg" xmlns:xlink="http://www.w3.org/1999/xlink">
    <title>主题</title>
    <g id="----2.3-Icon-图标（有更新）" stroke="none" stroke-width="1" fill="none" fill-rule="evenodd">
        <g id="品牌标识" transform="translate(-127.000000, -467.000000)" fill="#000000" fill-rule="nonzero">
            <g id="主题" transform="translate(127.000000, 467.000000)">
                <path d="M715,426.35 C711.6777,419.690805 708.005916,413.211777 704,406.94 L704,128 C704,110.326888 689.673112,96 672,96 L96,96 C78.326888,96 64,110.326888 64,128 L64,608 C64,625.673112 78.326888,640 96,640 L256,640 C259.863583,640.003253 263.695681,639.305276 267.31,637.94 C277.269371,650.747004 288.540661,662.477457 300.94,672.94 C349,713.59 412.61,736.000075 480,736.000075 C504.101418,736.017246 528.113988,733.078645 551.5,727.25 C561.30382,724.792846 569.370549,717.848496 573.258297,708.519084 C577.146044,699.189673 576.397775,688.571942 571.24,679.88 C557.003338,655.824544 563.420218,624.885572 586.049452,608.476267 C608.678686,592.066961 640.079904,595.582611 658.52,616.59 C665.377731,624.4075 675.606533,628.405137 685.947764,627.309365 C696.288996,626.213592 705.452868,620.161077 710.52,611.08 C742.840244,554.135011 744.521857,484.794759 715,426.35 Z M128,160 L640,160 L640,341.36 C594.76,309.96 538.83,292.88 480,292.88 C412.61,292.88 349,315.29 300.94,355.97 C277.04,376.2 258.21,399.88 244.94,426.35 C221.508318,472.785553 217.570584,526.650445 234,576 L128,576 L128,160 Z M668.27,545.47 C628.641277,526.749133 581.904725,531.509561 546.864365,557.83597 C511.824006,584.162378 494.241112,627.726226 501.19,671 C494.17,671.666667 487.106667,672 480,672 C374.13,672 288,601.32 288,514.44 C288,427.56 374.13,356.88 480,356.88 C585.87,356.88 672.000031,427.56 672.000031,514.44 C672.007191,524.895587 670.754836,535.313971 668.27,545.47 Z M448,448 C448,465.673112 433.673112,480 416,480 C398.326888,480 384,465.673112 384,448 C384,430.326888 398.326888,416 416,416 C433.673112,416 448,430.326888 448,448 Z M448,544 C448,561.673112 433.673112,576 416,576 C398.326888,576 384,561.673112 384,544 C384,526.326888 398.326888,512 416,512 C433.673112,512 448,526.326888 448,544 Z M544,448 C544,465.673112 529.673112,480 512,480 C494.326888,480 480,465.673112 480,448 C480,430.326888 494.326888,416 512,416 C529.673112,416 544,430.326888 544,448 Z" id="形状"></path>
                <rect id="矩形" opacity="0" x="0" y="0" width="768" height="768"></rect>
            </g>
        </g>
    </g>
</svg>