<svg xmlns="http://www.w3.org/2000/svg" width="768" height="768" viewBox="0 0 768 768"><defs><style>.a{opacity:0;}</style></defs><title>share</title><path d="M608,480a127.81,127.81,0,0,0-99.42,47.48l-166-89.42a160.06,160.06,0,0,0-.39-109.22l99.94-59.42a127.7,127.7,0,1,0-24.9-59.66L308.48,274.43A159.54,159.54,0,0,0,192,224c-88.22,0-160,71.78-160,160s71.78,160,160,160a159.6,159.6,0,0,0,117.22-51.22l172.71,93A128,128,0,1,0,608,480ZM544,128a64,64,0,1,1-64,64A64.07,64.07,0,0,1,544,128ZM192,480a96,96,0,1,1,96-96A96.11,96.11,0,0,1,192,480ZM608,672a64,64,0,1,1,64-64A64.07,64.07,0,0,1,608,672Z"/><rect class="a" width="768" height="768"/></svg>