<svg xmlns="http://www.w3.org/2000/svg" width="768" height="768" viewBox="0 0 768 768"><defs><style>.a{opacity:0;}</style></defs><title>funnel</title><path d="M256,736a32,32,0,0,1-32-32V326.41L70.12,114.82A32,32,0,0,1,96,64H576a32,32,0,0,1,25.88,50.82L448,326.41V640a32,32,0,0,1-20.12,29.71l-160,64A31.81,31.81,0,0,1,256,736ZM158.84,128l123,169.18A32,32,0,0,1,288,316V656.74l96-38.41V316a32,32,0,0,1,6.12-18.82L513.16,128ZM704,352a32,32,0,0,0-32-32H544a32,32,0,0,0,0,64H672A32,32,0,0,0,704,352Zm0,128a32,32,0,0,0-32-32H544a32,32,0,0,0,0,64H672A32,32,0,0,0,704,480Zm0,128a32,32,0,0,0-32-32H544a32,32,0,0,0,0,64H672A32,32,0,0,0,704,608Z"/><rect class="a" width="768" height="768"/></svg>