<svg xmlns="http://www.w3.org/2000/svg" width="768" height="768" viewBox="0 0 768 768"><defs><style>.a{opacity:0;}</style></defs><title>save</title><path d="M694.7,234.44l-160-161A32,32,0,0,0,512,64H96A32,32,0,0,0,64,96V672a32,32,0,0,0,32,32H672a32,32,0,0,0,32-32V257A32,32,0,0,0,694.7,234.44ZM256,128H416V352H256ZM512,640H256V576H512Zm128,0H576V544a32,32,0,0,0-32-32H224a32,32,0,0,0-32,32v96H128V128h64V384a32,32,0,0,0,32,32H448a32,32,0,0,0,32-32V128h18.69L640,270.2Z"/><rect class="a" width="768" height="768"/></svg>