<!-- Generated by IcoMoon.io -->
<svg version="1.1" xmlns="http://www.w3.org/2000/svg" width="38" height="32" viewBox="0 0 38 32">
<title>symbolmenu-slider</title>
<path d="M1.6 3.199h20.865c0.883 0 1.6-0.716 1.6-1.6s-0.716-1.6-1.6-1.6v0h-20.865c-0.883 0-1.6 0.716-1.6 1.6s0.716 1.6 1.6 1.6v0z"></path>
<path d="M22.465 28.801h-20.865c-0.883 0-1.6 0.716-1.6 1.6s0.716 1.6 1.6 1.6v0h20.865c0.883 0 1.6-0.716 1.6-1.6s-0.716-1.6-1.6-1.6v0z"></path>
<path d="M37.88 14.865l-6.786-6.786c-0.288-0.28-0.681-0.453-1.115-0.453-0.883 0-1.6 0.716-1.6 1.6 0 0.434 0.173 0.827 0.453 1.115l-0-0 4.004 4.004h-31.176c-0.883 0-1.6 0.716-1.6 1.6s0.716 1.6 1.6 1.6v0h31.282l-4.107 4.108c-0.28 0.288-0.453 0.681-0.453 1.115 0 0.883 0.716 1.6 1.6 1.6 0.434 0 0.827-0.173 1.115-0.453l-0 0 6.786-6.786c0.288-0.29 0.465-0.689 0.465-1.13 0-0.442-0.179-0.842-0.468-1.133l0 0z"></path>
</svg>
