<svg xmlns="http://www.w3.org/2000/svg" width="768" height="768" viewBox="0 0 768 768"><defs><style>.a{opacity:0;}</style></defs><title>apps-down</title><path d="M320,64H96A32,32,0,0,0,64,96V320a32,32,0,0,0,32,32H320a32,32,0,0,0,32-32V96A32,32,0,0,0,320,64ZM288,288H128V128H288ZM672,64H448a32,32,0,0,0-32,32V320a32,32,0,0,0,32,32H672a32,32,0,0,0,32-32V96A32,32,0,0,0,672,64ZM640,288H480V128H640ZM320,416H96a32,32,0,0,0-32,32V672a32,32,0,0,0,32,32H320a32,32,0,0,0,32-32V448A32,32,0,0,0,320,416ZM288,640H128V480H288Zm374.63-86.63a32,32,0,0,1,0,45.26l-96,96a32,32,0,0,1-45.26,0l-96-96a32,32,0,0,1,45.26-45.26L512,594.74V448a32,32,0,0,1,64,0V594.74l41.37-41.37A32,32,0,0,1,662.63,553.37Z"/><rect class="a" width="768" height="768"/></svg>