<?xml version="1.0" encoding="UTF-8"?>
<svg width="768px" height="768px" viewBox="0 0 768 768" version="1.1" xmlns="http://www.w3.org/2000/svg" xmlns:xlink="http://www.w3.org/1999/xlink">
    <title>authorization-lock</title>
    <g id="Page-1" stroke="none" stroke-width="1" fill="none" fill-rule="evenodd">
        <g id="authorization-lock" fill="#000000" fill-rule="nonzero">
            <path d="M640,288 L576,288 L576,224 C576,118.13 489.87,32 384,32 C278.13,32 192,118.13 192,224 L192,288 L128,288 C110.326888,288 96,302.326888 96,320 L96,704 C96,721.673112 110.326888,736 128,736 L640,736 C657.673112,736 672,721.673112 672,704 L672,320 C672,302.326888 657.673112,288 640,288 Z M256,224 C256,153.307552 313.307552,96 384,96 C454.692448,96 512,153.307552 512,224 L512,288 L256,288 L256,224 Z M608,672 L160,672 L160,352 L608,352 L608,672 Z M352,576 L352,448 C352,430.326888 366.326888,416 384,416 C401.673112,416 416,430.326888 416,448 L416,576 C416,593.673112 401.673112,608 384,608 C366.326888,608 352,593.673112 352,576 Z" id="形状"></path>
            <rect id="矩形" opacity="0" x="0" y="0" width="768" height="768"></rect>
        </g>
    </g>
</svg>