<svg xmlns="http://www.w3.org/2000/svg" width="768" height="768" viewBox="0 0 768 768"><defs><style>.a{opacity:0;}</style></defs><title>user-less</title><path d="M576,224c0-105.87-86.13-192-192-192S192,118.13,192,224a191.76,191.76,0,0,0,73.18,150.71A320.67,320.67,0,0,0,64,672v32a32,32,0,0,0,64,0V672A256,256,0,0,1,384,416C489.87,416,576,329.87,576,224ZM384,352A128,128,0,1,1,512,224,128.14,128.14,0,0,1,384,352ZM672,608H448a32,32,0,0,1,0-64H672a32,32,0,0,1,0,64Z"/><rect class="a" width="768" height="768"/></svg>