<svg xmlns="http://www.w3.org/2000/svg" width="768" height="768" viewBox="0 0 768 768"><defs><style>.a{opacity:0;}</style></defs><title>broadcast</title><path d="M480,704a32,32,0,0,1-14.31-3.38L216.45,576H64a32,32,0,0,1-32-32V224a32,32,0,0,1,32-32H216.45L465.69,67.38A32,32,0,0,1,512,96V672a32,32,0,0,1-32,32ZM96,512H224a32,32,0,0,1,14.31,3.38L448,620.22V147.78L238.31,252.62A32,32,0,0,1,224,256H96ZM736,384a32,32,0,0,0-32-32H608a32,32,0,0,0,0,64h96A32,32,0,0,0,736,384ZM698.75,656.56a32,32,0,0,0-9.19-44.31l-96-63a32,32,0,1,0-35.12,53.5l96,63a32,32,0,0,0,44.31-9.19ZM593.56,217.75l96-63a32,32,0,0,0-35.12-53.5l-96,63a32,32,0,1,0,35.12,53.5Z"/><rect class="a" width="768" height="768"/></svg>