<svg xmlns="http://www.w3.org/2000/svg" width="768" height="768" viewBox="0 0 768 768"><defs><style>.a{opacity:0;}</style></defs><title>help-du</title><path d="M383.49,640c-92.52,0-160.14-13.61-173-16.4-87.76-9.19-157.78-69.07-170.63-146.21l-.14-.84a566.3,566.3,0,0,1,.07-186.93l0-.13c12.88-76.93,82.8-136.74,170.42-146,13.38-3,81.14-17.27,173.53-16.43,92.8.83,161.23,13.91,173.54,16.42,87.84,9.09,158,69,170.89,146.13a566.36,566.36,0,0,1,.07,186.94l-.13.78c-12.86,77.18-82.92,137.07-170.73,146.23C544.56,626.29,476.12,640,383.49,640Zm-7.33-449c-89.05,0-152.49,15-153.14,15.19l-2.2.53-2.28.23c-59.85,5.72-107.39,44-115.61,93.16l0,.13a502.29,502.29,0,0,0,0,165.76l.14.84c8.19,49.16,55.74,87.49,115.62,93.22l2.1.2,2.05.47c.64.15,67.62,15.23,160.72,15.23,93.68,0,161.09-15.13,161.76-15.28l2-.46,2.07-.2c59.91-5.71,107.47-44,115.67-93.23l.13-.79a502.29,502.29,0,0,0-.06-165.85C656.85,251,609.29,212.69,549.42,207l-1.87-.17-1.84-.4c-.66-.14-69-14.54-162.51-15.38Zm-87.6,122.48h-64v140h64ZM573.07,430.85l-47.38-47.37,47.37-47.37-45.25-45.26-92.63,92.63,92.63,92.63Z"/><rect class="a" width="768" height="768"/></svg>