<svg xmlns="http://www.w3.org/2000/svg" width="768" height="768" viewBox="0 0 768 768"><defs><style>.a{opacity:0;}</style></defs><title>gear</title><path d="M32,384a354.21,354.21,0,0,1,8.46-76.94,32,32,0,0,1,28.57-24.92l.45,0a82.52,82.52,0,0,0,64.6-41.29l.7-1.21a83,83,0,0,0,3.71-77l-.16-.34a32,32,0,0,1,7.27-37.18A353.8,353.8,0,0,1,278.9,48a32,32,0,0,1,35.83,12.29l.3.43A82.78,82.78,0,0,0,383.36,96h1.33A82.78,82.78,0,0,0,453,60.72l.3-.43A32,32,0,0,1,489.14,48a353.8,353.8,0,0,1,133.28,77.07,32,32,0,0,1,7.27,37.18l-.16.34a83,83,0,0,0,3.72,77l.68,1.18a82.54,82.54,0,0,0,64.61,41.3l.44,0a32,32,0,0,1,28.58,24.92,355.64,355.64,0,0,1,0,153.88A32,32,0,0,1,699,485.88l-.44,0a82.52,82.52,0,0,0-64.6,41.29l-.69,1.18a83,83,0,0,0-3.72,77.06l.16.34A32,32,0,0,1,622.42,643,353.8,353.8,0,0,1,489.14,720a32,32,0,0,1-35.83-12.29l-.3-.43A82.78,82.78,0,0,0,384.68,672h-1.41A82.74,82.74,0,0,0,315,707.32l-.3.43A32,32,0,0,1,278.9,720,353.8,353.8,0,0,1,145.62,643a32,32,0,0,1-7.27-37.18l.16-.34a83,83,0,0,0-3.72-77.05l-.68-1.18a82.54,82.54,0,0,0-64.61-41.3l-.45,0A32,32,0,0,1,40.48,461,354.28,354.28,0,0,1,32,384Zm67.09-42.24a291,291,0,0,0,0,84.48,146.69,146.69,0,0,1,90.49,69.08l.52.9A147.57,147.57,0,0,1,205,609.59a290.57,290.57,0,0,0,73.12,42.32A147.17,147.17,0,0,1,383.51,608h.94a147.25,147.25,0,0,1,105.48,43.89,290.57,290.57,0,0,0,73.12-42.32A147.56,147.56,0,0,1,577.9,496.27l.54-.94a146.7,146.7,0,0,1,90.49-69.07,291,291,0,0,0,0-84.48,146.72,146.72,0,0,1-90.49-69.08l-.54-.93a148.33,148.33,0,0,1-20.11-74.44,146.1,146.1,0,0,1,5.26-38.88,290.27,290.27,0,0,0-73.12-42.32A147.17,147.17,0,0,1,384.53,160h-1a147.17,147.17,0,0,1-105.4-43.89A290.45,290.45,0,0,0,205,158.45a147.56,147.56,0,0,1-14.85,113.32l-.54.94A146.74,146.74,0,0,1,99.11,341.78ZM224,384c0-88.22,71.78-160,160-160S544,295.8,544,384,472.24,544,384,544,224,472.24,224,384Zm256,0a96,96,0,1,0-96,96A96.11,96.11,0,0,0,480,384Z"/><rect class="a" width="768" height="768"/></svg>