<svg xmlns="http://www.w3.org/2000/svg" width="768" height="768" viewBox="0 0 768 768"><defs><style>.a{opacity:0;}</style></defs><title>user-team</title><path d="M401.79,378.55A191.86,191.86,0,0,0,480,224c0-105.87-86.13-192-192-192S96,118.13,96,224a191.86,191.86,0,0,0,78.21,154.55A256.62,256.62,0,0,0,32,608v96a32,32,0,0,0,64,0V608c0-105.87,86.13-192,192-192s192,86.13,192,192v96a32,32,0,0,0,64,0V608A256.62,256.62,0,0,0,401.79,378.55ZM288,352A128,128,0,1,1,416,224,128.14,128.14,0,0,1,288,352ZM736.2,563.2V640a32,32,0,0,1-64,0V563.2C672.2,482,606.17,416,525,416a32,32,0,0,1,0-64,96,96,0,0,0,14.29-190.95,32,32,0,1,1,9.42-63.3,159.93,159.93,0,0,1,78.9,280.91C692.33,414.79,736.2,484,736.2,563.2Z"/><rect class="a" width="768" height="768"/></svg>