<svg xmlns="http://www.w3.org/2000/svg" width="768" height="768" viewBox="0 0 768 768"><defs><style>.a{opacity:0;}</style></defs><title>user-config</title><path d="M704,576a120.15,120.15,0,0,0-1.69-20.12l33.81-29.59A158.55,158.55,0,0,0,723.73,498l-2.23-3.88a160.72,160.72,0,0,0-18.43-25l-42.5,14.47a120,120,0,0,0-34.84-20.14l-8.72-44a161,161,0,0,0-66,0l-8.72,44a120,120,0,0,0-34.84,20.14l-42.5-14.47a160.8,160.8,0,0,0-18.43,25L444.27,498a159,159,0,0,0-12.39,28.27l33.81,29.59a120.61,120.61,0,0,0,0,40.24l-33.81,29.59A158.86,158.86,0,0,0,444.27,654l2.23,3.88a161.36,161.36,0,0,0,18.43,25l42.5-14.47a120,120,0,0,0,34.84,20.14l8.72,44a161,161,0,0,0,66,0l8.72-44a120,120,0,0,0,34.84-20.14l42.5,14.47a160.8,160.8,0,0,0,18.43-25l2.23-3.86a159,159,0,0,0,12.39-28.27l-33.81-29.59A120.15,120.15,0,0,0,704,576ZM584,640a64,64,0,1,1,64-64A64,64,0,0,1,584,640Zm-8-416c0-105.87-86.13-192-192-192S192,118.13,192,224a191.76,191.76,0,0,0,73.18,150.71A320.67,320.67,0,0,0,64,672v32a32,32,0,0,0,64,0V672A256,256,0,0,1,384,416C489.87,416,576,329.87,576,224ZM384,352A128,128,0,1,1,512,224,128.14,128.14,0,0,1,384,352Z"/><rect class="a" width="768" height="768"/></svg>