<svg xmlns="http://www.w3.org/2000/svg" width="768" height="768" viewBox="0 0 768 768"><defs><style>.a{opacity:0;}</style></defs><title>help-service</title><path d="M640,256a95.56,95.56,0,0,0-32,5.49V256a224,224,0,0,0-448,0v5.49A96,96,0,0,0,32,352v96a96,96,0,0,0,129.49,90A224.05,224.05,0,0,0,384,736a64,64,0,1,0-62.72-76.81C264.14,634.75,224,578,224,512V256c0-88.22,71.78-160,160-160s160,71.78,160,160V448a96,96,0,0,0,192,0V352A96.11,96.11,0,0,0,640,256ZM128,480a32,32,0,0,1-32-32V352a32,32,0,0,1,64,0v96A32,32,0,0,1,128,480Zm544-32a32,32,0,0,1-64,0V352a32,32,0,0,1,64,0Z"/><rect class="a" width="768" height="768"/></svg>