<svg xmlns="http://www.w3.org/2000/svg" width="768" height="768" viewBox="0 0 768 768"><defs><style>.a{opacity:0;}</style></defs><title>user</title><path d="M610.27,445.73a319.26,319.26,0,0,0-107.45-71A191.8,191.8,0,0,0,576,224c0-105.87-86.13-192-192-192S192,118.13,192,224a191.76,191.76,0,0,0,73.18,150.71A320.67,320.67,0,0,0,64,672v32a32,32,0,0,0,64,0V672a256,256,0,1,1,512,0v32a32,32,0,0,0,64,0V672A317.89,317.89,0,0,0,610.27,445.73ZM384,96A128,128,0,1,1,256,224,128.14,128.14,0,0,1,384,96Z"/><rect class="a" width="768" height="768"/></svg>