<svg xmlns="http://www.w3.org/2000/svg" width="768" height="768" viewBox="0 0 768 768"><defs><style>.a{opacity:0;}</style></defs><title>user-alert</title><path d="M639.69,467,626,608a32.15,32.15,0,0,1-64,0L548.31,467a45.9,45.9,0,0,1,91.38-8.87A49.58,49.58,0,0,1,639.69,467ZM593.5,671.5a32,32,0,1,0,32,32A32,32,0,0,0,593.5,671.5ZM576,224c0,105.87-86.13,192-192,192h0A256,256,0,0,0,128,672v32a32,32,0,0,1-64,0V672A320.67,320.67,0,0,1,265.18,374.71,191.76,191.76,0,0,1,192,224c0-105.87,86.13-192,192-192S576,118.13,576,224Zm-64,0A128,128,0,1,0,384,352,128.14,128.14,0,0,0,512,224Z"/><rect class="a" width="768" height="768"/></svg>