<svg xmlns="http://www.w3.org/2000/svg" width="768" height="768" viewBox="0 0 768 768"><defs><style>.a{opacity:0;}</style></defs><title>sort-time-asce</title><path d="M736,384a32,32,0,0,1-64,0A288,288,0,1,0,384,672a32,32,0,0,1,0,64A352.09,352.09,0,0,1,247,59.67,351.9,351.9,0,0,1,736,384ZM598.63,425.37a32,32,0,0,0-45.26,0l-96,96a32,32,0,0,0,45.26,45.26L544,525.26V704a32,32,0,0,0,64,0V525.26l41.37,41.37a32,32,0,0,0,45.26-45.26ZM384,159a32,32,0,0,0-32,32V384H224a32,32,0,0,0,0,64H384a32,32,0,0,0,32-32V191A32,32,0,0,0,384,159Z"/><rect class="a" width="768" height="768"/></svg>