
<svg xmlns="http://www.w3.org/2000/svg" width="768" height="768" viewBox="0 0 768 768"><defs><style>.a{opacity:0;}</style></defs><title>menu-slider-hide</title><path d="M64,96A32,32,0,0,1,96,64H672a32,32,0,0,1,0,64H96A32,32,0,0,1,64,96ZM672,255.67H352a32,32,0,1,0,0,64H672a32,32,0,0,0,0-64Zm0,192.66H352a32,32,0,1,0,0,64H672a32,32,0,0,0,0-64ZM672,640H96a32,32,0,0,0,0,64H672a32,32,0,0,0,0-64ZM238.31,508.62a32,32,0,0,1-33.51-3l-128-96a32,32,0,0,1,0-51.2l128-96A32,32,0,0,1,256,288V480A32,32,0,0,1,238.31,508.62Z"/><rect class="a" width="768" height="768"/></svg>