<svg xmlns="http://www.w3.org/2000/svg" width="768" height="768" viewBox="0 0 768 768"><defs><style>.a{opacity:0;}</style></defs><title>scan-back</title><path d="M640,288a32,32,0,0,1,0,64H128a32,32,0,0,1,0-64ZM480,128H640v64a32,32,0,0,0,64,0V96a32,32,0,0,0-32-32H480a32,32,0,0,0,0,64ZM96,224a32,32,0,0,0,32-32V128H288a32,32,0,0,0,0-64H96A32,32,0,0,0,64,96v96A32,32,0,0,0,96,224ZM288,640H128V448a32,32,0,0,0-64,0V672a32,32,0,0,0,32,32H288a32,32,0,0,0,0-64ZM608,480H544V448a16,16,0,0,0-24.88-13.31l-96,64a16,16,0,0,0,0,26.62l96,64A16,16,0,0,0,544,576V544h64a64,64,0,0,1,0,128H448a32,32,0,0,0,0,64H608a128,128,0,0,0,0-256Z"/><rect class="a" width="768" height="768"/></svg>