<svg xmlns="http://www.w3.org/2000/svg" width="768" height="768" viewBox="0 0 768 768"><defs><style>.a{opacity:0;}</style></defs><title>scale-down</title><path d="M704,320a32,32,0,0,1-32,32H448a32,32,0,0,1-32-32V96a32,32,0,0,1,64,0V242.74L649.37,73.37a32,32,0,0,1,45.26,45.26L525.26,288H672A32,32,0,0,1,704,320ZM352,446.42c0-.26,0-.52-.06-.78s0-.52-.06-.78-.07-.64-.11-.95-.05-.39-.07-.59-.12-.68-.18-1c0-.17-.05-.34-.09-.51-.07-.35-.14-.68-.22-1l-.12-.51c-.08-.33-.17-.65-.26-1s-.1-.37-.16-.55-.18-.59-.28-.89l-.21-.61-.3-.79-.27-.7-.3-.68c-.11-.26-.23-.52-.35-.77s-.19-.39-.28-.58-.28-.56-.43-.84l-.27-.48-.51-.89-.27-.43c-.19-.29-.37-.59-.57-.89-.09-.14-.19-.27-.29-.41s-.4-.58-.61-.86l-.35-.45c-.2-.26-.4-.52-.61-.77s-.31-.37-.47-.56l-.55-.63c-.29-.32-.6-.64-.9-.95l-.18-.19-.2-.18c-.31-.31-.62-.61-.94-.9l-.63-.55-.56-.47c-.25-.22-.52-.42-.78-.62l-.44-.34c-.28-.21-.57-.41-.86-.61l-.41-.29-.9-.57-.42-.27-.89-.51-.48-.27-.85-.43-.57-.28-.78-.35-.67-.3-.7-.27-.79-.3-.61-.21-.89-.28-.55-.16-1-.26-.52-.12-1-.22-.52-.1-1-.17-.61-.07-.93-.11-.81-.07-.75,0c-.52,0-1.05,0-1.58,0H95a32,32,0,0,0,0,64H242.74L73.37,649.37a32,32,0,0,0,45.26,45.26L288,525.26V672a32,32,0,0,0,64,0V447.91C352,447.42,352,446.92,352,446.42ZM128,352a32,32,0,0,0,32-32V160H319a32,32,0,0,0,0-64H128a32,32,0,0,0-32,32V320A32,32,0,0,0,128,352Zm511,97a32,32,0,0,0-32,32V608H448a32,32,0,0,0,0,64H639a32,32,0,0,0,32-32V481A32,32,0,0,0,639,449Z"/><rect class="a" width="768" height="768"/></svg>