<svg xmlns="http://www.w3.org/2000/svg" width="768" height="768" viewBox="0 0 768 768"><defs><style>.a{opacity:0;}</style></defs><title>clip</title><path d="M269.1,725.7a224.24,224.24,0,0,1-159.61-66.12l-1.43-1.43c-42.61-42.61-65.83-99.63-65.4-160.56a227.35,227.35,0,0,1,66.83-160.1L235,212c56.77-56.77,149.14-56.77,205.91,0s56.77,149.13,0,205.9L291.73,567.07a32,32,0,1,1-45.25-45.26L395.65,372.64a81.6,81.6,0,0,0-115.39-115.4L154.75,382.75a163.69,163.69,0,0,0-48.09,115.3c-.31,43.66,16.26,84.45,46.65,114.85l1.43,1.43c63.06,63,165.66,63,228.72,0L613.68,384.11A162.76,162.76,0,0,0,404.33,136.35a32,32,0,0,1-37.14-52.12A226.75,226.75,0,0,1,658.93,429.37L428.72,659.58A224.25,224.25,0,0,1,269.1,725.7Z"/><rect class="a" width="768" height="768"/></svg>