<svg xmlns="http://www.w3.org/2000/svg" width="768" height="768" viewBox="0 0 768 768"><defs><style>.a{opacity:0;}</style></defs><title>calculate</title><path d="M352,192H256V96a32,32,0,0,0-64,0v96H96a32,32,0,0,0,0,64h96v96a32,32,0,0,0,64,0V256h96a32,32,0,0,0,0-64Z"/><path d="M672,544H416a32,32,0,0,1,0-64H672a32,32,0,0,1,0,64Z"/><path d="M672,672H416a32,32,0,0,1,0-64H672a32,32,0,0,1,0,64Z"/><path d="M96,704a32,32,0,0,1-22.61-54.65l576-575a32,32,0,1,1,45.22,45.3l-576,575A31.93,31.93,0,0,1,96,704Z"/><rect class="a" width="768" height="768"/></svg>