<svg xmlns="http://www.w3.org/2000/svg" width="768" height="768" viewBox="0 0 768 768"><defs><style>.a{opacity:0;}</style></defs><title>连续扫描</title><path d="M735.75,567.55v7.62A105.24,105.24,0,0,1,559.4,652.75a26.09,26.09,0,1,1,35.26-38.47,53.05,53.05,0,0,0,88.91-39.11v-7.62a53.06,53.06,0,0,0-102.32-19.7l-26.56,66.41a105.23,105.23,0,0,1-202.94-39.09v-7.62A105.24,105.24,0,0,1,527,489a26.09,26.09,0,0,1-15.84,45.53,25.86,25.86,0,0,1-18.86-6.56,53.06,53.06,0,0,0-88.35,39.61v7.62a53.05,53.05,0,0,0,102.31,19.71l26.57-66.41a105.23,105.23,0,0,1,202.94,39.08ZM128,288a32,32,0,0,0,0,64H640a32,32,0,0,0,0-64ZM480,128H640v64a32,32,0,0,0,64,0V96a32,32,0,0,0-32-32H480a32,32,0,0,0,0,64ZM288,640H128V448a32,32,0,0,0-64,0V672a32,32,0,0,0,32,32H288a32,32,0,0,0,0-64ZM96,224a32,32,0,0,0,32-32V128H288a32,32,0,0,0,0-64H96A32,32,0,0,0,64,96v96A32,32,0,0,0,96,224Z"/><rect class="a" width="768" height="768"/></svg>