<?xml version="1.0" encoding="UTF-8"?>
<svg width="768px" height="768px" viewBox="0 0 768 768" version="1.1" xmlns="http://www.w3.org/2000/svg" xmlns:xlink="http://www.w3.org/1999/xlink">
    <title>live-broadcast-plus</title>
    <g id="Page-1" stroke="none" stroke-width="1" fill="none" fill-rule="evenodd">
        <g id="live-broadcast-plus" fill="#000000" fill-rule="nonzero">
            <path d="M401,384 C400.899269,388.523004 398.482295,392.677179 394.6,395 L266.6,477.29 C263.722784,479.087791 260.392587,480.027878 257,480.000603 C254.54,480.004172 252.104548,479.510959 249.84,478.55 C244.42,476.23 241,471.48 241,466.29 L241,301.71 C241,296.52 244.42,291.77 249.84,289.45 C255.304787,287.13353 261.554074,287.614531 266.6,290.74 L394.6,373 C398.482295,375.322821 400.899269,379.476996 401,384 Z M704,544 L608,544 L608,448 C608,430.326888 593.673112,416 576,416 C558.326888,416 544,430.326888 544,448 L544,544 L448,544 C430.326888,544 416,558.326888 416,576 C416,593.673112 430.326888,608 448,608 L544,608 L544,704 C544,721.673112 558.326888,736 576,736 C593.673112,736 608,721.673112 608,704 L608,608 L704,608 C721.673112,608 736,593.673112 736,576 C736,558.326888 721.673112,544 704,544 Z M721.87,165.45 C713.036648,159.504914 701.824841,158.342874 691.96,162.35 L576,209.46 L576,128 C576,110.326888 561.673112,96 544,96 L64,96 C46.326888,96 32,110.326888 32,128 L32,640 C32,657.673112 46.326888,672 64,672 L320,672 C337.673112,672 352,657.673112 352,640 C352,622.326888 337.673112,608 320,608 L96,608 L96,160 L512,160 L512,320 C512,337.673112 526.326888,352 544,352 C561.673112,352 576,337.673112 576,320 L576,278.54 L672,239.54 L672,384 C672,401.673112 686.326888,416 704,416 C721.673112,416 736,401.673112 736,384 L736,192 C736,181.350088 730.704599,171.39731 721.87,165.45 Z" id="Shape"></path>
            <rect id="Rectangle" opacity="0" x="0" y="0" width="768" height="768"></rect>
        </g>
    </g>
</svg>