<svg xmlns="http://www.w3.org/2000/svg" width="768" height="768" viewBox="0 0 768 768"><defs><style>.a{opacity:0;}</style></defs><title>link-break</title><path d="M520.48,460.52a32,32,0,0,1-22.62-54.63L610.29,293.46A96,96,0,1,0,474.52,157.7L362.09,270.13a32,32,0,0,1-45.25-45.26L429.27,112.44c62.38-62.38,163.89-62.38,226.27,0a160,160,0,0,1,0,226.28L543.11,451.15A31.9,31.9,0,0,1,520.48,460.52Zm-181.72,195L451.89,542.36a32,32,0,0,0-45.25-45.25L293.5,610.25A96,96,0,0,1,157.74,474.48L270.87,361.35a32,32,0,0,0-45.25-45.26L112.48,429.23A160,160,0,0,0,338.76,655.5ZM289,160V96a32,32,0,0,0-64,0v64a32,32,0,0,0,64,0Zm-97,96a32,32,0,0,0-32-32H97a32,32,0,0,0,0,64h63A32,32,0,0,0,192,256ZM544,672V608a32,32,0,0,0-64,0v64a32,32,0,0,0,64,0ZM704,512a32,32,0,0,0-32-32H608a32,32,0,0,0,0,64h64A32,32,0,0,0,704,512Z"/><rect class="a" width="768" height="768"/></svg>