<svg xmlns="http://www.w3.org/2000/svg" width="768" height="768" viewBox="0 0 768 768"><defs><style>.a{opacity:0;}</style></defs><title>trash</title><path d="M672,160H544V64a32,32,0,0,0-32-32H256a32,32,0,0,0-32,32v96H96a32,32,0,0,0,0,64h32V641a96.11,96.11,0,0,0,96,96H544a96.11,96.11,0,0,0,96-96V224h32a32,32,0,0,0,0-64ZM288,96H480v63H288ZM576,641a32,32,0,0,1-32,32H224a32,32,0,0,1-32-32V224H576ZM288,576V352a32,32,0,0,1,64,0V576a32,32,0,0,1-64,0Zm128,0V352a32,32,0,0,1,64,0V576a32,32,0,0,1-64,0Z"/><rect class="a" width="768" height="768"/></svg>