<svg xmlns="http://www.w3.org/2000/svg" width="768" height="768" viewBox="0 0 768 768"><defs><style>.a{opacity:0;}</style></defs><title>link</title><path d="M245.24,714.76A192,192,0,0,1,109.47,387L200,296.49a32,32,0,1,1,45.26,45.26l-90.51,90.5a128,128,0,0,0,181,181l90.5-90.51A32,32,0,0,1,471.51,568L381,658.53A190.75,190.75,0,0,1,245.24,714.76ZM569,470.51,659.53,380A192,192,0,0,0,388,108.47L297.49,199a32,32,0,1,0,45.26,45.26l90.51-90.51a128,128,0,0,1,181,181l-90.51,90.5A32,32,0,0,0,569,470.51ZM293.49,519.76l227-227a32,32,0,1,0-45.25-45.25l-227,227a32,32,0,1,0,45.25,45.25Z"/><rect class="a" width="768" height="768"/></svg>