<svg xmlns="http://www.w3.org/2000/svg" width="768" height="768" viewBox="0 0 768 768"><defs><style>.a{opacity:0;}</style></defs><title>turn-90-cw</title><path d="M160,644.53a31.91,31.91,0,0,1-22.4-9.15A352,352,0,1,1,729,313.63,32,32,0,0,1,689.69,351l-121.6-31a32,32,0,0,1,15.82-62l66.71,17A287.55,287.55,0,0,0,384,96,288,288,0,0,0,182.4,589.67,32,32,0,0,1,160,644.53ZM565.5,519V627.78c-.48,24.05-8.13,42.86-22.74,56-14.25,12.92-31.76,19.6-52.06,19.84h-.12c-19.71-.24-36.93-6.9-51.17-19.81-15.33-13.18-23.22-32-23.45-56V519c.23-24.1,8.12-43,23.45-56.18,14.26-12.92,31.5-19.47,51.23-19.47,20.32,0,37.86,6.56,52.13,19.52C557.37,476,565,494.89,565.5,519Zm-45,2.36c-.62-22-10.1-32.49-29.82-32.92-19.82.43-29.25,10.9-29.65,32.94V625.75c.4,22.18,9.83,32.65,29.65,32.87,19.72-.22,29.2-10.69,29.82-32.93ZM392.62,489.36c20,47.85-25.89,120.91-71.54,214.14h-51.5c12.62-24.65,35.2-70.09,51.53-103-73.27,11-98.76-84.46-54.2-132.72C301.53,431.42,373.4,434.66,392.62,489.36ZM290.69,516.13c-8.88,47,49.72,65,61.51,14.5C358.62,479.09,301.43,474,290.69,516.13ZM672,432a48,48,0,1,1-48-48A48.05,48.05,0,0,1,672,432Zm-32,0a16,16,0,1,0-16,16A16,16,0,0,0,640,432Z"/><rect class="a" width="768" height="768"/></svg>