<svg xmlns="http://www.w3.org/2000/svg" width="768" height="768" viewBox="0 0 768 768"><defs><style>.a{opacity:0;}</style></defs><title>layer-stack</title><path d="M736,384a32,32,0,0,0-17.69-28.62L615.55,304l102.76-51.38a32,32,0,0,0,0-57.24l-320-160a32,32,0,0,0-28.62,0l-320,160a32,32,0,0,0,0,57.24L152.45,304,49.69,355.38a32,32,0,0,0,0,57.24L152.44,464,49.69,515.38a32,32,0,0,0,0,57.24l320,160a32,32,0,0,0,28.62,0l320-160a32,32,0,0,0,0-57.24L615.55,464l102.76-51.38A32,32,0,0,0,736,384ZM384,99.78,632.45,224,529.69,275.38,384,348.22,238.45,275.45l-.16-.08L135.55,224Zm0,568.44L135.55,544,224,499.78l145.69,72.84a32,32,0,0,0,28.62,0L544,499.78,632.45,544ZM529.69,435.38,384,508.22,238.31,435.38,135.55,384,224,339.78l145.62,72.81h0l.05,0h0a32,32,0,0,0,28.62,0L544,339.78,632.45,384Z"/><rect class="a" width="768" height="768"/></svg>