<svg xmlns="http://www.w3.org/2000/svg" width="768" height="768" viewBox="0 0 768 768"><defs><style>.a{opacity:0;}</style></defs><title>scan-config</title><path d="M696,576a120.15,120.15,0,0,0-1.69-20.12l33.81-29.59A158.55,158.55,0,0,0,715.73,498l-2.23-3.88a160.72,160.72,0,0,0-18.43-25l-42.5,14.47a120,120,0,0,0-34.84-20.14l-8.72-44a161,161,0,0,0-66,0l-8.72,44a120,120,0,0,0-34.84,20.14l-42.5-14.47a160.8,160.8,0,0,0-18.43,25L436.27,498a159,159,0,0,0-12.39,28.27l33.81,29.59a120.61,120.61,0,0,0,0,40.24l-33.81,29.59A158.86,158.86,0,0,0,436.27,654l2.23,3.88a161.36,161.36,0,0,0,18.43,25l42.5-14.47a120,120,0,0,0,34.84,20.14l8.72,44a161,161,0,0,0,66,0l8.72-44a120,120,0,0,0,34.84-20.14l42.5,14.47a160.8,160.8,0,0,0,18.43-25l2.23-3.86a159,159,0,0,0,12.39-28.27l-33.81-29.59A120.15,120.15,0,0,0,696,576ZM576,640a64,64,0,1,1,64-64A64,64,0,0,1,576,640Zm64-352a32,32,0,0,1,0,64H128a32,32,0,0,1,0-64ZM448,96a32,32,0,0,1,32-32H672a32,32,0,0,1,32,32v96a32,32,0,0,1-64,0V128H480A32,32,0,0,1,448,96ZM320,672a32,32,0,0,1-32,32H96a32,32,0,0,1-32-32V448a32,32,0,0,1,64,0V640H288A32,32,0,0,1,320,672ZM64,192V96A32,32,0,0,1,96,64H288a32,32,0,0,1,0,64H128v64a32,32,0,0,1-64,0Z"/><rect class="a" width="768" height="768"/></svg>