<?xml version="1.0" encoding="UTF-8"?>
<svg width="768px" height="768px" viewBox="0 0 768 768" version="1.1" xmlns="http://www.w3.org/2000/svg" xmlns:xlink="http://www.w3.org/1999/xlink">
    <title>暂停</title>
    <g id="Page-1" stroke="none" stroke-width="1" fill="none" fill-rule="evenodd">
        <g id="暂停" fill="#000000" fill-rule="nonzero">
            <path d="M288,736.5 L128,736.5 C110.326888,736.5 96,722.173112 96,704.5 L96,63.5 C96,45.826888 110.326888,31.5 128,31.5 L288,31.5 C305.673112,31.5 320,45.826888 320,63.5 L320,704.5 C320,722.173112 305.673112,736.5 288,736.5 Z M160,672.5 L256,672.5 L256,95.5 L160,95.5 L160,672.5 Z M640,736.5 L480,736.5 C462.326888,736.5 448,722.173112 448,704.5 L448,63.5 C448,45.826888 462.326888,31.5 480,31.5 L640,31.5 C657.673112,31.5 672,45.826888 672,63.5 L672,704.5 C672,722.173112 657.673112,736.5 640,736.5 Z M512,672.5 L608,672.5 L608,95.5 L512,95.5 L512,672.5 Z" id="形状"></path>
            <rect id="矩形" opacity="0" x="0" y="0" width="768" height="768"></rect>
        </g>
    </g>
</svg>