<svg xmlns="http://www.w3.org/2000/svg" width="768" height="768" viewBox="0 0 768 768"><defs><style>.a{opacity:0;}</style></defs><title>scan</title><path d="M704,512V672a32,32,0,0,1-32,32H448a32,32,0,0,1,0-64H640V512a32,32,0,0,1,64,0ZM96,288a32,32,0,0,0,32-32V128H320a32,32,0,0,0,0-64H96A32,32,0,0,0,64,96V256A32,32,0,0,0,96,288ZM672,64H448a32,32,0,0,0,0,64H640V256a32,32,0,0,0,64,0V96A32,32,0,0,0,672,64ZM320,640H128V512a32,32,0,0,0-64,0V672a32,32,0,0,0,32,32H320a32,32,0,0,0,0-64ZM672,352H96a32,32,0,0,0,0,64H672a32,32,0,0,0,0-64Z"/><rect class="a" width="768" height="768"/></svg>