<svg xmlns="http://www.w3.org/2000/svg" width="768" height="768" viewBox="0 0 768 768"><defs><style>.a{opacity:0;}</style></defs><title>scan-exchange</title><path d="M640,447a96.11,96.11,0,0,1,96,96,32,32,0,0,1-64,0,32,32,0,0,0-32-32H512v19.2a13,13,0,0,1-6.34,11.29,11.38,11.38,0,0,1-12.32-.64l-72-51.2a13.29,13.29,0,0,1,0-21.3l72-51.2a11.38,11.38,0,0,1,12.32-.64A13,13,0,0,1,512,427.8V447Zm90.66,213.77-72-51.6a11.28,11.28,0,0,0-12.32-.64A13.06,13.06,0,0,0,640,619.9V639H512a32,32,0,0,1-32-32,32,32,0,0,0-64,0,96.11,96.11,0,0,0,96,96H640v20.1a13.06,13.06,0,0,0,6.34,11.37,11.27,11.27,0,0,0,12.32-.64l72-51.6a13.45,13.45,0,0,0,0-21.46ZM672,320a32,32,0,0,0-32-32H128a32,32,0,0,0,0,64H640A32,32,0,0,0,672,320ZM480,128H640v64a32,32,0,0,0,64,0V96a32,32,0,0,0-32-32H480a32,32,0,0,0,0,64ZM96,224a32,32,0,0,0,32-32V128H288a32,32,0,0,0,0-64H96A32,32,0,0,0,64,96v96A32,32,0,0,0,96,224ZM288,640H128V448a32,32,0,0,0-64,0V672a32,32,0,0,0,32,32H288a32,32,0,0,0,0-64Z"/><rect class="a" width="768" height="768"/></svg>