<svg xmlns="http://www.w3.org/2000/svg" width="768" height="768" viewBox="0 0 768 768"><defs><style>.a{opacity:0;}</style></defs><title>scan-add</title><path d="M736,576a32,32,0,0,1-32,32H608v96a32,32,0,0,1-64,0V608H448a32,32,0,0,1,0-64h96V448a32,32,0,0,1,64,0v96h96A32,32,0,0,1,736,576ZM320,672a32,32,0,0,0-32-32H128V448a32,32,0,0,0-64,0V672a32,32,0,0,0,32,32H288A32,32,0,0,0,320,672ZM128,192V128H288a32,32,0,0,0,0-64H96A32,32,0,0,0,64,96v96a32,32,0,0,0,64,0Zm576,0V96a32,32,0,0,0-32-32H480a32,32,0,0,0,0,64H640v64a32,32,0,0,0,64,0ZM672,320a32,32,0,0,0-32-32H128a32,32,0,0,0,0,64H640A32,32,0,0,0,672,320Z"/><rect class="a" width="768" height="768"/></svg>